Fanwood Text.ufo
<glyph name="exclam" format="1">
  <advance width="261"/>
  <unicode hex="0021"/>
  <outline>
    <contour>
      <point x="77" y="21"/>
      <point x="110" y="-11"/>
      <point x="139" y="-11" type="curve" smooth="yes"/>
      <point x="152" y="-11"/>
      <point x="184" y="18"/>
      <point x="184" y="50" type="curve" smooth="yes"/>
      <point x="184" y="78"/>
      <point x="143" y="100"/>
      <point x="124" y="100" type="curve" smooth="yes"/>
      <point x="105" y="100"/>
      <point x="77" y="60"/>
      <point x="77" y="38" type="curve" smooth="yes"/>
    </contour>
    <contour>
      <point x="94" y="594"/>
      <point x="107" y="405"/>
      <point x="113" y="182" type="curve" smooth="yes"/>
      <point x="113" y="172"/>
      <point x="122" y="169"/>
      <point x="129" y="169" type="curve" smooth="yes"/>
      <point x="136" y="169"/>
      <point x="146" y="172"/>
      <point x="146" y="182" type="curve"/>
      <point x="158" y="446"/>
      <point x="172" y="640"/>
      <point x="172" y="652" type="curve" smooth="yes"/>
      <point x="172" y="672"/>
      <point x="161" y="676"/>
      <point x="138" y="676" type="curve" smooth="yes"/>
      <point x="112" y="676"/>
      <point x="94" y="671"/>
      <point x="94" y="648" type="curve" smooth="yes"/>
    </contour>
  </outline>
</glyph>
<glyph name="dollar" format="1">
  <advance width="500"/>
  <unicode hex="0024"/>
  <outline>
    <contour>
      <point x="55" y="50"/>
      <point x="135" y="2"/>
      <point x="226" y="-4" type="curve"/>
      <point x="235" y="-5"/>
      <point x="236" y="-6"/>
      <point x="236" y="-13" type="curve" smooth="yes"/>
      <point x="236" y="-139" type="line" smooth="yes"/>
      <point x="236" y="-150"/>
      <point x="236" y="-151"/>
      <point x="250" y="-151" type="curve" smooth="yes"/>
      <point x="264" y="-151"/>
      <point x="265" y="-151"/>
      <point x="265" y="-140" type="curve" smooth="yes"/>
      <point x="265" y="-13" type="line" smooth="yes"/>
      <point x="265" y="-7"/>
      <point x="266" y="-5"/>
      <point x="276" y="-4" type="curve" smooth="yes"/>
      <point x="384" y="6"/>
      <point x="445" y="72"/>
      <point x="445" y="169" type="curve" smooth="yes"/>
      <point x="445" y="265"/>
      <point x="353" y="309"/>
      <point x="275" y="345" type="curve" smooth="yes"/>
      <point x="265" y="350"/>
      <point x="265" y="348"/>
      <point x="265" y="365" type="curve" smooth="yes"/>
      <point x="265" y="598" type="line" smooth="yes"/>
      <point x="265" y="607"/>
      <point x="266" y="605"/>
      <point x="273" y="605" type="curve"/>
      <point x="384" y="593"/>
      <point x="347" y="502"/>
      <point x="383" y="502" type="curve" smooth="yes"/>
      <point x="391" y="502"/>
      <point x="421" y="514"/>
      <point x="421" y="532" type="curve" smooth="yes"/>
      <point x="421" y="565"/>
      <point x="366" y="624"/>
      <point x="270" y="631" type="curve"/>
      <point x="266" y="631"/>
      <point x="265" y="633"/>
      <point x="265" y="637" type="curve" smooth="yes"/>
      <point x="265" y="678" type="line" smooth="yes"/>
      <point x="265" y="685"/>
      <point x="262" y="685"/>
      <point x="255" y="685" type="curve" smooth="yes"/>
      <point x="246" y="685" type="line" smooth="yes"/>
      <point x="240" y="685"/>
      <point x="236" y="685"/>
      <point x="236" y="678" type="curve" smooth="yes"/>
      <point x="236" y="638" type="line" smooth="yes"/>
      <point x="236" y="630"/>
      <point x="235" y="631"/>
      <point x="227" y="630" type="curve" smooth="yes"/>
      <point x="136" y="620"/>
      <point x="59" y="562"/>
      <point x="59" y="474" type="curve" smooth="yes"/>
      <point x="59" y="374"/>
      <point x="146" y="326"/>
      <point x="224" y="291" type="curve" smooth="yes"/>
      <point x="235" y="286"/>
      <point x="236" y="285"/>
      <point x="236" y="270" type="curve" smooth="yes"/>
      <point x="236" y="31" type="line" smooth="yes"/>
      <point x="236" y="23"/>
      <point x="234" y="23"/>
      <point x="226" y="23" type="curve"/>
      <point x="183" y="27"/>
      <point x="155" y="46"/>
      <point x="131" y="75" type="curve" smooth="yes"/>
      <point x="115" y="94"/>
      <point x="108" y="113"/>
      <point x="93" y="113" type="curve" smooth="yes"/>
      <point x="82" y="113"/>
      <point x="55" y="106"/>
      <point x="55" y="92" type="curve" smooth="yes"/>
    </contour>
    <contour>
      <point x="120" y="570"/>
      <point x="188" y="602"/>
      <point x="231" y="605" type="curve"/>
      <point x="236" y="605"/>
      <point x="236" y="604"/>
      <point x="236" y="598" type="curve" smooth="yes"/>
      <point x="236" y="369" type="line" smooth="yes"/>
      <point x="236" y="361"/>
      <point x="233" y="363"/>
      <point x="227" y="365" type="curve"/>
      <point x="174" y="388"/>
      <point x="120" y="419"/>
      <point x="120" y="484" type="curve" smooth="yes"/>
    </contour>
    <contour>
      <point x="265" y="266" type="line" smooth="yes"/>
      <point x="265" y="269"/>
      <point x="265" y="273"/>
      <point x="268" y="273" type="curve" smooth="yes"/>
      <point x="269" y="273"/>
      <point x="271" y="272"/>
      <point x="273" y="271" type="curve"/>
      <point x="331" y="245"/>
      <point x="382" y="213"/>
      <point x="382" y="147" type="curve" smooth="yes"/>
      <point x="382" y="94"/>
      <point x="338" y="38"/>
      <point x="275" y="25" type="curve" smooth="yes"/>
      <point x="266" y="23"/>
      <point x="265" y="25"/>
      <point x="265" y="37" type="curve" smooth="yes"/>
    </contour>
  </outline>
</glyph>
<glyph name="percent" format="1">
  <advance width="657"/>
  <unicode hex="0025"/>
  <outline>
    <contour>
      <point x="47" y="299"/>
      <point x="83" y="247"/>
      <point x="150" y="247" type="curve" smooth="yes"/>
      <point x="235" y="247"/>
      <point x="315" y="343"/>
      <point x="323" y="439" type="curve"/>
      <point x="324" y="447"/>
      <point x="324" y="456"/>
      <point x="324" y="464" type="curve" smooth="yes"/>
      <point x="324" y="478" type="line" smooth="yes"/>
      <point x="324" y="490"/>
      <point x="322" y="490"/>
      <point x="336" y="489" type="curve"/>
      <point x="343" y="488"/>
      <point x="350" y="488"/>
      <point x="356" y="488" type="curve" smooth="yes"/>
      <point x="398" y="488"/>
      <point x="438" y="504"/>
      <point x="455" y="512" type="curve" smooth="yes"/>
      <point x="465" y="517"/>
      <point x="463" y="514"/>
      <point x="458" y="506" type="curve"/>
      <point x="407" y="417"/>
      <point x="98" y="-19"/>
      <point x="96" y="-24" type="curve"/>
      <point x="95" y="-26"/>
      <point x="92" y="-30"/>
      <point x="92" y="-33" type="curve" smooth="yes"/>
      <point x="92" y="-43"/>
      <point x="105" y="-44"/>
      <point x="113" y="-44" type="curve" smooth="yes"/>
      <point x="120" y="-44"/>
      <point x="131" y="-44"/>
      <point x="135" y="-37" type="curve"/>
      <point x="158" y="-1"/>
      <point x="512" y="524"/>
      <point x="568" y="606" type="curve" smooth="yes"/>
      <point x="572" y="612"/>
      <point x="575" y="617"/>
      <point x="575" y="620" type="curve" smooth="yes"/>
      <point x="575" y="626"/>
      <point x="560" y="635"/>
      <point x="554" y="635" type="curve" smooth="yes"/>
      <point x="552" y="635"/>
      <point x="537" y="617"/>
      <point x="536" y="616" type="curve" smooth="yes"/>
      <point x="512" y="593"/>
      <point x="483" y="561"/>
      <point x="447" y="539" type="curve" smooth="yes"/>
      <point x="425" y="526"/>
      <point x="389" y="511"/>
      <point x="356" y="511" type="curve" smooth="yes"/>
      <point x="332" y="511"/>
      <point x="314" y="520"/>
      <point x="300" y="534" type="curve" smooth="yes"/>
      <point x="281" y="553"/>
      <point x="262" y="566"/>
      <point x="227" y="566" type="curve" smooth="yes"/>
      <point x="120" y="566"/>
      <point x="47" y="435"/>
      <point x="47" y="362" type="curve" smooth="yes"/>
    </contour>
    <contour>
      <point x="102" y="426"/>
      <point x="183" y="528"/>
      <point x="240" y="528" type="curve" smooth="yes"/>
      <point x="275" y="528"/>
      <point x="289" y="501"/>
      <point x="289" y="461" type="curve" smooth="yes"/>
      <point x="289" y="353"/>
      <point x="216" y="268"/>
      <point x="153" y="268" type="curve" smooth="yes"/>
      <point x="117" y="268"/>
      <point x="102" y="301"/>
      <point x="102" y="336" type="curve" smooth="yes"/>
    </contour>
    <contour>
      <point x="333" y="40"/>
      <point x="369" y="-12"/>
      <point x="436" y="-12" type="curve" smooth="yes"/>
      <point x="524" y="-12"/>
      <point x="610" y="91"/>
      <point x="610" y="197" type="curve" smooth="yes"/>
      <point x="610" y="265"/>
      <point x="575" y="309"/>
      <point x="517" y="309" type="curve" smooth="yes"/>
      <point x="420" y="309"/>
      <point x="333" y="196"/>
      <point x="333" y="103" type="curve" smooth="yes"/>
    </contour>
    <contour>
      <point x="388" y="168"/>
      <point x="469" y="270"/>
      <point x="525" y="270" type="curve" smooth="yes"/>
      <point x="560" y="270"/>
      <point x="575" y="242"/>
      <point x="575" y="202" type="curve" smooth="yes"/>
      <point x="575" y="95"/>
      <point x="502" y="10"/>
      <point x="439" y="10" type="curve" smooth="yes"/>
      <point x="402" y="10"/>
      <point x="388" y="42"/>
      <point x="388" y="78" type="curve" smooth="yes"/>
    </contour>
  </outline>
</glyph>
<glyph name="ampersand" format="1">
  <advance width="657"/>
  <unicode hex="0026"/>
  <outline>
    <contour>
      <point x="37" y="58"/>
      <point x="108" y="-13"/>
      <point x="219" y="-13" type="curve" smooth="yes"/>
      <point x="305" y="-13"/>
      <point x="378" y="63"/>
      <point x="409" y="97" type="curve" smooth="yes"/>
      <point x="417" y="106"/>
      <point x="418" y="106"/>
      <point x="425" y="96" type="curve" smooth="yes"/>
      <point x="437" y="79"/>
      <point x="460" y="43"/>
      <point x="472" y="-1" type="curve"/>
      <point x="475" y="-10"/>
      <point x="478" y="-13"/>
      <point x="490" y="-13" type="curve" smooth="yes"/>
      <point x="505" y="-13"/>
      <point x="541" y="-4"/>
      <point x="608" y="-3" type="curve" smooth="yes"/>
      <point x="623" y="-3"/>
      <point x="624" y="-2"/>
      <point x="624" y="15" type="curve" smooth="yes"/>
      <point x="624" y="29"/>
      <point x="624" y="30"/>
      <point x="615" y="30" type="curve" smooth="yes"/>
      <point x="559" y="30"/>
      <point x="556" y="37"/>
      <point x="544" y="57" type="curve"/>
      <point x="527" y="88"/>
      <point x="501" y="129"/>
      <point x="479" y="156" type="curve"/>
      <point x="473" y="164"/>
      <point x="470" y="168"/>
      <point x="470" y="170" type="curve"/>
      <point x="473" y="180"/>
      <point x="546" y="283"/>
      <point x="566" y="312" type="curve" smooth="yes"/>
      <point x="574" y="324"/>
      <point x="579" y="329"/>
      <point x="584" y="329" type="curve" smooth="yes"/>
      <point x="618" y="329" type="line" smooth="yes"/>
      <point x="632" y="329"/>
      <point x="635" y="330"/>
      <point x="635" y="344" type="curve" smooth="yes"/>
      <point x="635" y="361"/>
      <point x="633" y="365"/>
      <point x="622" y="365" type="curve" smooth="yes"/>
      <point x="612" y="365"/>
      <point x="575" y="362"/>
      <point x="548" y="362" type="curve" smooth="yes"/>
      <point x="497" y="362"/>
      <point x="453" y="365"/>
      <point x="437" y="365" type="curve" smooth="yes"/>
      <point x="428" y="365"/>
      <point x="424" y="362"/>
      <point x="424" y="347" type="curve" smooth="yes"/>
      <point x="424" y="331"/>
      <point x="424" y="329"/>
      <point x="437" y="329" type="curve" smooth="yes"/>
      <point x="500" y="329" type="line" smooth="yes"/>
      <point x="517" y="329"/>
      <point x="516" y="328"/>
      <point x="516" y="327" type="curve" smooth="yes"/>
      <point x="516" y="307"/>
      <point x="476" y="244"/>
      <point x="455" y="206" type="curve" smooth="yes"/>
      <point x="448" y="193"/>
      <point x="449" y="192"/>
      <point x="437" y="205" type="curve" smooth="yes"/>
      <point x="385" y="261"/>
      <point x="342" y="308"/>
      <point x="281" y="359" type="curve" smooth="yes"/>
      <point x="268" y="370"/>
      <point x="267" y="370"/>
      <point x="282" y="380" type="curve" smooth="yes"/>
      <point x="320" y="406"/>
      <point x="408" y="472"/>
      <point x="408" y="542" type="curve" smooth="yes"/>
      <point x="408" y="612"/>
      <point x="341" y="645"/>
      <point x="269" y="645" type="curve" smooth="yes"/>
      <point x="180" y="645"/>
      <point x="103" y="577"/>
      <point x="103" y="486" type="curve" smooth="yes"/>
      <point x="103" y="439"/>
      <point x="138" y="393"/>
      <point x="160" y="368" type="curve" smooth="yes"/>
      <point x="168" y="359"/>
      <point x="174" y="355"/>
      <point x="174" y="353" type="curve" smooth="yes"/>
      <point x="174" y="351"/>
      <point x="170" y="348"/>
      <point x="162" y="342" type="curve" smooth="yes"/>
      <point x="125" y="316"/>
      <point x="37" y="246"/>
      <point x="37" y="155" type="curve" smooth="yes"/>
    </contour>
    <contour>
      <point x="105" y="257"/>
      <point x="147" y="294"/>
      <point x="177" y="316" type="curve" smooth="yes"/>
      <point x="190" y="325"/>
      <point x="197" y="330"/>
      <point x="200" y="330" type="curve" smooth="yes"/>
      <point x="204" y="330"/>
      <point x="208" y="326"/>
      <point x="217" y="319" type="curve" smooth="yes"/>
      <point x="274" y="272"/>
      <point x="354" y="193"/>
      <point x="391" y="141" type="curve"/>
      <point x="395" y="134"/>
      <point x="398" y="131"/>
      <point x="398" y="129" type="curve" smooth="yes"/>
      <point x="398" y="127"/>
      <point x="396" y="125"/>
      <point x="393" y="121" type="curve"/>
      <point x="373" y="101"/>
      <point x="323" y="55"/>
      <point x="251" y="55" type="curve" smooth="yes"/>
      <point x="177" y="55"/>
      <point x="105" y="119"/>
      <point x="105" y="197" type="curve" smooth="yes"/>
    </contour>
    <contour>
      <point x="174" y="565"/>
      <point x="200" y="609"/>
      <point x="257" y="609" type="curve" smooth="yes"/>
      <point x="303" y="609"/>
      <point x="334" y="569"/>
      <point x="334" y="526" type="curve" smooth="yes"/>
      <point x="334" y="469"/>
      <point x="292" y="428"/>
      <point x="264" y="407" type="curve" smooth="yes"/>
      <point x="254" y="400"/>
      <point x="249" y="396"/>
      <point x="244" y="396" type="curve" smooth="yes"/>
      <point x="240" y="396"/>
      <point x="234" y="402"/>
      <point x="224" y="413" type="curve"/>
      <point x="203" y="438"/>
      <point x="174" y="481"/>
      <point x="174" y="518" type="curve" smooth="yes"/>
    </contour>
  </outline>
</glyph>
<glyph name="asterisk" format="1">
  <advance width="391"/>
  <unicode hex="002A"/>
  <outline>
    <contour>
      <point x="27" y="428"/>
      <point x="42" y="417"/>
      <point x="60" y="417" type="curve" smooth="yes"/>
      <point x="70" y="417"/>
      <point x="79" y="420"/>
      <point x="86" y="424" type="curve" smooth="yes"/>
      <point x="106" y="436"/>
      <point x="141" y="479"/>
      <point x="164" y="500" type="curve"/>
      <point x="173" y="509"/>
      <point x="180" y="516"/>
      <point x="180" y="502" type="curve" smooth="yes"/>
      <point x="180" y="498"/>
      <point x="179" y="491"/>
      <point x="178" y="486" type="curve"/>
      <point x="173" y="454"/>
      <point x="161" y="406"/>
      <point x="161" y="386" type="curve" smooth="yes"/>
      <point x="161" y="369"/>
      <point x="172" y="345"/>
      <point x="197" y="345" type="curve" smooth="yes"/>
      <point x="221" y="345"/>
      <point x="230" y="368"/>
      <point x="230" y="387" type="curve" smooth="yes"/>
      <point x="230" y="412"/>
      <point x="209" y="465"/>
      <point x="201" y="497" type="curve"/>
      <point x="197" y="516"/>
      <point x="199" y="512"/>
      <point x="215" y="505" type="curve" smooth="yes"/>
      <point x="252" y="488"/>
      <point x="306" y="454"/>
      <point x="329" y="454" type="curve" smooth="yes"/>
      <point x="347" y="454"/>
      <point x="364" y="465"/>
      <point x="364" y="486" type="curve" smooth="yes"/>
      <point x="364" y="504"/>
      <point x="348" y="515"/>
      <point x="333" y="520" type="curve" smooth="yes"/>
      <point x="311" y="527"/>
      <point x="247" y="524"/>
      <point x="216" y="527" type="curve" smooth="yes"/>
      <point x="193" y="529"/>
      <point x="199" y="532"/>
      <point x="210" y="544" type="curve" smooth="yes"/>
      <point x="230" y="566"/>
      <point x="272" y="596"/>
      <point x="288" y="619" type="curve" smooth="yes"/>
      <point x="293" y="626"/>
      <point x="298" y="636"/>
      <point x="298" y="647" type="curve" smooth="yes"/>
      <point x="298" y="661"/>
      <point x="286" y="678"/>
      <point x="268" y="678" type="curve" smooth="yes"/>
      <point x="255" y="678"/>
      <point x="241" y="669"/>
      <point x="234" y="658" type="curve"/>
      <point x="221" y="640"/>
      <point x="203" y="578"/>
      <point x="192" y="551" type="curve" smooth="yes"/>
      <point x="186" y="537"/>
      <point x="188" y="538"/>
      <point x="179" y="552" type="curve" smooth="yes"/>
      <point x="163" y="577"/>
      <point x="135" y="628"/>
      <point x="118" y="646" type="curve"/>
      <point x="111" y="654"/>
      <point x="98" y="662"/>
      <point x="85" y="662" type="curve" smooth="yes"/>
      <point x="64" y="662"/>
      <point x="54" y="647"/>
      <point x="54" y="632" type="curve" smooth="yes"/>
      <point x="54" y="621"/>
      <point x="61" y="609"/>
      <point x="68" y="601" type="curve"/>
      <point x="84" y="584"/>
      <point x="131" y="559"/>
      <point x="156" y="541" type="curve" smooth="yes"/>
      <point x="174" y="528"/>
      <point x="177" y="528"/>
      <point x="153" y="518" type="curve" smooth="yes"/>
      <point x="125" y="507"/>
      <point x="72" y="490"/>
      <point x="52" y="481" type="curve" smooth="yes"/>
      <point x="40" y="476"/>
      <point x="27" y="463"/>
      <point x="27" y="447" type="curve" smooth="yes"/>
    </contour>
  </outline>
</glyph>
<glyph name="comma" format="1">
  <advance width="203"/>
  <unicode hex="002C"/>
  <outline>
    <contour>
      <point x="37" y="-146"/>
      <point x="42" y="-159"/>
      <point x="51" y="-159" type="curve" smooth="yes"/>
      <point x="63" y="-159"/>
      <point x="166" y="-61"/>
      <point x="166" y="25" type="curve" smooth="yes"/>
      <point x="166" y="53"/>
      <point x="110" y="91"/>
      <point x="92" y="91" type="curve" smooth="yes"/>
      <point x="85" y="91"/>
      <point x="41" y="67"/>
      <point x="41" y="48" type="curve" smooth="yes"/>
      <point x="41" y="28"/>
      <point x="107" y="11"/>
      <point x="107" y="-34" type="curve" smooth="yes"/>
      <point x="107" y="-84"/>
      <point x="37" y="-130"/>
      <point x="37" y="-139" type="curve" smooth="yes"/>
    </contour>
  </outline>
</glyph>
<glyph name="period" format="1">
  <advance width="221"/>
  <unicode hex="002E"/>
  <outline>
    <contour>
      <point x="57" y="21"/>
      <point x="89" y="-11"/>
      <point x="119" y="-11" type="curve" smooth="yes"/>
      <point x="132" y="-11"/>
      <point x="164" y="18"/>
      <point x="164" y="50" type="curve" smooth="yes"/>
      <point x="164" y="78"/>
      <point x="123" y="100"/>
      <point x="104" y="100" type="curve" smooth="yes"/>
      <point x="85" y="100"/>
      <point x="57" y="60"/>
      <point x="57" y="38" type="curve" smooth="yes"/>
    </contour>
  </outline>
</glyph>
<glyph name="zero" format="1">
  <advance width="500"/>
  <unicode hex="0030"/>
  <outline>
    <contour>
      <point x="55" y="83"/>
      <point x="139" y="-8"/>
      <point x="245" y="-8" type="curve" smooth="yes"/>
      <point x="357" y="-8"/>
      <point x="445" y="73"/>
      <point x="445" y="188" type="curve" smooth="yes"/>
      <point x="445" y="293"/>
      <point x="375" y="383"/>
      <point x="251" y="383" type="curve" smooth="yes"/>
      <point x="142" y="383"/>
      <point x="55" y="302"/>
      <point x="55" y="189" type="curve" smooth="yes"/>
    </contour>
    <contour>
      <point x="94" y="270"/>
      <point x="166" y="337"/>
      <point x="247" y="337" type="curve" smooth="yes"/>
      <point x="328" y="337"/>
      <point x="402" y="281"/>
      <point x="402" y="202" type="curve" smooth="yes"/>
      <point x="402" y="117"/>
      <point x="354" y="46"/>
      <point x="244" y="46" type="curve" smooth="yes"/>
      <point x="162" y="46"/>
      <point x="94" y="102"/>
      <point x="94" y="189" type="curve" smooth="yes"/>
    </contour>
  </outline>
</glyph>
<glyph name="one" format="1">
  <advance width="500"/>
  <unicode hex="0031"/>
  <outline>
    <contour>
      <point x="147" y="1"/>
      <point x="147" y="-5"/>
      <point x="159" y="-5" type="curve" smooth="yes"/>
      <point x="178" y="-5"/>
      <point x="226" y="-3"/>
      <point x="251" y="-3" type="curve" smooth="yes"/>
      <point x="276" y="-3"/>
      <point x="323" y="-5"/>
      <point x="342" y="-5" type="curve" smooth="yes"/>
      <point x="355" y="-5"/>
      <point x="356" y="3"/>
      <point x="356" y="12" type="curve" smooth="yes"/>
      <point x="356" y="21"/>
      <point x="354" y="28"/>
      <point x="342" y="28" type="curve" smooth="yes"/>
      <point x="302" y="28" type="line" smooth="yes"/>
      <point x="293" y="28"/>
      <point x="293" y="29"/>
      <point x="293" y="37" type="curve"/>
      <point x="292" y="64"/>
      <point x="292" y="90"/>
      <point x="292" y="117" type="curve" smooth="yes"/>
      <point x="292" y="196"/>
      <point x="292" y="293"/>
      <point x="295" y="351" type="curve"/>
      <point x="296" y="359"/>
      <point x="295" y="360"/>
      <point x="299" y="360" type="curve" smooth="yes"/>
      <point x="345" y="360" type="line" smooth="yes"/>
      <point x="359" y="360"/>
      <point x="359" y="366"/>
      <point x="359" y="376" type="curve" smooth="yes"/>
      <point x="359" y="387"/>
      <point x="359" y="393"/>
      <point x="348" y="393" type="curve" smooth="yes"/>
      <point x="329" y="393"/>
      <point x="280" y="391"/>
      <point x="255" y="391" type="curve" smooth="yes"/>
      <point x="230" y="391"/>
      <point x="180" y="393"/>
      <point x="161" y="393" type="curve" smooth="yes"/>
      <point x="150" y="393"/>
      <point x="150" y="385"/>
      <point x="150" y="376" type="curve" smooth="yes"/>
      <point x="150" y="367"/>
      <point x="151" y="360"/>
      <point x="161" y="360" type="curve" smooth="yes"/>
      <point x="206" y="360" type="line" smooth="yes"/>
      <point x="214" y="360"/>
      <point x="213" y="360"/>
      <point x="213" y="351" type="curve"/>
      <point x="215" y="307"/>
      <point x="215" y="260"/>
      <point x="215" y="214" type="curve" smooth="yes"/>
      <point x="215" y="125" type="line" smooth="yes"/>
      <point x="215" y="95"/>
      <point x="215" y="66"/>
      <point x="214" y="37" type="curve" smooth="yes"/>
      <point x="214" y="29"/>
      <point x="212" y="28"/>
      <point x="207" y="28" type="curve" smooth="yes"/>
      <point x="162" y="28" type="line" smooth="yes"/>
      <point x="148" y="28"/>
      <point x="147" y="22"/>
      <point x="147" y="12" type="curve" smooth="yes"/>
    </contour>
  </outline>
</glyph>
<glyph name="two" format="1">
  <advance width="500"/>
  <unicode hex="0032"/>
  <outline>
    <contour>
      <point x="57" y="314"/>
      <point x="72" y="299"/>
      <point x="76" y="299" type="curve" smooth="yes"/>
      <point x="81" y="299"/>
      <point x="139" y="361"/>
      <point x="206" y="361" type="curve" smooth="yes"/>
      <point x="253" y="361"/>
      <point x="287" y="329"/>
      <point x="287" y="270" type="curve" smooth="yes"/>
      <point x="287" y="150"/>
      <point x="127" y="80"/>
      <point x="74" y="30" type="curve"/>
      <point x="69" y="26"/>
      <point x="60" y="19"/>
      <point x="60" y="11" type="curve" smooth="yes"/>
      <point x="60" y="3"/>
      <point x="67" y="-3"/>
      <point x="79" y="-3" type="curve" smooth="yes"/>
      <point x="405" y="-3" type="line" smooth="yes"/>
      <point x="412" y="-3"/>
      <point x="417" y="-1"/>
      <point x="419" y="5" type="curve"/>
      <point x="428" y="40"/>
      <point x="447" y="116"/>
      <point x="447" y="121" type="curve" smooth="yes"/>
      <point x="447" y="125"/>
      <point x="429" y="129"/>
      <point x="425" y="129" type="curve" smooth="yes"/>
      <point x="422" y="129"/>
      <point x="391" y="61"/>
      <point x="387" y="61" type="curve" smooth="yes"/>
      <point x="178" y="61" type="line" smooth="yes"/>
      <point x="166" y="61"/>
      <point x="161" y="61"/>
      <point x="161" y="63" type="curve" smooth="yes"/>
      <point x="161" y="64"/>
      <point x="167" y="67"/>
      <point x="178" y="74" type="curve" smooth="yes"/>
      <point x="240" y="112"/>
      <point x="361" y="193"/>
      <point x="361" y="280" type="curve" smooth="yes"/>
      <point x="361" y="353"/>
      <point x="306" y="409"/>
      <point x="230" y="409" type="curve" smooth="yes"/>
      <point x="154" y="409"/>
      <point x="57" y="338"/>
      <point x="57" y="323" type="curve" smooth="yes"/>
    </contour>
  </outline>
</glyph>
<glyph name="three" format="1">
  <advance width="500"/>
  <unicode hex="0033"/>
  <outline>
    <contour>
      <point x="77" y="-196"/>
      <point x="175" y="-216"/>
      <point x="223" y="-216" type="curve" smooth="yes"/>
      <point x="323" y="-216"/>
      <point x="425" y="-139"/>
      <point x="425" y="-27" type="curve" smooth="yes"/>
      <point x="425" y="87"/>
      <point x="361" y="130"/>
      <point x="275" y="137" type="curve" smooth="yes"/>
      <point x="257" y="138"/>
      <point x="247" y="138"/>
      <point x="247" y="141" type="curve" smooth="yes"/>
      <point x="247" y="144"/>
      <point x="265" y="152"/>
      <point x="282" y="159" type="curve" smooth="yes"/>
      <point x="328" y="179"/>
      <point x="375" y="214"/>
      <point x="375" y="284" type="curve" smooth="yes"/>
      <point x="375" y="360"/>
      <point x="321" y="410"/>
      <point x="238" y="410" type="curve" smooth="yes"/>
      <point x="162" y="410"/>
      <point x="92" y="347"/>
      <point x="92" y="335" type="curve" smooth="yes"/>
      <point x="92" y="330"/>
      <point x="108" y="315"/>
      <point x="113" y="315" type="curve" smooth="yes"/>
      <point x="119" y="315"/>
      <point x="151" y="366"/>
      <point x="226" y="366" type="curve" smooth="yes"/>
      <point x="275" y="366"/>
      <point x="308" y="322"/>
      <point x="308" y="272" type="curve" smooth="yes"/>
      <point x="308" y="200"/>
      <point x="258" y="164"/>
      <point x="159" y="136" type="curve"/>
      <point x="150" y="133"/>
      <point x="136" y="130"/>
      <point x="136" y="116" type="curve" smooth="yes"/>
      <point x="136" y="112"/>
      <point x="137" y="109"/>
      <point x="138" y="106" type="curve"/>
      <point x="141" y="98"/>
      <point x="141" y="86"/>
      <point x="155" y="86" type="curve" smooth="yes"/>
      <point x="160" y="86"/>
      <point x="187" y="89"/>
      <point x="208" y="89" type="curve" smooth="yes"/>
      <point x="310" y="89"/>
      <point x="356" y="53"/>
      <point x="356" y="-39" type="curve" smooth="yes"/>
      <point x="356" y="-116"/>
      <point x="294" y="-185"/>
      <point x="233" y="-185" type="curve" smooth="yes"/>
      <point x="193" y="-185"/>
      <point x="182" y="-168"/>
      <point x="161" y="-156" type="curve" smooth="yes"/>
      <point x="146" y="-147"/>
      <point x="136" y="-141"/>
      <point x="118" y="-141" type="curve" smooth="yes"/>
      <point x="98" y="-141"/>
      <point x="77" y="-151"/>
      <point x="77" y="-164" type="curve" smooth="yes"/>
    </contour>
  </outline>
</glyph>
<glyph name="four" format="1">
  <advance width="500"/>
  <unicode hex="0034"/>
  <outline>
    <contour>
      <point x="37" y="-3"/>
      <point x="51" y="-3"/>
      <point x="58" y="-3" type="curve" smooth="yes"/>
      <point x="289" y="-3" type="line" smooth="yes"/>
      <point x="301" y="-3"/>
      <point x="302" y="-5"/>
      <point x="302" y="-15" type="curve" smooth="yes"/>
      <point x="302" y="-201" type="line" smooth="yes"/>
      <point x="302" y="-211"/>
      <point x="308" y="-217"/>
      <point x="316" y="-217" type="curve"/>
      <point x="361" y="-213" type="line" smooth="yes"/>
      <point x="374" y="-212"/>
      <point x="380" y="-208"/>
      <point x="380" y="-199" type="curve" smooth="yes"/>
      <point x="380" y="-194"/>
      <point x="374" y="-75"/>
      <point x="371" y="-14" type="curve"/>
      <point x="370" y="-3"/>
      <point x="374" y="-3"/>
      <point x="382" y="-3" type="curve" smooth="yes"/>
      <point x="437" y="-3" type="line" smooth="yes"/>
      <point x="449" y="-3"/>
      <point x="449" y="-3"/>
      <point x="449" y="7" type="curve" smooth="yes"/>
      <point x="449" y="47" type="line" smooth="yes"/>
      <point x="449" y="57"/>
      <point x="446" y="57"/>
      <point x="439" y="57" type="curve" smooth="yes"/>
      <point x="381" y="57" type="line" smooth="yes"/>
      <point x="369" y="57"/>
      <point x="369" y="57"/>
      <point x="369" y="72" type="curve" smooth="yes"/>
      <point x="369" y="368" type="line" smooth="yes"/>
      <point x="369" y="387"/>
      <point x="364" y="397"/>
      <point x="353" y="397" type="curve" smooth="yes"/>
      <point x="337" y="397"/>
      <point x="263" y="309"/>
      <point x="255" y="300" type="curve" smooth="yes"/>
      <point x="122" y="140" type="line" smooth="yes"/>
      <point x="98" y="112"/>
      <point x="37" y="36"/>
      <point x="37" y="8" type="curve" smooth="yes"/>
    </contour>
    <contour>
      <point x="286" y="293" type="line" smooth="yes"/>
      <point x="299" y="308"/>
      <point x="302" y="314"/>
      <point x="302" y="290" type="curve" smooth="yes"/>
      <point x="302" y="74" type="line" smooth="yes"/>
      <point x="302" y="58"/>
      <point x="302" y="57"/>
      <point x="286" y="57" type="curve" smooth="yes"/>
      <point x="118" y="57" type="line" smooth="yes"/>
      <point x="89" y="57"/>
      <point x="98" y="66"/>
      <point x="112" y="83" type="curve" smooth="yes"/>
    </contour>
  </outline>
</glyph>
<glyph name="five" format="1">
  <advance width="500"/>
  <unicode hex="0035"/>
  <outline>
    <contour>
      <point x="97" y="147"/>
      <point x="104" y="143"/>
      <point x="115" y="143" type="curve" smooth="yes"/>
      <point x="218" y="143"/>
      <point x="306" y="104"/>
      <point x="306" y="3" type="curve" smooth="yes"/>
      <point x="306" y="-118"/>
      <point x="178" y="-173"/>
      <point x="112" y="-186" type="curve"/>
      <point x="104" y="-187"/>
      <point x="102" y="-190"/>
      <point x="102" y="-203" type="curve" smooth="yes"/>
      <point x="102" y="-219"/>
      <point x="104" y="-224"/>
      <point x="113" y="-224" type="curve" smooth="yes"/>
      <point x="150" y="-224"/>
      <point x="383" y="-157"/>
      <point x="383" y="19" type="curve" smooth="yes"/>
      <point x="383" y="153"/>
      <point x="280" y="196"/>
      <point x="153" y="208" type="curve"/>
      <point x="147" y="209"/>
      <point x="145" y="208"/>
      <point x="145" y="212" type="curve" smooth="yes"/>
      <point x="145" y="218"/>
      <point x="158" y="283"/>
      <point x="165" y="318" type="curve" smooth="yes"/>
      <point x="166" y="324"/>
      <point x="168" y="326"/>
      <point x="178" y="326" type="curve"/>
      <point x="258" y="322"/>
      <point x="301" y="316"/>
      <point x="379" y="316" type="curve" smooth="yes"/>
      <point x="393" y="316"/>
      <point x="418" y="317"/>
      <point x="419" y="336" type="curve" smooth="yes"/>
      <point x="420" y="363"/>
      <point x="421" y="376"/>
      <point x="423" y="405" type="curve"/>
      <point x="423" y="414"/>
      <point x="412" y="414"/>
      <point x="407" y="414" type="curve" smooth="yes"/>
      <point x="403" y="414" type="line" smooth="yes"/>
      <point x="398" y="414"/>
      <point x="392" y="390"/>
      <point x="390" y="388" type="curve" smooth="yes"/>
      <point x="388" y="386"/>
      <point x="380" y="385"/>
      <point x="369" y="385" type="curve" smooth="yes"/>
      <point x="306" y="385"/>
      <point x="165" y="394"/>
      <point x="157" y="394" type="curve" smooth="yes"/>
      <point x="152" y="394"/>
      <point x="146" y="395"/>
      <point x="144" y="386" type="curve" smooth="yes"/>
      <point x="129" y="306"/>
      <point x="97" y="173"/>
      <point x="97" y="158" type="curve" smooth="yes"/>
    </contour>
  </outline>
</glyph>
<glyph name="six" format="1">
  <advance width="500"/>
  <unicode hex="0036"/>
  <outline>
    <contour>
      <point x="45" y="75"/>
      <point x="128" y="-8"/>
      <point x="244" y="-8" type="curve" smooth="yes"/>
      <point x="353" y="-8"/>
      <point x="444" y="65"/>
      <point x="444" y="189" type="curve" smooth="yes"/>
      <point x="444" y="292"/>
      <point x="358" y="361"/>
      <point x="253" y="361" type="curve" smooth="yes"/>
      <point x="222" y="361"/>
      <point x="193" y="359"/>
      <point x="161" y="353" type="curve" smooth="yes"/>
      <point x="151" y="351"/>
      <point x="146" y="350"/>
      <point x="143" y="350" type="curve" smooth="yes"/>
      <point x="141" y="350"/>
      <point x="140" y="350"/>
      <point x="140" y="352" type="curve" smooth="yes"/>
      <point x="140" y="355"/>
      <point x="142" y="362"/>
      <point x="147" y="374" type="curve" smooth="yes"/>
      <point x="169" y="431"/>
      <point x="237" y="566"/>
      <point x="373" y="624" type="curve" smooth="yes"/>
      <point x="378" y="626"/>
      <point x="385" y="629"/>
      <point x="385" y="635" type="curve" smooth="yes"/>
      <point x="385" y="641"/>
      <point x="377" y="658"/>
      <point x="368" y="658" type="curve" smooth="yes"/>
      <point x="340" y="658"/>
      <point x="45" y="508"/>
      <point x="45" y="231" type="curve" smooth="yes"/>
    </contour>
    <contour>
      <point x="118" y="239"/>
      <point x="122" y="273"/>
      <point x="127" y="297" type="curve" smooth="yes"/>
      <point x="132" y="321"/>
      <point x="130" y="323"/>
      <point x="152" y="327" type="curve" smooth="yes"/>
      <point x="170" y="330"/>
      <point x="203" y="333"/>
      <point x="217" y="333" type="curve" smooth="yes"/>
      <point x="321" y="333"/>
      <point x="370" y="262"/>
      <point x="370" y="168" type="curve" smooth="yes"/>
      <point x="370" y="100"/>
      <point x="324" y="29"/>
      <point x="258" y="29" type="curve" smooth="yes"/>
      <point x="160" y="29"/>
      <point x="118" y="121"/>
      <point x="118" y="201" type="curve" smooth="yes"/>
    </contour>
  </outline>
</glyph>
<glyph name="seven" format="1">
  <advance width="500"/>
  <unicode hex="0037"/>
  <outline>
    <contour>
      <point x="81" y="268"/>
      <point x="88" y="266"/>
      <point x="99" y="266" type="curve" smooth="yes"/>
      <point x="104" y="266"/>
      <point x="111" y="266"/>
      <point x="112" y="274" type="curve" smooth="yes"/>
      <point x="118" y="322" type="line" smooth="yes"/>
      <point x="119" y="330"/>
      <point x="175" y="332"/>
      <point x="203" y="332" type="curve" smooth="yes"/>
      <point x="402" y="332" type="line" smooth="yes"/>
      <point x="420" y="332"/>
      <point x="417" y="331"/>
      <point x="408" y="315" type="curve" smooth="yes"/>
      <point x="343" y="202"/>
      <point x="119" y="-182"/>
      <point x="119" y="-189" type="curve" smooth="yes"/>
      <point x="119" y="-205"/>
      <point x="147" y="-220"/>
      <point x="158" y="-220" type="curve" smooth="yes"/>
      <point x="169" y="-220"/>
      <point x="349" y="146"/>
      <point x="471" y="373" type="curve" smooth="yes"/>
      <point x="473" y="377"/>
      <point x="475" y="380"/>
      <point x="475" y="384" type="curve" smooth="yes"/>
      <point x="475" y="394"/>
      <point x="464" y="396"/>
      <point x="455" y="396" type="curve" smooth="yes"/>
      <point x="289" y="396" type="line" smooth="yes"/>
      <point x="239" y="396"/>
      <point x="128" y="396"/>
      <point x="128" y="400" type="curve" smooth="yes"/>
      <point x="128" y="405" type="line" smooth="yes"/>
      <point x="128" y="417"/>
      <point x="127" y="421"/>
      <point x="112" y="421" type="curve" smooth="yes"/>
      <point x="96" y="421"/>
      <point x="95" y="419"/>
      <point x="93" y="400" type="curve" smooth="yes"/>
      <point x="87" y="336"/>
      <point x="81" y="280"/>
      <point x="81" y="277" type="curve" smooth="yes"/>
    </contour>
  </outline>
</glyph>
<glyph name="eight" format="1">
  <advance width="500"/>
  <unicode hex="0038"/>
  <outline>
    <contour>
      <point x="68" y="57"/>
      <point x="152" y="-9"/>
      <point x="248" y="-9" type="curve" smooth="yes"/>
      <point x="359" y="-9"/>
      <point x="433" y="57"/>
      <point x="433" y="154" type="curve" smooth="yes"/>
      <point x="433" y="275"/>
      <point x="340" y="315"/>
      <point x="307" y="335" type="curve"/>
      <point x="303" y="338"/>
      <point x="302" y="338"/>
      <point x="302" y="339" type="curve" smooth="yes"/>
      <point x="302" y="340"/>
      <point x="303" y="341"/>
      <point x="307" y="344" type="curve" smooth="yes"/>
      <point x="341" y="369"/>
      <point x="411" y="410"/>
      <point x="411" y="508" type="curve" smooth="yes"/>
      <point x="411" y="600"/>
      <point x="338" y="661"/>
      <point x="250" y="661" type="curve" smooth="yes"/>
      <point x="154" y="661"/>
      <point x="77" y="588"/>
      <point x="77" y="495" type="curve" smooth="yes"/>
      <point x="77" y="413"/>
      <point x="144" y="359"/>
      <point x="179" y="335" type="curve"/>
      <point x="187" y="329"/>
      <point x="193" y="326"/>
      <point x="193" y="325" type="curve" smooth="yes"/>
      <point x="193" y="324"/>
      <point x="190" y="324"/>
      <point x="183" y="320" type="curve"/>
      <point x="147" y="302"/>
      <point x="68" y="262"/>
      <point x="68" y="154" type="curve" smooth="yes"/>
    </contour>
    <contour>
      <point x="127" y="238"/>
      <point x="166" y="277"/>
      <point x="188" y="293" type="curve" smooth="yes"/>
      <point x="200" y="302"/>
      <point x="216" y="312"/>
      <point x="219" y="313" type="curve"/>
      <point x="221" y="313"/>
      <point x="237" y="306"/>
      <point x="245" y="301" type="curve"/>
      <point x="304" y="269"/>
      <point x="362" y="236"/>
      <point x="362" y="153" type="curve" smooth="yes"/>
      <point x="362" y="87"/>
      <point x="320" y="25"/>
      <point x="252" y="25" type="curve" smooth="yes"/>
      <point x="177" y="25"/>
      <point x="127" y="81"/>
      <point x="127" y="164" type="curve" smooth="yes"/>
    </contour>
    <contour>
      <point x="141" y="575"/>
      <point x="181" y="633"/>
      <point x="248" y="633" type="curve" smooth="yes"/>
      <point x="312" y="633"/>
      <point x="360" y="587"/>
      <point x="360" y="500" type="curve" smooth="yes"/>
      <point x="360" y="449"/>
      <point x="319" y="386"/>
      <point x="289" y="359" type="curve" smooth="yes"/>
      <point x="281" y="352"/>
      <point x="278" y="350"/>
      <point x="277" y="350" type="curve" smooth="yes"/>
      <point x="276" y="350"/>
      <point x="271" y="353"/>
      <point x="262" y="357" type="curve" smooth="yes"/>
      <point x="249" y="363"/>
      <point x="230" y="375"/>
      <point x="209" y="391" type="curve" smooth="yes"/>
      <point x="168" y="423"/>
      <point x="141" y="459"/>
      <point x="141" y="507" type="curve" smooth="yes"/>
    </contour>
  </outline>
</glyph>
<glyph name="colon" format="1">
  <advance width="221"/>
  <unicode hex="003A"/>
  <outline>
    <contour>
      <point x="57" y="21"/>
      <point x="89" y="-11"/>
      <point x="119" y="-11" type="curve" smooth="yes"/>
      <point x="132" y="-11"/>
      <point x="164" y="18"/>
      <point x="164" y="50" type="curve" smooth="yes"/>
      <point x="164" y="78"/>
      <point x="123" y="100"/>
      <point x="104" y="100" type="curve" smooth="yes"/>
      <point x="85" y="100"/>
      <point x="57" y="60"/>
      <point x="57" y="38" type="curve" smooth="yes"/>
    </contour>
    <contour>
      <point x="57" y="296"/>
      <point x="89" y="264"/>
      <point x="119" y="264" type="curve" smooth="yes"/>
      <point x="132" y="264"/>
      <point x="164" y="293"/>
      <point x="164" y="325" type="curve" smooth="yes"/>
      <point x="164" y="353"/>
      <point x="123" y="375"/>
      <point x="104" y="375" type="curve" smooth="yes"/>
      <point x="85" y="375"/>
      <point x="57" y="335"/>
      <point x="57" y="313" type="curve" smooth="yes"/>
    </contour>
  </outline>
</glyph>
<glyph name="semicolon" format="1">
  <advance width="223"/>
  <unicode hex="003B"/>
  <outline>
    <contour>
      <point x="47" y="-146"/>
      <point x="52" y="-159"/>
      <point x="61" y="-159" type="curve" smooth="yes"/>
      <point x="73" y="-159"/>
      <point x="176" y="-61"/>
      <point x="176" y="25" type="curve" smooth="yes"/>
      <point x="176" y="53"/>
      <point x="120" y="91"/>
      <point x="102" y="91" type="curve" smooth="yes"/>
      <point x="95" y="91"/>
      <point x="51" y="67"/>
      <point x="51" y="48" type="curve" smooth="yes"/>
      <point x="51" y="28"/>
      <point x="117" y="11"/>
      <point x="117" y="-34" type="curve" smooth="yes"/>
      <point x="117" y="-84"/>
      <point x="47" y="-130"/>
      <point x="47" y="-139" type="curve" smooth="yes"/>
    </contour>
    <contour>
      <point x="58" y="296"/>
      <point x="90" y="264"/>
      <point x="120" y="264" type="curve" smooth="yes"/>
      <point x="133" y="264"/>
      <point x="165" y="293"/>
      <point x="165" y="325" type="curve" smooth="yes"/>
      <point x="165" y="353"/>
      <point x="124" y="375"/>
      <point x="105" y="375" type="curve" smooth="yes"/>
      <point x="86" y="375"/>
      <point x="58" y="335"/>
      <point x="58" y="313" type="curve" smooth="yes"/>
    </contour>
  </outline>
</glyph>
<glyph name="equal" format="1">
  <advance width="527"/>
  <unicode hex="003D"/>
  <outline>
    <contour>
      <point x="28" y="117"/>
      <point x="28" y="107"/>
      <point x="48" y="107" type="curve" smooth="yes"/>
      <point x="475" y="107" type="line" smooth="yes"/>
      <point x="498" y="107"/>
      <point x="499" y="117"/>
      <point x="499" y="134" type="curve" smooth="yes"/>
      <point x="499" y="148"/>
      <point x="498" y="158"/>
      <point x="480" y="158" type="curve" smooth="yes"/>
      <point x="49" y="158" type="line" smooth="yes"/>
      <point x="29" y="158"/>
      <point x="28" y="147"/>
      <point x="28" y="134" type="curve" smooth="yes"/>
    </contour>
    <contour>
      <point x="28" y="273"/>
      <point x="28" y="263"/>
      <point x="48" y="263" type="curve" smooth="yes"/>
      <point x="475" y="263" type="line" smooth="yes"/>
      <point x="498" y="263"/>
      <point x="499" y="272"/>
      <point x="499" y="289" type="curve" smooth="yes"/>
      <point x="499" y="303"/>
      <point x="498" y="313"/>
      <point x="480" y="313" type="curve" smooth="yes"/>
      <point x="49" y="313" type="line" smooth="yes"/>
      <point x="29" y="313"/>
      <point x="28" y="303"/>
      <point x="28" y="290" type="curve" smooth="yes"/>
    </contour>
  </outline>
</glyph>
<glyph name="question" format="1">
  <advance width="364"/>
  <unicode hex="003F"/>
  <outline>
    <contour>
      <point x="57" y="605" type="line" smooth="yes"/>
      <point x="57" y="588"/>
      <point x="70" y="589"/>
      <point x="83" y="587" type="curve" smooth="yes"/>
      <point x="238" y="567"/>
      <point x="308" y="494"/>
      <point x="308" y="404" type="curve" smooth="yes"/>
      <point x="308" y="371"/>
      <point x="303" y="319"/>
      <point x="224" y="319" type="curve" smooth="yes"/>
      <point x="164" y="319" type="line" smooth="yes"/>
      <point x="146" y="319"/>
      <point x="137" y="317"/>
      <point x="136" y="298" type="curve" smooth="yes"/>
      <point x="135" y="284"/>
      <point x="134" y="155"/>
      <point x="134" y="142" type="curve" smooth="yes"/>
      <point x="134" y="127"/>
      <point x="135" y="126"/>
      <point x="153" y="126" type="curve" smooth="yes"/>
      <point x="166" y="126"/>
      <point x="168" y="127"/>
      <point x="168" y="135" type="curve"/>
      <point x="170" y="167"/>
      <point x="173" y="196"/>
      <point x="176" y="228" type="curve" smooth="yes"/>
      <point x="177" y="242"/>
      <point x="181" y="242"/>
      <point x="198" y="242" type="curve" smooth="yes"/>
      <point x="312" y="242"/>
      <point x="337" y="328"/>
      <point x="337" y="419" type="curve" smooth="yes"/>
      <point x="337" y="606"/>
      <point x="161" y="633"/>
      <point x="88" y="645" type="curve" smooth="yes"/>
      <point x="83" y="646"/>
      <point x="82" y="670"/>
      <point x="69" y="670" type="curve" smooth="yes"/>
      <point x="59" y="670"/>
      <point x="57" y="656"/>
      <point x="57" y="650" type="curve" smooth="yes"/>
    </contour>
    <contour>
      <point x="93" y="21"/>
      <point x="126" y="-11"/>
      <point x="155" y="-11" type="curve" smooth="yes"/>
      <point x="168" y="-11"/>
      <point x="200" y="18"/>
      <point x="200" y="50" type="curve" smooth="yes"/>
      <point x="200" y="78"/>
      <point x="159" y="100"/>
      <point x="140" y="100" type="curve" smooth="yes"/>
      <point x="121" y="100"/>
      <point x="93" y="60"/>
      <point x="93" y="38" type="curve" smooth="yes"/>
    </contour>
  </outline>
</glyph>
<glyph name="B" format="1">
  <advance width="592"/>
  <unicode hex="0042"/>
  <outline>
    <contour>
      <point x="37" y="632"/>
      <point x="43" y="629"/>
      <point x="55" y="629" type="curve" smooth="yes"/>
      <point x="116" y="631" type="line" smooth="yes"/>
      <point x="120" y="631"/>
      <point x="124" y="506"/>
      <point x="124" y="392" type="curve" smooth="yes"/>
      <point x="124" y="69" type="line" smooth="yes"/>
      <point x="124" y="48"/>
      <point x="123" y="30"/>
      <point x="121" y="30" type="curve" smooth="yes"/>
      <point x="69" y="30" type="line" smooth="yes"/>
      <point x="53" y="30"/>
      <point x="48" y="29"/>
      <point x="48" y="15" type="curve" smooth="yes"/>
      <point x="48" y="-2"/>
      <point x="50" y="-6"/>
      <point x="64" y="-6" type="curve" smooth="yes"/>
      <point x="73" y="-6"/>
      <point x="141" y="-3"/>
      <point x="171" y="-3" type="curve" smooth="yes"/>
      <point x="184" y="-3"/>
      <point x="221" y="-5"/>
      <point x="267" y="-5" type="curve" smooth="yes"/>
      <point x="378" y="-5"/>
      <point x="550" y="12"/>
      <point x="550" y="169" type="curve" smooth="yes"/>
      <point x="550" y="309"/>
      <point x="420" y="333"/>
      <point x="371" y="340" type="curve" smooth="yes"/>
      <point x="365" y="341"/>
      <point x="364" y="341"/>
      <point x="364" y="342" type="curve" smooth="yes"/>
      <point x="364" y="343"/>
      <point x="367" y="344"/>
      <point x="372" y="346" type="curve" smooth="yes"/>
      <point x="418" y="363"/>
      <point x="521" y="407"/>
      <point x="521" y="504" type="curve" smooth="yes"/>
      <point x="521" y="628"/>
      <point x="416" y="668"/>
      <point x="296" y="668" type="curve" smooth="yes"/>
      <point x="255" y="668"/>
      <point x="212" y="665"/>
      <point x="173" y="665" type="curve" smooth="yes"/>
      <point x="143" y="665"/>
      <point x="71" y="667"/>
      <point x="55" y="667" type="curve" smooth="yes"/>
      <point x="42" y="667"/>
      <point x="37" y="666"/>
      <point x="37" y="649" type="curve" smooth="yes"/>
    </contour>
    <contour>
      <point x="212" y="320"/>
      <point x="212" y="323"/>
      <point x="220" y="323" type="curve" smooth="yes"/>
      <point x="254" y="323" type="line" smooth="yes"/>
      <point x="298" y="323"/>
      <point x="344" y="322"/>
      <point x="371" y="313" type="curve" smooth="yes"/>
      <point x="433" y="292"/>
      <point x="456" y="246"/>
      <point x="456" y="176" type="curve" smooth="yes"/>
      <point x="456" y="102"/>
      <point x="423" y="30"/>
      <point x="279" y="30" type="curve" smooth="yes"/>
      <point x="219" y="30" type="line" smooth="yes"/>
      <point x="213" y="30"/>
      <point x="212" y="256"/>
      <point x="212" y="315" type="curve" smooth="yes"/>
    </contour>
    <contour>
      <point x="212" y="406" type="line" smooth="yes"/>
      <point x="212" y="481"/>
      <point x="213" y="635"/>
      <point x="216" y="637" type="curve"/>
      <point x="220" y="639"/>
      <point x="242" y="641"/>
      <point x="257" y="641" type="curve" smooth="yes"/>
      <point x="358" y="641"/>
      <point x="431" y="585"/>
      <point x="431" y="488" type="curve" smooth="yes"/>
      <point x="431" y="406"/>
      <point x="379" y="367"/>
      <point x="334" y="353" type="curve" smooth="yes"/>
      <point x="328" y="351"/>
      <point x="321" y="350"/>
      <point x="315" y="350" type="curve" smooth="yes"/>
      <point x="309" y="350"/>
      <point x="299" y="351"/>
      <point x="282" y="351" type="curve" smooth="yes"/>
      <point x="225" y="351" type="line" smooth="yes"/>
      <point x="212" y="351"/>
      <point x="212" y="352"/>
      <point x="212" y="358" type="curve" smooth="yes"/>
    </contour>
  </outline>
</glyph>
<glyph name="J" format="1">
  <advance width="333"/>
  <unicode hex="004A"/>
  <outline>
    <contour>
      <point x="-33" y="-206"/>
      <point x="0" y="-215"/>
      <point x="23" y="-215" type="curve" smooth="yes"/>
      <point x="71" y="-215"/>
      <point x="105" y="-181"/>
      <point x="134" y="-150" type="curve" smooth="yes"/>
      <point x="213" y="-66"/>
      <point x="221" y="44"/>
      <point x="221" y="130" type="curve" smooth="yes"/>
      <point x="221" y="370" type="line" smooth="yes"/>
      <point x="221" y="492"/>
      <point x="222" y="636"/>
      <point x="226" y="636" type="curve" smooth="yes"/>
      <point x="277" y="636" type="line" smooth="yes"/>
      <point x="293" y="636"/>
      <point x="296" y="637"/>
      <point x="296" y="651" type="curve" smooth="yes"/>
      <point x="296" y="668"/>
      <point x="295" y="672"/>
      <point x="281" y="672" type="curve" smooth="yes"/>
      <point x="264" y="672"/>
      <point x="218" y="669"/>
      <point x="177" y="669" type="curve" smooth="yes"/>
      <point x="128" y="669"/>
      <point x="67" y="672"/>
      <point x="51" y="672" type="curve" smooth="yes"/>
      <point x="38" y="672"/>
      <point x="31" y="671"/>
      <point x="31" y="654" type="curve" smooth="yes"/>
      <point x="31" y="637"/>
      <point x="39" y="636"/>
      <point x="51" y="636" type="curve" smooth="yes"/>
      <point x="117" y="636" type="line" smooth="yes"/>
      <point x="123" y="636"/>
      <point x="126" y="558"/>
      <point x="126" y="492" type="curve" smooth="yes"/>
      <point x="126" y="-5" type="line" smooth="yes"/>
      <point x="126" y="-93"/>
      <point x="123" y="-142"/>
      <point x="89" y="-142" type="curve" smooth="yes"/>
      <point x="70" y="-142"/>
      <point x="55" y="-121"/>
      <point x="37" y="-121" type="curve" smooth="yes"/>
      <point x="29" y="-121"/>
      <point x="-33" y="-150"/>
      <point x="-33" y="-188" type="curve" smooth="yes"/>
    </contour>
  </outline>
</glyph>
<glyph name="K" format="1">
  <advance width="650"/>
  <unicode hex="004B"/>
  <outline>
    <contour>
      <point x="37" y="-2"/>
      <point x="38" y="-6"/>
      <point x="52" y="-6" type="curve" smooth="yes"/>
      <point x="75" y="-6"/>
      <point x="139" y="-3"/>
      <point x="169" y="-3" type="curve" smooth="yes"/>
      <point x="199" y="-3"/>
      <point x="267" y="-6"/>
      <point x="290" y="-6" type="curve" smooth="yes"/>
      <point x="302" y="-6"/>
      <point x="303" y="-1"/>
      <point x="303" y="14" type="curve" smooth="yes"/>
      <point x="303" y="26"/>
      <point x="301" y="30"/>
      <point x="289" y="30" type="curve" smooth="yes"/>
      <point x="217" y="30" type="line" smooth="yes"/>
      <point x="210" y="30"/>
      <point x="208" y="177"/>
      <point x="208" y="296" type="curve" smooth="yes"/>
      <point x="208" y="307"/>
      <point x="208" y="307"/>
      <point x="220" y="307" type="curve" smooth="yes"/>
      <point x="239" y="307" type="line" smooth="yes"/>
      <point x="254" y="307"/>
      <point x="254" y="306"/>
      <point x="259" y="300" type="curve" smooth="yes"/>
      <point x="476" y="43" type="line" smooth="yes"/>
      <point x="483" y="35"/>
      <point x="488" y="30"/>
      <point x="473" y="30" type="curve" smooth="yes"/>
      <point x="440" y="30" type="line" smooth="yes"/>
      <point x="427" y="30"/>
      <point x="422" y="29"/>
      <point x="422" y="15" type="curve" smooth="yes"/>
      <point x="422" y="-2"/>
      <point x="422" y="-6"/>
      <point x="436" y="-6" type="curve" smooth="yes"/>
      <point x="459" y="-6"/>
      <point x="509" y="-3"/>
      <point x="539" y="-3" type="curve" smooth="yes"/>
      <point x="569" y="-3"/>
      <point x="618" y="-6"/>
      <point x="641" y="-6" type="curve" smooth="yes"/>
      <point x="653" y="-6"/>
      <point x="653" y="-1"/>
      <point x="653" y="14" type="curve" smooth="yes"/>
      <point x="653" y="26"/>
      <point x="653" y="30"/>
      <point x="641" y="30" type="curve" smooth="yes"/>
      <point x="625" y="30" type="line" smooth="yes"/>
      <point x="612" y="30"/>
      <point x="605" y="36"/>
      <point x="596" y="46" type="curve" smooth="yes"/>
      <point x="327" y="356" type="line" smooth="yes"/>
      <point x="317" y="368"/>
      <point x="315" y="364"/>
      <point x="324" y="374" type="curve" smooth="yes"/>
      <point x="356" y="412"/>
      <point x="537" y="631"/>
      <point x="542" y="631" type="curve" smooth="yes"/>
      <point x="590" y="631" type="line" smooth="yes"/>
      <point x="606" y="631"/>
      <point x="608" y="632"/>
      <point x="608" y="646" type="curve" smooth="yes"/>
      <point x="608" y="663"/>
      <point x="608" y="667"/>
      <point x="594" y="667" type="curve" smooth="yes"/>
      <point x="580" y="667"/>
      <point x="548" y="664"/>
      <point x="511" y="664" type="curve" smooth="yes"/>
      <point x="473" y="664"/>
      <point x="439" y="667"/>
      <point x="423" y="667" type="curve" smooth="yes"/>
      <point x="410" y="667"/>
      <point x="403" y="666"/>
      <point x="403" y="649" type="curve" smooth="yes"/>
      <point x="403" y="632"/>
      <point x="411" y="631"/>
      <point x="423" y="631" type="curve" smooth="yes"/>
      <point x="463" y="631" type="line" smooth="yes"/>
      <point x="475" y="631"/>
      <point x="475" y="626"/>
      <point x="467" y="615" type="curve"/>
      <point x="429" y="567"/>
      <point x="261" y="334"/>
      <point x="240" y="334" type="curve" smooth="yes"/>
      <point x="218" y="334" type="line" smooth="yes"/>
      <point x="208" y="334"/>
      <point x="208" y="337"/>
      <point x="208" y="351" type="curve" smooth="yes"/>
      <point x="208" y="476" type="line" smooth="yes"/>
      <point x="208" y="528"/>
      <point x="213" y="631"/>
      <point x="220" y="631" type="curve" smooth="yes"/>
      <point x="275" y="631" type="line" smooth="yes"/>
      <point x="291" y="631"/>
      <point x="294" y="632"/>
      <point x="294" y="646" type="curve" smooth="yes"/>
      <point x="294" y="663"/>
      <point x="293" y="667"/>
      <point x="279" y="667" type="curve" smooth="yes"/>
      <point x="256" y="667"/>
      <point x="201" y="664"/>
      <point x="171" y="664" type="curve" smooth="yes"/>
      <point x="129" y="664"/>
      <point x="82" y="667"/>
      <point x="66" y="667" type="curve" smooth="yes"/>
      <point x="53" y="667"/>
      <point x="46" y="666"/>
      <point x="46" y="649" type="curve" smooth="yes"/>
      <point x="46" y="632"/>
      <point x="54" y="631"/>
      <point x="66" y="631" type="curve" smooth="yes"/>
      <point x="112" y="631" type="line" smooth="yes"/>
      <point x="116" y="631"/>
      <point x="118" y="553"/>
      <point x="118" y="487" type="curve" smooth="yes"/>
      <point x="118" y="197" type="line" smooth="yes"/>
      <point x="118" y="114"/>
      <point x="117" y="30"/>
      <point x="111" y="30" type="curve" smooth="yes"/>
      <point x="58" y="30" type="line" smooth="yes"/>
      <point x="42" y="30"/>
      <point x="37" y="29"/>
      <point x="37" y="15" type="curve" smooth="yes"/>
    </contour>
  </outline>
</glyph>
<glyph name="N" format="1">
  <advance width="814"/>
  <unicode hex="004E"/>
  <outline>
    <contour>
      <point x="37" y="-2"/>
      <point x="38" y="-6"/>
      <point x="52" y="-6" type="curve" smooth="yes"/>
      <point x="65" y="-6"/>
      <point x="92" y="-3"/>
      <point x="136" y="-3" type="curve" smooth="yes"/>
      <point x="181" y="-3"/>
      <point x="221" y="-6"/>
      <point x="244" y="-6" type="curve" smooth="yes"/>
      <point x="256" y="-6"/>
      <point x="256" y="-1"/>
      <point x="256" y="14" type="curve" smooth="yes"/>
      <point x="256" y="26"/>
      <point x="256" y="30"/>
      <point x="244" y="30" type="curve" smooth="yes"/>
      <point x="158" y="30" type="line" smooth="yes"/>
      <point x="155" y="30"/>
      <point x="154" y="76"/>
      <point x="154" y="129" type="curve" smooth="yes"/>
      <point x="154" y="224"/>
      <point x="155" y="366"/>
      <point x="155" y="472" type="curve" smooth="yes"/>
      <point x="155" y="525"/>
      <point x="155" y="554"/>
      <point x="156" y="594" type="curve" smooth="yes"/>
      <point x="156" y="613"/>
      <point x="161" y="604"/>
      <point x="170" y="594" type="curve"/>
      <point x="662" y="-4" type="line" smooth="yes"/>
      <point x="668" y="-11"/>
      <point x="674" y="-21"/>
      <point x="682" y="-21" type="curve" smooth="yes"/>
      <point x="690" y="-21"/>
      <point x="695" y="-12"/>
      <point x="695" y="4" type="curve" smooth="yes"/>
      <point x="695" y="15"/>
      <point x="707" y="425"/>
      <point x="708" y="580" type="curve" smooth="yes"/>
      <point x="708" y="610"/>
      <point x="710" y="636"/>
      <point x="712" y="636" type="curve" smooth="yes"/>
      <point x="757" y="636" type="line" smooth="yes"/>
      <point x="773" y="636"/>
      <point x="777" y="637"/>
      <point x="777" y="651" type="curve" smooth="yes"/>
      <point x="777" y="668"/>
      <point x="777" y="672"/>
      <point x="763" y="672" type="curve" smooth="yes"/>
      <point x="749" y="672"/>
      <point x="718" y="669"/>
      <point x="678" y="669" type="curve" smooth="yes"/>
      <point x="634" y="669"/>
      <point x="577" y="672"/>
      <point x="570" y="672" type="curve" smooth="yes"/>
      <point x="558" y="672"/>
      <point x="558" y="667"/>
      <point x="558" y="652" type="curve" smooth="yes"/>
      <point x="558" y="640"/>
      <point x="558" y="636"/>
      <point x="570" y="636" type="curve" smooth="yes"/>
      <point x="663" y="636" type="line" smooth="yes"/>
      <point x="664" y="636"/>
      <point x="664" y="591"/>
      <point x="664" y="583" type="curve" smooth="yes"/>
      <point x="664" y="482"/>
      <point x="666" y="305"/>
      <point x="666" y="207" type="curve" smooth="yes"/>
      <point x="666" y="165" type="line" smooth="yes"/>
      <point x="666" y="145"/>
      <point x="665" y="139"/>
      <point x="649" y="159" type="curve" smooth="yes"/>
      <point x="243" y="658" type="line" smooth="yes"/>
      <point x="235" y="668"/>
      <point x="233" y="672"/>
      <point x="221" y="672" type="curve" smooth="yes"/>
      <point x="215" y="672"/>
      <point x="188" y="669"/>
      <point x="166" y="669" type="curve" smooth="yes"/>
      <point x="145" y="669"/>
      <point x="68" y="672"/>
      <point x="54" y="672" type="curve" smooth="yes"/>
      <point x="42" y="672"/>
      <point x="40" y="667"/>
      <point x="40" y="652" type="curve" smooth="yes"/>
      <point x="40" y="640"/>
      <point x="42" y="636"/>
      <point x="54" y="636" type="curve" smooth="yes"/>
      <point x="119" y="636" type="line"/>
      <point x="119" y="602"/>
      <point x="116" y="291"/>
      <point x="111" y="129" type="curve" smooth="yes"/>
      <point x="109" y="65"/>
      <point x="110" y="30"/>
      <point x="102" y="30" type="curve" smooth="yes"/>
      <point x="56" y="30" type="line" smooth="yes"/>
      <point x="40" y="30"/>
      <point x="37" y="29"/>
      <point x="37" y="15" type="curve" smooth="yes"/>
    </contour>
  </outline>
</glyph>
<glyph name="O" format="1">
  <advance width="752"/>
  <unicode hex="004F"/>
  <outline>
    <contour>
      <point x="42" y="102"/>
      <point x="209" y="-14"/>
      <point x="370" y="-14" type="curve" smooth="yes"/>
      <point x="569" y="-14"/>
      <point x="710" y="122"/>
      <point x="710" y="324" type="curve" smooth="yes"/>
      <point x="710" y="519"/>
      <point x="585" y="678"/>
      <point x="385" y="678" type="curve" smooth="yes"/>
      <point x="199" y="678"/>
      <point x="42" y="536"/>
      <point x="42" y="318" type="curve" smooth="yes"/>
    </contour>
    <contour>
      <point x="142" y="497"/>
      <point x="234" y="644"/>
      <point x="375" y="644" type="curve" smooth="yes"/>
      <point x="535" y="644"/>
      <point x="612" y="485"/>
      <point x="612" y="333" type="curve" smooth="yes"/>
      <point x="612" y="180"/>
      <point x="533" y="20"/>
      <point x="371" y="20" type="curve" smooth="yes"/>
      <point x="229" y="20"/>
      <point x="142" y="166"/>
      <point x="142" y="345" type="curve" smooth="yes"/>
    </contour>
  </outline>
</glyph>
<glyph name="Q" format="1">
  <advance width="783"/>
  <unicode hex="0051"/>
  <outline>
    <contour>
      <point x="42" y="119"/>
      <point x="198" y="25"/>
      <point x="374" y="1" type="curve" smooth="yes"/>
      <point x="382" y="0"/>
      <point x="385" y="0"/>
      <point x="385" y="-1" type="curve" smooth="yes"/>
      <point x="385" y="-2"/>
      <point x="384" y="-3"/>
      <point x="378" y="-6" type="curve" smooth="yes"/>
      <point x="347" y="-21"/>
      <point x="279" y="-50"/>
      <point x="254" y="-57" type="curve"/>
      <point x="233" y="-62"/>
      <point x="215" y="-63"/>
      <point x="198" y="-63" type="curve" smooth="yes"/>
      <point x="191" y="-63"/>
      <point x="183" y="-62"/>
      <point x="176" y="-62" type="curve" smooth="yes"/>
      <point x="159" y="-62"/>
      <point x="148" y="-65"/>
      <point x="148" y="-80" type="curve" smooth="yes"/>
      <point x="148" y="-93"/>
      <point x="171" y="-125"/>
      <point x="187" y="-125" type="curve" smooth="yes"/>
      <point x="197" y="-125"/>
      <point x="230" y="-107"/>
      <point x="254" y="-107" type="curve" smooth="yes"/>
      <point x="306" y="-107"/>
      <point x="465" y="-190"/>
      <point x="603" y="-190" type="curve" smooth="yes"/>
      <point x="677" y="-190"/>
      <point x="763" y="-127"/>
      <point x="763" y="-110" type="curve" smooth="yes"/>
      <point x="763" y="-104"/>
      <point x="750" y="-90"/>
      <point x="746" y="-90" type="curve" smooth="yes"/>
      <point x="737" y="-90"/>
      <point x="707" y="-121"/>
      <point x="639" y="-121" type="curve" smooth="yes"/>
      <point x="596" y="-121"/>
      <point x="528" y="-95"/>
      <point x="460" y="-80" type="curve" smooth="yes"/>
      <point x="419" y="-71"/>
      <point x="360" y="-69"/>
      <point x="328" y="-67" type="curve" smooth="yes"/>
      <point x="311" y="-66"/>
      <point x="320" y="-63"/>
      <point x="328" y="-59" type="curve"/>
      <point x="372" y="-39"/>
      <point x="471" y="4"/>
      <point x="495" y="11" type="curve" smooth="yes"/>
      <point x="639" y="52"/>
      <point x="741" y="178"/>
      <point x="741" y="340" type="curve" smooth="yes"/>
      <point x="741" y="536"/>
      <point x="592" y="678"/>
      <point x="392" y="678" type="curve" smooth="yes"/>
      <point x="207" y="678"/>
      <point x="42" y="558"/>
      <point x="42" y="340" type="curve" smooth="yes"/>
    </contour>
    <contour>
      <point x="135" y="508"/>
      <point x="241" y="644"/>
      <point x="382" y="644" type="curve" smooth="yes"/>
      <point x="543" y="644"/>
      <point x="637" y="484"/>
      <point x="637" y="332" type="curve" smooth="yes"/>
      <point x="637" y="110"/>
      <point x="463" y="21"/>
      <point x="434" y="21" type="curve" smooth="yes"/>
      <point x="412" y="21"/>
      <point x="275" y="57"/>
      <point x="219" y="121" type="curve" smooth="yes"/>
      <point x="169" y="178"/>
      <point x="135" y="265"/>
      <point x="135" y="356" type="curve" smooth="yes"/>
    </contour>
  </outline>
</glyph>
<glyph name="U" format="1">
  <advance width="755"/>
  <unicode hex="0055"/>
  <outline>
    <contour>
      <point x="37" y="632"/>
      <point x="43" y="631"/>
      <point x="55" y="631" type="curve" smooth="yes"/>
      <point x="93" y="631" type="line" smooth="yes"/>
      <point x="97" y="631"/>
      <point x="97" y="606"/>
      <point x="97" y="575" type="curve" smooth="yes"/>
      <point x="97" y="496"/>
      <point x="96" y="260"/>
      <point x="96" y="227" type="curve" smooth="yes"/>
      <point x="96" y="105"/>
      <point x="114" y="-14"/>
      <point x="318" y="-14" type="curve" smooth="yes"/>
      <point x="395" y="-14"/>
      <point x="478" y="16"/>
      <point x="525" y="43" type="curve" smooth="yes"/>
      <point x="543" y="53"/>
      <point x="564" y="63"/>
      <point x="570" y="63" type="curve" smooth="yes"/>
      <point x="589" y="63"/>
      <point x="608" y="-10"/>
      <point x="632" y="-10" type="curve" smooth="yes"/>
      <point x="655" y="-10"/>
      <point x="656" y="18"/>
      <point x="656" y="25" type="curve" smooth="yes"/>
      <point x="656" y="46"/>
      <point x="660" y="180"/>
      <point x="663" y="317" type="curve" smooth="yes"/>
      <point x="667" y="463"/>
      <point x="666" y="631"/>
      <point x="674" y="631" type="curve" smooth="yes"/>
      <point x="697" y="631" type="line" smooth="yes"/>
      <point x="713" y="631"/>
      <point x="718" y="632"/>
      <point x="718" y="646" type="curve" smooth="yes"/>
      <point x="718" y="663"/>
      <point x="715" y="667"/>
      <point x="701" y="667" type="curve" smooth="yes"/>
      <point x="691" y="667"/>
      <point x="653" y="664"/>
      <point x="623" y="664" type="curve" smooth="yes"/>
      <point x="593" y="664"/>
      <point x="536" y="667"/>
      <point x="520" y="667" type="curve" smooth="yes"/>
      <point x="507" y="667"/>
      <point x="500" y="666"/>
      <point x="500" y="649" type="curve" smooth="yes"/>
      <point x="500" y="632"/>
      <point x="508" y="631"/>
      <point x="520" y="631" type="curve" smooth="yes"/>
      <point x="570" y="631" type="line" smooth="yes"/>
      <point x="575" y="631"/>
      <point x="576" y="593"/>
      <point x="576" y="552" type="curve" smooth="yes"/>
      <point x="576" y="247" type="line" smooth="yes"/>
      <point x="576" y="101"/>
      <point x="576" y="106"/>
      <point x="552" y="90" type="curve" smooth="yes"/>
      <point x="524" y="71"/>
      <point x="466" y="37"/>
      <point x="382" y="37" type="curve" smooth="yes"/>
      <point x="241" y="37"/>
      <point x="184" y="102"/>
      <point x="184" y="228" type="curve" smooth="yes"/>
      <point x="184" y="270"/>
      <point x="189" y="631"/>
      <point x="197" y="631" type="curve" smooth="yes"/>
      <point x="262" y="631" type="line" smooth="yes"/>
      <point x="278" y="631"/>
      <point x="281" y="632"/>
      <point x="281" y="646" type="curve" smooth="yes"/>
      <point x="281" y="663"/>
      <point x="280" y="667"/>
      <point x="266" y="667" type="curve" smooth="yes"/>
      <point x="243" y="667"/>
      <point x="180" y="664"/>
      <point x="150" y="664" type="curve" smooth="yes"/>
      <point x="120" y="664"/>
      <point x="71" y="667"/>
      <point x="55" y="667" type="curve" smooth="yes"/>
      <point x="42" y="667"/>
      <point x="37" y="666"/>
      <point x="37" y="649" type="curve" smooth="yes"/>
    </contour>
  </outline>
</glyph>
<glyph name="V" format="1">
  <advance width="685"/>
  <unicode hex="0056"/>
  <outline>
    <contour>
      <point x="7" y="632"/>
      <point x="14" y="631"/>
      <point x="26" y="631" type="curve" smooth="yes"/>
      <point x="57" y="631" type="line" smooth="yes"/>
      <point x="63" y="631"/>
      <point x="262" y="115"/>
      <point x="265" y="109" type="curve"/>
      <point x="300" y="30"/>
      <point x="307" y="-28"/>
      <point x="322" y="-28" type="curve" smooth="yes"/>
      <point x="341" y="-28"/>
      <point x="345" y="-5"/>
      <point x="365" y="24" type="curve" smooth="yes"/>
      <point x="376" y="40"/>
      <point x="382" y="42"/>
      <point x="393" y="67" type="curve" smooth="yes"/>
      <point x="624" y="610" type="line" smooth="yes"/>
      <point x="632" y="628"/>
      <point x="631" y="631"/>
      <point x="657" y="631" type="curve" smooth="yes"/>
      <point x="673" y="631"/>
      <point x="678" y="632"/>
      <point x="678" y="646" type="curve" smooth="yes"/>
      <point x="678" y="663"/>
      <point x="675" y="667"/>
      <point x="661" y="667" type="curve" smooth="yes"/>
      <point x="651" y="667"/>
      <point x="613" y="664"/>
      <point x="583" y="664" type="curve" smooth="yes"/>
      <point x="553" y="664"/>
      <point x="494" y="667"/>
      <point x="478" y="667" type="curve" smooth="yes"/>
      <point x="464" y="667"/>
      <point x="460" y="665"/>
      <point x="460" y="649" type="curve" smooth="yes"/>
      <point x="460" y="632"/>
      <point x="469" y="631"/>
      <point x="481" y="631" type="curve" smooth="yes"/>
      <point x="552" y="631" type="line" smooth="yes"/>
      <point x="557" y="631"/>
      <point x="558" y="628"/>
      <point x="558" y="618" type="curve" smooth="yes"/>
      <point x="558" y="569"/>
      <point x="438" y="277"/>
      <point x="386" y="141" type="curve" smooth="yes"/>
      <point x="376" y="115"/>
      <point x="370" y="102"/>
      <point x="367" y="102" type="curve" smooth="yes"/>
      <point x="364" y="102"/>
      <point x="357" y="116"/>
      <point x="347" y="143" type="curve" smooth="yes"/>
      <point x="306" y="250"/>
      <point x="225" y="471"/>
      <point x="188" y="579" type="curve" smooth="yes"/>
      <point x="182" y="595"/>
      <point x="176" y="619"/>
      <point x="176" y="629" type="curve" smooth="yes"/>
      <point x="176" y="631" type="line"/>
      <point x="246" y="631" type="line" smooth="yes"/>
      <point x="262" y="631"/>
      <point x="267" y="632"/>
      <point x="267" y="646" type="curve" smooth="yes"/>
      <point x="267" y="663"/>
      <point x="264" y="667"/>
      <point x="250" y="667" type="curve" smooth="yes"/>
      <point x="227" y="667"/>
      <point x="150" y="664"/>
      <point x="120" y="664" type="curve" smooth="yes"/>
      <point x="90" y="664"/>
      <point x="39" y="667"/>
      <point x="26" y="667" type="curve" smooth="yes"/>
      <point x="13" y="667"/>
      <point x="7" y="666"/>
      <point x="7" y="649" type="curve" smooth="yes"/>
    </contour>
  </outline>
</glyph>
<glyph name="W" format="1">
  <advance width="1008"/>
  <unicode hex="0057"/>
  <outline>
    <contour>
      <point x="7" y="632"/>
      <point x="15" y="631"/>
      <point x="27" y="631" type="curve" smooth="yes"/>
      <point x="63" y="631" type="line" smooth="yes"/>
      <point x="69" y="631"/>
      <point x="222" y="115"/>
      <point x="224" y="109" type="curve" smooth="yes"/>
      <point x="249" y="33"/>
      <point x="257" y="-28"/>
      <point x="279" y="-28" type="curve" smooth="yes"/>
      <point x="295" y="-28"/>
      <point x="302" y="-5"/>
      <point x="322" y="24" type="curve" smooth="yes"/>
      <point x="333" y="39"/>
      <point x="340" y="42"/>
      <point x="350" y="67" type="curve" smooth="yes"/>
      <point x="492" y="439" type="line" smooth="yes"/>
      <point x="497" y="451"/>
      <point x="499" y="457"/>
      <point x="501" y="457" type="curve" smooth="yes"/>
      <point x="503" y="457"/>
      <point x="505" y="451"/>
      <point x="508" y="439" type="curve"/>
      <point x="551" y="292"/>
      <point x="599" y="112"/>
      <point x="600" y="109" type="curve" smooth="yes"/>
      <point x="625" y="33"/>
      <point x="633" y="-28"/>
      <point x="655" y="-28" type="curve" smooth="yes"/>
      <point x="671" y="-28"/>
      <point x="678" y="-5"/>
      <point x="698" y="24" type="curve" smooth="yes"/>
      <point x="709" y="39"/>
      <point x="716" y="42"/>
      <point x="726" y="67" type="curve" smooth="yes"/>
      <point x="947" y="610" type="line" smooth="yes"/>
      <point x="954" y="628"/>
      <point x="954" y="631"/>
      <point x="980" y="631" type="curve" smooth="yes"/>
      <point x="997" y="631"/>
      <point x="1001" y="635"/>
      <point x="1001" y="648" type="curve" smooth="yes"/>
      <point x="1001" y="663"/>
      <point x="998" y="667"/>
      <point x="984" y="667" type="curve" smooth="yes"/>
      <point x="974" y="667"/>
      <point x="952" y="664"/>
      <point x="916" y="664" type="curve" smooth="yes"/>
      <point x="863" y="664"/>
      <point x="827" y="667"/>
      <point x="813" y="667" type="curve" smooth="yes"/>
      <point x="800" y="667"/>
      <point x="793" y="666"/>
      <point x="793" y="649" type="curve" smooth="yes"/>
      <point x="793" y="632"/>
      <point x="801" y="631"/>
      <point x="813" y="631" type="curve" smooth="yes"/>
      <point x="878" y="631" type="line" smooth="yes"/>
      <point x="883" y="631"/>
      <point x="884" y="628"/>
      <point x="884" y="618" type="curve" smooth="yes"/>
      <point x="884" y="569"/>
      <point x="770" y="277"/>
      <point x="719" y="141" type="curve" smooth="yes"/>
      <point x="709" y="115"/>
      <point x="704" y="102"/>
      <point x="701" y="102" type="curve" smooth="yes"/>
      <point x="697" y="102"/>
      <point x="693" y="115"/>
      <point x="684" y="143" type="curve" smooth="yes"/>
      <point x="678" y="164"/>
      <point x="612" y="387"/>
      <point x="574" y="527" type="curve" smooth="yes"/>
      <point x="571" y="539"/>
      <point x="556" y="602"/>
      <point x="556" y="625" type="curve" smooth="yes"/>
      <point x="556" y="628"/>
      <point x="556" y="629"/>
      <point x="557" y="631" type="curve"/>
      <point x="620" y="631" type="line" smooth="yes"/>
      <point x="633" y="631"/>
      <point x="640" y="632"/>
      <point x="640" y="646" type="curve" smooth="yes"/>
      <point x="640" y="663"/>
      <point x="637" y="667"/>
      <point x="623" y="667" type="curve" smooth="yes"/>
      <point x="600" y="667"/>
      <point x="533" y="664"/>
      <point x="503" y="664" type="curve" smooth="yes"/>
      <point x="473" y="664"/>
      <point x="408" y="667"/>
      <point x="392" y="667" type="curve" smooth="yes"/>
      <point x="379" y="667"/>
      <point x="372" y="666"/>
      <point x="372" y="649" type="curve" smooth="yes"/>
      <point x="372" y="632"/>
      <point x="380" y="631"/>
      <point x="392" y="631" type="curve" smooth="yes"/>
      <point x="449" y="631" type="line" smooth="yes"/>
      <point x="452" y="631"/>
      <point x="465" y="595"/>
      <point x="476" y="555" type="curve" smooth="yes"/>
      <point x="480" y="539"/>
      <point x="483" y="532"/>
      <point x="483" y="525" type="curve" smooth="yes"/>
      <point x="483" y="521"/>
      <point x="483" y="516"/>
      <point x="480" y="508" type="curve" smooth="yes"/>
      <point x="337" y="143" type="line"/>
      <point x="330" y="127"/>
      <point x="328" y="118"/>
      <point x="325" y="118" type="curve" smooth="yes"/>
      <point x="322" y="118"/>
      <point x="320" y="126"/>
      <point x="314" y="143" type="curve"/>
      <point x="308" y="163"/>
      <point x="236" y="381"/>
      <point x="193" y="527" type="curve" smooth="yes"/>
      <point x="190" y="537"/>
      <point x="167" y="617"/>
      <point x="166" y="625" type="curve"/>
      <point x="167" y="631"/>
      <point x="170" y="631"/>
      <point x="173" y="631" type="curve" smooth="yes"/>
      <point x="223" y="631" type="line" smooth="yes"/>
      <point x="239" y="631"/>
      <point x="244" y="632"/>
      <point x="244" y="646" type="curve" smooth="yes"/>
      <point x="244" y="663"/>
      <point x="241" y="667"/>
      <point x="227" y="667" type="curve" smooth="yes"/>
      <point x="204" y="667"/>
      <point x="153" y="664"/>
      <point x="123" y="664" type="curve" smooth="yes"/>
      <point x="93" y="664"/>
      <point x="43" y="667"/>
      <point x="27" y="667" type="curve" smooth="yes"/>
      <point x="14" y="667"/>
      <point x="7" y="666"/>
      <point x="7" y="649" type="curve" smooth="yes"/>
    </contour>
  </outline>
</glyph>
<glyph name="X" format="1">
  <advance width="638"/>
  <unicode hex="0058"/>
  <outline>
    <contour>
      <point x="7" y="-4"/>
      <point x="13" y="-6"/>
      <point x="26" y="-6" type="curve" smooth="yes"/>
      <point x="42" y="-6"/>
      <point x="79" y="-3"/>
      <point x="109" y="-3" type="curve" smooth="yes"/>
      <point x="139" y="-3"/>
      <point x="169" y="-6"/>
      <point x="192" y="-6" type="curve" smooth="yes"/>
      <point x="206" y="-6"/>
      <point x="209" y="-2"/>
      <point x="209" y="15" type="curve" smooth="yes"/>
      <point x="209" y="29"/>
      <point x="204" y="30"/>
      <point x="188" y="30" type="curve" smooth="yes"/>
      <point x="133" y="30" type="line" smooth="yes"/>
      <point x="121" y="30"/>
      <point x="126" y="35"/>
      <point x="135" y="50" type="curve" smooth="yes"/>
      <point x="173" y="112"/>
      <point x="269" y="251"/>
      <point x="298" y="292" type="curve"/>
      <point x="301" y="297"/>
      <point x="303" y="296"/>
      <point x="306" y="291" type="curve" smooth="yes"/>
      <point x="344" y="227"/>
      <point x="425" y="93"/>
      <point x="451" y="41" type="curve"/>
      <point x="456" y="33"/>
      <point x="455" y="30"/>
      <point x="446" y="30" type="curve" smooth="yes"/>
      <point x="396" y="30" type="line" smooth="yes"/>
      <point x="380" y="30"/>
      <point x="375" y="29"/>
      <point x="375" y="15" type="curve" smooth="yes"/>
      <point x="375" y="-2"/>
      <point x="378" y="-6"/>
      <point x="392" y="-6" type="curve" smooth="yes"/>
      <point x="415" y="-6"/>
      <point x="478" y="-3"/>
      <point x="508" y="-3" type="curve" smooth="yes"/>
      <point x="538" y="-3"/>
      <point x="596" y="-6"/>
      <point x="612" y="-6" type="curve" smooth="yes"/>
      <point x="628" y="-6"/>
      <point x="631" y="-5"/>
      <point x="631" y="12" type="curve" smooth="yes"/>
      <point x="631" y="29"/>
      <point x="629" y="30"/>
      <point x="610" y="30" type="curve" smooth="yes"/>
      <point x="576" y="30" type="line" smooth="yes"/>
      <point x="570" y="30"/>
      <point x="395" y="306"/>
      <point x="364" y="355" type="curve" smooth="yes"/>
      <point x="362" y="358"/>
      <point x="361" y="362"/>
      <point x="364" y="366" type="curve"/>
      <point x="384" y="396"/>
      <point x="456" y="487"/>
      <point x="515" y="572" type="curve" smooth="yes"/>
      <point x="537" y="604"/>
      <point x="559" y="631"/>
      <point x="562" y="631" type="curve" smooth="yes"/>
      <point x="585" y="631" type="line" smooth="yes"/>
      <point x="597" y="631"/>
      <point x="604" y="632"/>
      <point x="604" y="649" type="curve" smooth="yes"/>
      <point x="604" y="665"/>
      <point x="598" y="667"/>
      <point x="585" y="667" type="curve" smooth="yes"/>
      <point x="569" y="667"/>
      <point x="539" y="664"/>
      <point x="509" y="664" type="curve" smooth="yes"/>
      <point x="473" y="664"/>
      <point x="447" y="667"/>
      <point x="431" y="667" type="curve" smooth="yes"/>
      <point x="417" y="667"/>
      <point x="414" y="663"/>
      <point x="414" y="646" type="curve" smooth="yes"/>
      <point x="414" y="632"/>
      <point x="419" y="631"/>
      <point x="435" y="631" type="curve" smooth="yes"/>
      <point x="491" y="631" type="line"/>
      <point x="491" y="630" type="line" smooth="yes"/>
      <point x="491" y="615"/>
      <point x="461" y="566"/>
      <point x="428" y="517" type="curve" smooth="yes"/>
      <point x="419" y="503"/>
      <point x="365" y="420"/>
      <point x="346" y="393" type="curve" smooth="yes"/>
      <point x="344" y="390"/>
      <point x="343" y="389"/>
      <point x="342" y="389" type="curve" smooth="yes"/>
      <point x="340" y="389"/>
      <point x="336" y="397"/>
      <point x="333" y="401" type="curve"/>
      <point x="300" y="459"/>
      <point x="237" y="571"/>
      <point x="217" y="620" type="curve" smooth="yes"/>
      <point x="214" y="628"/>
      <point x="210" y="631"/>
      <point x="222" y="631" type="curve" smooth="yes"/>
      <point x="263" y="631" type="line" smooth="yes"/>
      <point x="279" y="631"/>
      <point x="284" y="632"/>
      <point x="284" y="646" type="curve" smooth="yes"/>
      <point x="284" y="663"/>
      <point x="283" y="667"/>
      <point x="269" y="667" type="curve" smooth="yes"/>
      <point x="246" y="667"/>
      <point x="200" y="664"/>
      <point x="170" y="664" type="curve" smooth="yes"/>
      <point x="140" y="664"/>
      <point x="67" y="667"/>
      <point x="51" y="667" type="curve" smooth="yes"/>
      <point x="38" y="667"/>
      <point x="32" y="666"/>
      <point x="32" y="649" type="curve" smooth="yes"/>
      <point x="32" y="632"/>
      <point x="40" y="631"/>
      <point x="52" y="631" type="curve" smooth="yes"/>
      <point x="91" y="631" type="line" smooth="yes"/>
      <point x="97" y="631"/>
      <point x="263" y="360"/>
      <point x="278" y="335" type="curve"/>
      <point x="283" y="328"/>
      <point x="284" y="325"/>
      <point x="279" y="318" type="curve"/>
      <point x="231" y="256"/>
      <point x="179" y="194"/>
      <point x="135" y="129" type="curve" smooth="yes"/>
      <point x="99" y="77"/>
      <point x="68" y="30"/>
      <point x="63" y="30" type="curve" smooth="yes"/>
      <point x="26" y="30" type="line" smooth="yes"/>
      <point x="14" y="30"/>
      <point x="7" y="29"/>
      <point x="7" y="12" type="curve" smooth="yes"/>
    </contour>
  </outline>
</glyph>
<glyph name="bracketleft" format="1">
  <advance width="296"/>
  <unicode hex="005B"/>
  <outline>
    <contour>
      <point x="77" y="-129" type="line" smooth="yes"/>
      <point x="77" y="-144"/>
      <point x="80" y="-144"/>
      <point x="93" y="-144" type="curve" smooth="yes"/>
      <point x="245" y="-144" type="line" smooth="yes"/>
      <point x="258" y="-144"/>
      <point x="259" y="-139"/>
      <point x="259" y="-130" type="curve" smooth="yes"/>
      <point x="259" y="-118" type="line" smooth="yes"/>
      <point x="259" y="-104"/>
      <point x="257" y="-102"/>
      <point x="245" y="-102" type="curve" smooth="yes"/>
      <point x="138" y="-102" type="line" smooth="yes"/>
      <point x="128" y="-102"/>
      <point x="128" y="-102"/>
      <point x="128" y="-93" type="curve" smooth="yes"/>
      <point x="128" y="642" type="line" smooth="yes"/>
      <point x="128" y="651"/>
      <point x="128" y="651"/>
      <point x="138" y="651" type="curve" smooth="yes"/>
      <point x="245" y="651" type="line" smooth="yes"/>
      <point x="257" y="651"/>
      <point x="259" y="653"/>
      <point x="259" y="667" type="curve" smooth="yes"/>
      <point x="259" y="681" type="line" smooth="yes"/>
      <point x="259" y="690"/>
      <point x="257" y="693"/>
      <point x="245" y="693" type="curve" smooth="yes"/>
      <point x="92" y="693" type="line" smooth="yes"/>
      <point x="79" y="693"/>
      <point x="77" y="689"/>
      <point x="77" y="678" type="curve" smooth="yes"/>
    </contour>
  </outline>
</glyph>
<glyph name="backslash" format="1">
  <advance width="406"/>
  <unicode hex="005C"/>
  <outline>
    <contour>
      <point x="6" y="691"/>
      <point x="15" y="663"/>
      <point x="21" y="648" type="curve" smooth="yes"/>
      <point x="335" y="-203" type="line" smooth="yes"/>
      <point x="346" y="-234"/>
      <point x="345" y="-236"/>
      <point x="372" y="-236" type="curve" smooth="yes"/>
      <point x="383" y="-236"/>
      <point x="401" y="-236"/>
      <point x="401" y="-224" type="curve" smooth="yes"/>
      <point x="401" y="-220"/>
      <point x="389" y="-185"/>
      <point x="380" y="-162" type="curve" smooth="yes"/>
      <point x="63" y="688" type="line"/>
      <point x="58" y="704"/>
      <point x="58" y="707"/>
      <point x="31" y="707" type="curve" smooth="yes"/>
      <point x="12" y="707"/>
      <point x="6" y="703"/>
      <point x="6" y="696" type="curve" smooth="yes"/>
    </contour>
  </outline>
</glyph>
<glyph name="asciicircum" format="1">
  <advance width="402"/>
  <unicode hex="005E"/>
  <outline>
    <contour>
      <point x="47" y="309" type="line"/>
      <point x="56" y="306"/>
      <point x="63" y="305"/>
      <point x="75" y="305" type="curve" smooth="yes"/>
      <point x="89" y="305"/>
      <point x="91" y="306"/>
      <point x="103" y="308" type="curve"/>
      <point x="105" y="308" type="line"/>
      <point x="201" y="535" type="line"/>
      <point x="301" y="308" type="line"/>
      <point x="302" y="308" type="line"/>
      <point x="313" y="306"/>
      <point x="319" y="305"/>
      <point x="329" y="305" type="curve" smooth="yes"/>
      <point x="341" y="305"/>
      <point x="349" y="306"/>
      <point x="359" y="309" type="curve"/>
      <point x="211" y="633" type="line"/>
      <point x="210" y="634" type="line"/>
      <point x="207" y="635"/>
      <point x="205" y="635"/>
      <point x="203" y="635" type="curve" smooth="yes"/>
      <point x="201" y="635"/>
      <point x="199" y="635"/>
      <point x="196" y="634" type="curve"/>
      <point x="195" y="633" type="line"/>
    </contour>
  </outline>
</glyph>
<glyph name="grave" format="1">
  <advance width="400"/>
  <unicode hex="0060"/>
  <outline>
    <contour>
      <point x="95" y="574"/>
      <point x="98" y="567"/>
      <point x="103" y="560" type="curve" smooth="yes"/>
      <point x="185" y="453" type="line" smooth="yes"/>
      <point x="188" y="449"/>
      <point x="190" y="446"/>
      <point x="195" y="446" type="curve" smooth="yes"/>
      <point x="211" y="446" type="line" smooth="yes"/>
      <point x="214" y="446"/>
      <point x="218" y="447"/>
      <point x="218" y="451" type="curve" smooth="yes"/>
      <point x="218" y="453"/>
      <point x="217" y="456"/>
      <point x="216" y="458" type="curve"/>
      <point x="167" y="588" type="line" smooth="yes"/>
      <point x="161" y="605"/>
      <point x="150" y="615"/>
      <point x="134" y="615" type="curve" smooth="yes"/>
      <point x="110" y="615"/>
      <point x="95" y="600"/>
      <point x="95" y="582" type="curve" smooth="yes"/>
    </contour>
  </outline>
</glyph>
<glyph name="b" format="1">
  <advance width="485"/>
  <unicode hex="0062"/>
  <outline>
    <contour>
      <point x="1" y="633"/>
      <point x="1" y="630"/>
      <point x="10" y="630" type="curve" smooth="yes"/>
      <point x="15" y="630"/>
      <point x="63" y="636"/>
      <point x="71" y="636" type="curve" smooth="yes"/>
      <point x="81" y="636"/>
      <point x="86" y="334"/>
      <point x="86" y="186" type="curve" smooth="yes"/>
      <point x="86" y="28"/>
      <point x="82" y="7"/>
      <point x="82" y="1" type="curve" smooth="yes"/>
      <point x="82" y="-5"/>
      <point x="82" y="-15"/>
      <point x="92" y="-15" type="curve" smooth="yes"/>
      <point x="108" y="-15"/>
      <point x="121" y="3"/>
      <point x="145" y="3" type="curve" smooth="yes"/>
      <point x="170" y="3"/>
      <point x="196" y="-16"/>
      <point x="241" y="-16" type="curve" smooth="yes"/>
      <point x="354" y="-16"/>
      <point x="458" y="59"/>
      <point x="458" y="188" type="curve" smooth="yes"/>
      <point x="458" y="301"/>
      <point x="378" y="389"/>
      <point x="263" y="389" type="curve" smooth="yes"/>
      <point x="213" y="389"/>
      <point x="163" y="361"/>
      <point x="160" y="361" type="curve" smooth="yes"/>
      <point x="158" y="361"/>
      <point x="158" y="373"/>
      <point x="158" y="390" type="curve" smooth="yes"/>
      <point x="158" y="538"/>
      <point x="161" y="644"/>
      <point x="161" y="671" type="curve" smooth="yes"/>
      <point x="161" y="676"/>
      <point x="160" y="679"/>
      <point x="153" y="679" type="curve" smooth="yes"/>
      <point x="147" y="679"/>
      <point x="55" y="667"/>
      <point x="7" y="663" type="curve"/>
      <point x="2" y="663"/>
      <point x="1" y="641"/>
      <point x="1" y="639" type="curve" smooth="yes"/>
    </contour>
    <contour>
      <point x="156" y="97"/>
      <point x="158" y="228"/>
      <point x="158" y="330" type="curve" smooth="yes"/>
      <point x="158" y="337"/>
      <point x="195" y="354"/>
      <point x="223" y="354" type="curve" smooth="yes"/>
      <point x="308" y="354"/>
      <point x="380" y="279"/>
      <point x="380" y="187" type="curve" smooth="yes"/>
      <point x="380" y="99"/>
      <point x="329" y="17"/>
      <point x="237" y="17" type="curve" smooth="yes"/>
      <point x="208" y="17"/>
      <point x="156" y="18"/>
      <point x="156" y="64" type="curve" smooth="yes"/>
    </contour>
  </outline>
</glyph>
<glyph name="c" format="1">
  <advance width="412"/>
  <unicode hex="0063"/>
  <outline>
    <contour>
      <point x="32" y="62"/>
      <point x="105" y="-13"/>
      <point x="224" y="-13" type="curve" smooth="yes"/>
      <point x="323" y="-13"/>
      <point x="385" y="50"/>
      <point x="385" y="56" type="curve" smooth="yes"/>
      <point x="385" y="66"/>
      <point x="382" y="67"/>
      <point x="375" y="67" type="curve" smooth="yes"/>
      <point x="370" y="67"/>
      <point x="323" y="37"/>
      <point x="254" y="37" type="curve" smooth="yes"/>
      <point x="153" y="37"/>
      <point x="103" y="119"/>
      <point x="103" y="202" type="curve" smooth="yes"/>
      <point x="103" y="280"/>
      <point x="152" y="369"/>
      <point x="235" y="369" type="curve" smooth="yes"/>
      <point x="296" y="369"/>
      <point x="298" y="326"/>
      <point x="314" y="280" type="curve"/>
      <point x="317" y="270"/>
      <point x="325" y="267"/>
      <point x="334" y="267" type="curve" smooth="yes"/>
      <point x="344" y="267"/>
      <point x="357" y="274"/>
      <point x="366" y="281" type="curve" smooth="yes"/>
      <point x="375" y="288"/>
      <point x="377" y="294"/>
      <point x="377" y="303" type="curve" smooth="yes"/>
      <point x="377" y="357"/>
      <point x="307" y="402"/>
      <point x="241" y="402" type="curve" smooth="yes"/>
      <point x="143" y="402"/>
      <point x="32" y="327"/>
      <point x="32" y="177" type="curve" smooth="yes"/>
    </contour>
  </outline>
</glyph>
<glyph name="f" format="1">
  <advance width="306"/>
  <unicode hex="0066"/>
  <outline>
    <contour>
      <point x="32" y="1"/>
      <point x="34" y="-5"/>
      <point x="48" y="-5" type="curve" smooth="yes"/>
      <point x="78" y="-5"/>
      <point x="106" y="-3"/>
      <point x="131" y="-3" type="curve" smooth="yes"/>
      <point x="160" y="-3"/>
      <point x="220" y="-5"/>
      <point x="239" y="-5" type="curve" smooth="yes"/>
      <point x="253" y="-5"/>
      <point x="253" y="0"/>
      <point x="253" y="12" type="curve" smooth="yes"/>
      <point x="253" y="24"/>
      <point x="253" y="28"/>
      <point x="241" y="28" type="curve" smooth="yes"/>
      <point x="173" y="28" type="line" smooth="yes"/>
      <point x="167" y="28"/>
      <point x="164" y="102"/>
      <point x="164" y="169" type="curve" smooth="yes"/>
      <point x="164" y="335" type="line" smooth="yes"/>
      <point x="164" y="343"/>
      <point x="168" y="344"/>
      <point x="183" y="344" type="curve" smooth="yes"/>
      <point x="295" y="344" type="line" smooth="yes"/>
      <point x="301" y="344"/>
      <point x="304" y="366"/>
      <point x="304" y="368" type="curve" smooth="yes"/>
      <point x="304" y="375"/>
      <point x="299" y="375"/>
      <point x="294" y="375" type="curve" smooth="yes"/>
      <point x="183" y="375" type="line" smooth="yes"/>
      <point x="164" y="375"/>
      <point x="160" y="375"/>
      <point x="160" y="389" type="curve" smooth="yes"/>
      <point x="161" y="432"/>
      <point x="162" y="449"/>
      <point x="162" y="492" type="curve" smooth="yes"/>
      <point x="162" y="555"/>
      <point x="165" y="653"/>
      <point x="218" y="653" type="curve" smooth="yes"/>
      <point x="252" y="653"/>
      <point x="256" y="619"/>
      <point x="262" y="573" type="curve" smooth="yes"/>
      <point x="263" y="563"/>
      <point x="269" y="561"/>
      <point x="278" y="561" type="curve" smooth="yes"/>
      <point x="293" y="561"/>
      <point x="329" y="586"/>
      <point x="329" y="611" type="curve" smooth="yes"/>
      <point x="329" y="654"/>
      <point x="283" y="681"/>
      <point x="243" y="681" type="curve" smooth="yes"/>
      <point x="124" y="681"/>
      <point x="84" y="586"/>
      <point x="84" y="481" type="curve" smooth="yes"/>
      <point x="84" y="428"/>
      <point x="86" y="433"/>
      <point x="86" y="384" type="curve" smooth="yes"/>
      <point x="86" y="375"/>
      <point x="85" y="375"/>
      <point x="79" y="375" type="curve" smooth="yes"/>
      <point x="49" y="375" type="line" smooth="yes"/>
      <point x="40" y="375"/>
      <point x="38" y="372"/>
      <point x="38" y="359" type="curve" smooth="yes"/>
      <point x="38" y="346"/>
      <point x="40" y="343"/>
      <point x="52" y="343" type="curve" smooth="yes"/>
      <point x="85" y="343" type="line" smooth="yes"/>
      <point x="87" y="343"/>
      <point x="87" y="256"/>
      <point x="87" y="232" type="curve" smooth="yes"/>
      <point x="87" y="172" type="line" smooth="yes"/>
      <point x="87" y="161"/>
      <point x="88" y="123"/>
      <point x="88" y="88" type="curve" smooth="yes"/>
      <point x="88" y="64"/>
      <point x="88" y="28"/>
      <point x="84" y="28" type="curve" smooth="yes"/>
      <point x="47" y="28" type="line" smooth="yes"/>
      <point x="35" y="28"/>
      <point x="32" y="22"/>
      <point x="32" y="12" type="curve" smooth="yes"/>
    </contour>
  </outline>
</glyph>
<glyph name="g" format="1">
  <advance width="425"/>
  <unicode hex="0067"/>
  <outline>
    <contour>
      <point x="12" y="-256"/>
      <point x="117" y="-293"/>
      <point x="200" y="-293" type="curve" smooth="yes"/>
      <point x="330" y="-293"/>
      <point x="423" y="-228"/>
      <point x="423" y="-124" type="curve" smooth="yes"/>
      <point x="423" y="9"/>
      <point x="217" y="-5"/>
      <point x="90" y="3" type="curve"/>
      <point x="88" y="3"/>
      <point x="78" y="20"/>
      <point x="78" y="30" type="curve" smooth="yes"/>
      <point x="78" y="34"/>
      <point x="79" y="36"/>
      <point x="80" y="36" type="curve"/>
      <point x="147" y="55"/>
      <point x="207" y="70"/>
      <point x="253" y="88" type="curve" smooth="yes"/>
      <point x="325" y="115"/>
      <point x="370" y="157"/>
      <point x="370" y="243" type="curve" smooth="yes"/>
      <point x="370" y="284"/>
      <point x="358" y="310"/>
      <point x="358" y="314" type="curve" smooth="yes"/>
      <point x="358" y="317"/>
      <point x="403" y="325"/>
      <point x="413" y="326" type="curve"/>
      <point x="418" y="326"/>
      <point x="419" y="331"/>
      <point x="419" y="335" type="curve" smooth="yes"/>
      <point x="419" y="346"/>
      <point x="414" y="366"/>
      <point x="407" y="366" type="curve"/>
      <point x="377" y="364"/>
      <point x="338" y="347"/>
      <point x="334" y="347" type="curve" smooth="yes"/>
      <point x="329" y="347"/>
      <point x="286" y="398"/>
      <point x="210" y="398" type="curve" smooth="yes"/>
      <point x="120" y="398"/>
      <point x="31" y="336"/>
      <point x="31" y="246" type="curve" smooth="yes"/>
      <point x="31" y="151"/>
      <point x="86" y="103"/>
      <point x="160" y="82" type="curve"/>
      <point x="165" y="81"/>
      <point x="169" y="80"/>
      <point x="169" y="79" type="curve" smooth="yes"/>
      <point x="169" y="78"/>
      <point x="69" y="52"/>
      <point x="65" y="51" type="curve"/>
      <point x="50" y="48"/>
      <point x="45" y="34"/>
      <point x="45" y="16" type="curve" smooth="yes"/>
      <point x="45" y="5"/>
      <point x="46" y="-13"/>
      <point x="54" y="-33" type="curve"/>
      <point x="61" y="-48"/>
      <point x="80" y="-54"/>
      <point x="97" y="-54" type="curve" smooth="yes"/>
      <point x="133" y="-54" type="line" smooth="yes"/>
      <point x="154" y="-54"/>
      <point x="150" y="-54"/>
      <point x="135" y="-59" type="curve"/>
      <point x="85" y="-73"/>
      <point x="12" y="-108"/>
      <point x="12" y="-173" type="curve" smooth="yes"/>
    </contour>
    <contour>
      <point x="63" y="-103"/>
      <point x="142" y="-71"/>
      <point x="189" y="-71" type="curve" smooth="yes"/>
      <point x="263" y="-71"/>
      <point x="360" y="-94"/>
      <point x="360" y="-148" type="curve" smooth="yes"/>
      <point x="360" y="-233"/>
      <point x="274" y="-261"/>
      <point x="199" y="-261" type="curve" smooth="yes"/>
      <point x="139" y="-261"/>
      <point x="63" y="-229"/>
      <point x="63" y="-166" type="curve" smooth="yes"/>
    </contour>
    <contour>
      <point x="101" y="315"/>
      <point x="150" y="367"/>
      <point x="205" y="367" type="curve" smooth="yes"/>
      <point x="264" y="367"/>
      <point x="302" y="322"/>
      <point x="302" y="244" type="curve" smooth="yes"/>
      <point x="302" y="155"/>
      <point x="244" y="98"/>
      <point x="207" y="98" type="curve" smooth="yes"/>
      <point x="184" y="98"/>
      <point x="101" y="153"/>
      <point x="101" y="250" type="curve" smooth="yes"/>
    </contour>
  </outline>
</glyph>
<glyph name="m" format="1">
  <advance width="739"/>
  <unicode hex="006D"/>
  <outline>
    <contour>
      <point x="21" y="345"/>
      <point x="23" y="344"/>
      <point x="26" y="344" type="curve" smooth="yes"/>
      <point x="30" y="344"/>
      <point x="66" y="346"/>
      <point x="82" y="347" type="curve"/>
      <point x="88" y="347"/>
      <point x="87" y="347"/>
      <point x="88" y="340" type="curve"/>
      <point x="89" y="327"/>
      <point x="90" y="300"/>
      <point x="90" y="272" type="curve" smooth="yes"/>
      <point x="90" y="163" type="line" smooth="yes"/>
      <point x="90" y="118"/>
      <point x="90" y="77"/>
      <point x="88" y="57" type="curve" smooth="yes"/>
      <point x="86" y="37"/>
      <point x="83" y="28"/>
      <point x="78" y="28" type="curve" smooth="yes"/>
      <point x="36" y="28" type="line" smooth="yes"/>
      <point x="26" y="28"/>
      <point x="25" y="21"/>
      <point x="25" y="11" type="curve" smooth="yes"/>
      <point x="25" y="-2"/>
      <point x="28" y="-5"/>
      <point x="37" y="-5" type="curve" smooth="yes"/>
      <point x="53" y="-5"/>
      <point x="99" y="-3"/>
      <point x="124" y="-3" type="curve" smooth="yes"/>
      <point x="149" y="-3"/>
      <point x="184" y="-5"/>
      <point x="203" y="-5" type="curve" smooth="yes"/>
      <point x="216" y="-5"/>
      <point x="217" y="2"/>
      <point x="217" y="12" type="curve" smooth="yes"/>
      <point x="217" y="22"/>
      <point x="216" y="28"/>
      <point x="203" y="28" type="curve" smooth="yes"/>
      <point x="179" y="28" type="line" smooth="yes"/>
      <point x="164" y="28"/>
      <point x="163" y="28"/>
      <point x="163" y="57" type="curve" smooth="yes"/>
      <point x="163" y="296" type="line" smooth="yes"/>
      <point x="163" y="301"/>
      <point x="163" y="304"/>
      <point x="173" y="312" type="curve" smooth="yes"/>
      <point x="188" y="324"/>
      <point x="222" y="341"/>
      <point x="271" y="341" type="curve" smooth="yes"/>
      <point x="337" y="341"/>
      <point x="340" y="285"/>
      <point x="340" y="216" type="curve" smooth="yes"/>
      <point x="340" y="209"/>
      <point x="341" y="166"/>
      <point x="341" y="122" type="curve" smooth="yes"/>
      <point x="341" y="80"/>
      <point x="341" y="28"/>
      <point x="334" y="28" type="curve" smooth="yes"/>
      <point x="296" y="28" type="line" smooth="yes"/>
      <point x="284" y="28"/>
      <point x="283" y="22"/>
      <point x="283" y="12" type="curve" smooth="yes"/>
      <point x="283" y="0"/>
      <point x="285" y="-5"/>
      <point x="299" y="-5" type="curve" smooth="yes"/>
      <point x="329" y="-5"/>
      <point x="349" y="-3"/>
      <point x="374" y="-3" type="curve" smooth="yes"/>
      <point x="403" y="-3"/>
      <point x="432" y="-5"/>
      <point x="451" y="-5" type="curve" smooth="yes"/>
      <point x="461" y="-5"/>
      <point x="464" y="2"/>
      <point x="464" y="12" type="curve" smooth="yes"/>
      <point x="464" y="22"/>
      <point x="464" y="28"/>
      <point x="451" y="28" type="curve" smooth="yes"/>
      <point x="415" y="28" type="line" smooth="yes"/>
      <point x="413" y="28"/>
      <point x="413" y="75"/>
      <point x="413" y="124" type="curve" smooth="yes"/>
      <point x="413" y="236" type="line" smooth="yes"/>
      <point x="413" y="296"/>
      <point x="407" y="306"/>
      <point x="407" y="313" type="curve" smooth="yes"/>
      <point x="407" y="315"/>
      <point x="454" y="341"/>
      <point x="501" y="341" type="curve" smooth="yes"/>
      <point x="571" y="341"/>
      <point x="587" y="283"/>
      <point x="587" y="216" type="curve" smooth="yes"/>
      <point x="587" y="180"/>
      <point x="587" y="28"/>
      <point x="579" y="28" type="curve" smooth="yes"/>
      <point x="538" y="28" type="line" smooth="yes"/>
      <point x="527" y="28"/>
      <point x="523" y="23"/>
      <point x="523" y="12" type="curve" smooth="yes"/>
      <point x="523" y="1"/>
      <point x="524" y="-5"/>
      <point x="536" y="-5" type="curve" smooth="yes"/>
      <point x="566" y="-5"/>
      <point x="599" y="-3"/>
      <point x="624" y="-3" type="curve" smooth="yes"/>
      <point x="653" y="-3"/>
      <point x="684" y="-5"/>
      <point x="703" y="-5" type="curve" smooth="yes"/>
      <point x="716" y="-5"/>
      <point x="717" y="2"/>
      <point x="717" y="12" type="curve" smooth="yes"/>
      <point x="717" y="22"/>
      <point x="716" y="28"/>
      <point x="703" y="28" type="curve" smooth="yes"/>
      <point x="663" y="28" type="line" smooth="yes"/>
      <point x="662" y="28"/>
      <point x="661" y="45"/>
      <point x="661" y="70" type="curve" smooth="yes"/>
      <point x="661" y="80"/>
      <point x="663" y="202"/>
      <point x="663" y="240" type="curve" smooth="yes"/>
      <point x="663" y="327"/>
      <point x="635" y="389"/>
      <point x="536" y="389" type="curve" smooth="yes"/>
      <point x="470" y="389"/>
      <point x="402" y="340"/>
      <point x="399" y="340" type="curve" smooth="yes"/>
      <point x="396" y="340"/>
      <point x="386" y="391"/>
      <point x="310" y="391" type="curve" smooth="yes"/>
      <point x="252" y="391"/>
      <point x="197" y="356"/>
      <point x="167" y="335" type="curve"/>
      <point x="162" y="331"/>
      <point x="162" y="331"/>
      <point x="162" y="340" type="curve" smooth="yes"/>
      <point x="162" y="370" type="line" smooth="yes"/>
      <point x="162" y="381"/>
      <point x="162" y="384"/>
      <point x="150" y="384" type="curve" smooth="yes"/>
      <point x="145" y="384"/>
      <point x="84" y="381"/>
      <point x="43" y="379" type="curve" smooth="yes"/>
      <point x="29" y="378"/>
      <point x="29" y="379"/>
      <point x="26" y="369" type="curve" smooth="yes"/>
      <point x="24" y="362"/>
      <point x="21" y="353"/>
      <point x="21" y="350" type="curve" smooth="yes"/>
    </contour>
  </outline>
</glyph>
<glyph name="o" format="1">
  <advance width="446"/>
  <unicode hex="006F"/>
  <outline>
    <contour>
      <point x="27" y="73"/>
      <point x="110" y="-18"/>
      <point x="219" y="-18" type="curve" smooth="yes"/>
      <point x="345" y="-18"/>
      <point x="419" y="73"/>
      <point x="419" y="197" type="curve" smooth="yes"/>
      <point x="419" y="308"/>
      <point x="346" y="399"/>
      <point x="235" y="399" type="curve" smooth="yes"/>
      <point x="110" y="399"/>
      <point x="27" y="302"/>
      <point x="27" y="183" type="curve" smooth="yes"/>
    </contour>
    <contour>
      <point x="104" y="279"/>
      <point x="132" y="367"/>
      <point x="223" y="367" type="curve" smooth="yes"/>
      <point x="304" y="367"/>
      <point x="341" y="276"/>
      <point x="341" y="204" type="curve" smooth="yes"/>
      <point x="341" y="120"/>
      <point x="324" y="14"/>
      <point x="219" y="14" type="curve" smooth="yes"/>
      <point x="144" y="14"/>
      <point x="104" y="95"/>
      <point x="104" y="169" type="curve" smooth="yes"/>
    </contour>
  </outline>
</glyph>
<glyph name="p" format="1">
  <advance width="512"/>
  <unicode hex="0070"/>
  <outline>
    <contour>
      <point x="21" y="344"/>
      <point x="23" y="344"/>
      <point x="30" y="344" type="curve" smooth="yes"/>
      <point x="34" y="344"/>
      <point x="77" y="346"/>
      <point x="88" y="346" type="curve" smooth="yes"/>
      <point x="98" y="346"/>
      <point x="100" y="348"/>
      <point x="101" y="335" type="curve" smooth="yes"/>
      <point x="104" y="294"/>
      <point x="108" y="263"/>
      <point x="108" y="48" type="curve" smooth="yes"/>
      <point x="108" y="-94" type="line" smooth="yes"/>
      <point x="108" y="-159"/>
      <point x="108" y="-251"/>
      <point x="105" y="-251" type="curve" smooth="yes"/>
      <point x="51" y="-251" type="line" smooth="yes"/>
      <point x="39" y="-251"/>
      <point x="38" y="-257"/>
      <point x="38" y="-267" type="curve" smooth="yes"/>
      <point x="38" y="-278"/>
      <point x="39" y="-284"/>
      <point x="51" y="-284" type="curve" smooth="yes"/>
      <point x="81" y="-284"/>
      <point x="126" y="-282"/>
      <point x="151" y="-282" type="curve" smooth="yes"/>
      <point x="180" y="-282"/>
      <point x="240" y="-284"/>
      <point x="259" y="-284" type="curve" smooth="yes"/>
      <point x="272" y="-284"/>
      <point x="273" y="-276"/>
      <point x="273" y="-267" type="curve" smooth="yes"/>
      <point x="273" y="-257"/>
      <point x="273" y="-251"/>
      <point x="259" y="-251" type="curve" smooth="yes"/>
      <point x="189" y="-251" type="line" smooth="yes"/>
      <point x="186" y="-251"/>
      <point x="185" y="-220"/>
      <point x="184" y="-187" type="curve" smooth="yes"/>
      <point x="181" y="-8" type="line"/>
      <point x="181" y="2"/>
      <point x="181" y="5"/>
      <point x="183" y="5" type="curve" smooth="yes"/>
      <point x="186" y="5"/>
      <point x="225" y="-12"/>
      <point x="268" y="-12" type="curve" smooth="yes"/>
      <point x="401" y="-12"/>
      <point x="480" y="92"/>
      <point x="480" y="194" type="curve" smooth="yes"/>
      <point x="480" y="301"/>
      <point x="423" y="386"/>
      <point x="306" y="386" type="curve" smooth="yes"/>
      <point x="263" y="386"/>
      <point x="220" y="365"/>
      <point x="196" y="348" type="curve" smooth="yes"/>
      <point x="189" y="343"/>
      <point x="180" y="334"/>
      <point x="180" y="346" type="curve" smooth="yes"/>
      <point x="180" y="366" type="line" smooth="yes"/>
      <point x="180" y="381"/>
      <point x="175" y="383"/>
      <point x="166" y="383" type="curve" smooth="yes"/>
      <point x="162" y="383"/>
      <point x="97" y="379"/>
      <point x="30" y="377" type="curve" smooth="yes"/>
      <point x="26" y="377"/>
      <point x="21" y="349"/>
      <point x="21" y="348" type="curve" smooth="yes"/>
    </contour>
    <contour>
      <point x="181" y="306" type="line" smooth="yes"/>
      <point x="181" y="307"/>
      <point x="182" y="317"/>
      <point x="212" y="332" type="curve" smooth="yes"/>
      <point x="227" y="339"/>
      <point x="247" y="345"/>
      <point x="275" y="345" type="curve" smooth="yes"/>
      <point x="347" y="345"/>
      <point x="402" y="284"/>
      <point x="402" y="187" type="curve" smooth="yes"/>
      <point x="402" y="108"/>
      <point x="356" y="13"/>
      <point x="265" y="13" type="curve" smooth="yes"/>
      <point x="234" y="13"/>
      <point x="181" y="32"/>
      <point x="181" y="49" type="curve" smooth="yes"/>
    </contour>
  </outline>
</glyph>
<glyph name="q" format="1">
  <advance width="490"/>
  <unicode hex="0071"/>
  <outline>
    <contour>
      <point x="32" y="37"/>
      <point x="130" y="-16"/>
      <point x="209" y="-16" type="curve" smooth="yes"/>
      <point x="252" y="-16"/>
      <point x="296" y="-4"/>
      <point x="320" y="3" type="curve" smooth="yes"/>
      <point x="330" y="6"/>
      <point x="335" y="10"/>
      <point x="335" y="0" type="curve" smooth="yes"/>
      <point x="333" y="-230" type="line" smooth="yes"/>
      <point x="333" y="-258"/>
      <point x="325" y="-253"/>
      <point x="262" y="-259" type="curve" smooth="yes"/>
      <point x="251" y="-260"/>
      <point x="250" y="-267"/>
      <point x="250" y="-273" type="curve" smooth="yes"/>
      <point x="250" y="-286"/>
      <point x="250" y="-294"/>
      <point x="260" y="-294" type="curve" smooth="yes"/>
      <point x="266" y="-294"/>
      <point x="338" y="-283"/>
      <point x="425" y="-283" type="curve" smooth="yes"/>
      <point x="455" y="-283" type="line" smooth="yes"/>
      <point x="468" y="-283"/>
      <point x="468" y="-280"/>
      <point x="468" y="-266" type="curve" smooth="yes"/>
      <point x="468" y="-249"/>
      <point x="464" y="-248"/>
      <point x="452" y="-248" type="curve" smooth="yes"/>
      <point x="416" y="-248" type="line" smooth="yes"/>
      <point x="412" y="-248"/>
      <point x="412" y="-154"/>
      <point x="412" y="-88" type="curve" smooth="yes"/>
      <point x="412" y="77" type="line" smooth="yes"/>
      <point x="412" y="168"/>
      <point x="413" y="256"/>
      <point x="417" y="375" type="curve" smooth="yes"/>
      <point x="417" y="386"/>
      <point x="414" y="393"/>
      <point x="403" y="393" type="curve" smooth="yes"/>
      <point x="384" y="393"/>
      <point x="375" y="358"/>
      <point x="360" y="358" type="curve" smooth="yes"/>
      <point x="342" y="358"/>
      <point x="300" y="384"/>
      <point x="243" y="384" type="curve" smooth="yes"/>
      <point x="122" y="384"/>
      <point x="32" y="298"/>
      <point x="32" y="180" type="curve" smooth="yes"/>
    </contour>
    <contour>
      <point x="109" y="268"/>
      <point x="148" y="351"/>
      <point x="235" y="351" type="curve" smooth="yes"/>
      <point x="299" y="351"/>
      <point x="336" y="328"/>
      <point x="336" y="291" type="curve" smooth="yes"/>
      <point x="336" y="41" type="line" smooth="yes"/>
      <point x="336" y="30"/>
      <point x="281" y="22"/>
      <point x="250" y="22" type="curve" smooth="yes"/>
      <point x="160" y="22"/>
      <point x="109" y="111"/>
      <point x="109" y="191" type="curve" smooth="yes"/>
    </contour>
  </outline>
</glyph>
<glyph name="s" format="1">
  <advance width="337"/>
  <unicode hex="0073"/>
  <outline>
    <contour>
      <point x="32" y="15"/>
      <point x="100" y="-15"/>
      <point x="161" y="-15" type="curve" smooth="yes"/>
      <point x="236" y="-15"/>
      <point x="305" y="31"/>
      <point x="305" y="106" type="curve" smooth="yes"/>
      <point x="305" y="168"/>
      <point x="236" y="198"/>
      <point x="179" y="225" type="curve" smooth="yes"/>
      <point x="136" y="246"/>
      <point x="99" y="261"/>
      <point x="99" y="302" type="curve" smooth="yes"/>
      <point x="99" y="352"/>
      <point x="137" y="369"/>
      <point x="169" y="369" type="curve" smooth="yes"/>
      <point x="232" y="369"/>
      <point x="219" y="304"/>
      <point x="244" y="304" type="curve" smooth="yes"/>
      <point x="257" y="304"/>
      <point x="289" y="312"/>
      <point x="289" y="324" type="curve" smooth="yes"/>
      <point x="289" y="352"/>
      <point x="259" y="396"/>
      <point x="182" y="396" type="curve" smooth="yes"/>
      <point x="110" y="396"/>
      <point x="35" y="349"/>
      <point x="35" y="280" type="curve" smooth="yes"/>
      <point x="35" y="213"/>
      <point x="99" y="186"/>
      <point x="153" y="162" type="curve" smooth="yes"/>
      <point x="200" y="142"/>
      <point x="240" y="121"/>
      <point x="240" y="76" type="curve" smooth="yes"/>
      <point x="240" y="33"/>
      <point x="210" y="14"/>
      <point x="177" y="14" type="curve" smooth="yes"/>
      <point x="133" y="14"/>
      <point x="107" y="37"/>
      <point x="86" y="63" type="curve" smooth="yes"/>
      <point x="76" y="76"/>
      <point x="72" y="92"/>
      <point x="65" y="92" type="curve" smooth="yes"/>
      <point x="58" y="92"/>
      <point x="32" y="70"/>
      <point x="32" y="50" type="curve" smooth="yes"/>
    </contour>
  </outline>
</glyph>
<glyph name="t" format="1">
  <advance width="289"/>
  <unicode hex="0074"/>
  <outline>
    <contour>
      <point x="31" y="338"/>
      <point x="33" y="334"/>
      <point x="39" y="334" type="curve" smooth="yes"/>
      <point x="64" y="334" type="line" smooth="yes"/>
      <point x="73" y="334"/>
      <point x="75" y="315"/>
      <point x="75" y="276" type="curve" smooth="yes"/>
      <point x="75" y="247"/>
      <point x="73" y="131"/>
      <point x="73" y="59" type="curve" smooth="yes"/>
      <point x="73" y="28"/>
      <point x="90" y="-12"/>
      <point x="148" y="-12" type="curve" smooth="yes"/>
      <point x="183" y="-12"/>
      <point x="251" y="17"/>
      <point x="272" y="32" type="curve"/>
      <point x="277" y="36"/>
      <point x="277" y="37"/>
      <point x="277" y="42" type="curve" smooth="yes"/>
      <point x="277" y="48"/>
      <point x="276" y="57"/>
      <point x="272" y="57" type="curve" smooth="yes"/>
      <point x="262" y="57"/>
      <point x="229" y="41"/>
      <point x="190" y="41" type="curve" smooth="yes"/>
      <point x="147" y="41"/>
      <point x="145" y="69"/>
      <point x="145" y="100" type="curve" smooth="yes"/>
      <point x="145" y="292" type="line" smooth="yes"/>
      <point x="145" y="318"/>
      <point x="145" y="335"/>
      <point x="149" y="335" type="curve" smooth="yes"/>
      <point x="244" y="335" type="line" smooth="yes"/>
      <point x="253" y="335"/>
      <point x="256" y="339"/>
      <point x="260" y="353" type="curve"/>
      <point x="261" y="358"/>
      <point x="263" y="365"/>
      <point x="263" y="369" type="curve" smooth="yes"/>
      <point x="263" y="374"/>
      <point x="261" y="375"/>
      <point x="256" y="375" type="curve" smooth="yes"/>
      <point x="153" y="375" type="line" smooth="yes"/>
      <point x="145" y="375"/>
      <point x="145" y="375"/>
      <point x="145" y="382" type="curve" smooth="yes"/>
      <point x="145" y="398"/>
      <point x="151" y="475"/>
      <point x="151" y="478" type="curve" smooth="yes"/>
      <point x="151" y="485"/>
      <point x="148" y="490"/>
      <point x="140" y="490" type="curve" smooth="yes"/>
      <point x="135" y="490"/>
      <point x="131" y="487"/>
      <point x="127" y="481" type="curve" smooth="yes"/>
      <point x="36" y="354" type="line"/>
      <point x="33" y="351"/>
      <point x="31" y="348"/>
      <point x="31" y="344" type="curve" smooth="yes"/>
    </contour>
  </outline>
</glyph>
<glyph name="v" format="1">
  <advance width="461"/>
  <unicode hex="0076"/>
  <outline>
    <contour>
      <point x="22" y="358"/>
      <point x="23" y="352"/>
      <point x="35" y="352" type="curve" smooth="yes"/>
      <point x="53" y="352" type="line" smooth="yes"/>
      <point x="62" y="352"/>
      <point x="61" y="351"/>
      <point x="66" y="339" type="curve" smooth="yes"/>
      <point x="106" y="235"/>
      <point x="164" y="74"/>
      <point x="175" y="40" type="curve" smooth="yes"/>
      <point x="181" y="21"/>
      <point x="191" y="-28"/>
      <point x="208" y="-28" type="curve" smooth="yes"/>
      <point x="212" y="-28"/>
      <point x="217" y="-25"/>
      <point x="221" y="-20" type="curve"/>
      <point x="247" y="19"/>
      <point x="255" y="17"/>
      <point x="271" y="51" type="curve" smooth="yes"/>
      <point x="316" y="145"/>
      <point x="375" y="302"/>
      <point x="397" y="342" type="curve"/>
      <point x="402" y="350"/>
      <point x="402" y="352"/>
      <point x="408" y="352" type="curve" smooth="yes"/>
      <point x="427" y="352" type="line" smooth="yes"/>
      <point x="437" y="352"/>
      <point x="439" y="358"/>
      <point x="439" y="368" type="curve" smooth="yes"/>
      <point x="439" y="379"/>
      <point x="438" y="385"/>
      <point x="428" y="385" type="curve" smooth="yes"/>
      <point x="413" y="385"/>
      <point x="396" y="383"/>
      <point x="374" y="383" type="curve" smooth="yes"/>
      <point x="354" y="383"/>
      <point x="322" y="385"/>
      <point x="314" y="385" type="curve" smooth="yes"/>
      <point x="300" y="385"/>
      <point x="300" y="378"/>
      <point x="300" y="368" type="curve" smooth="yes"/>
      <point x="300" y="358"/>
      <point x="300" y="352"/>
      <point x="313" y="352" type="curve" smooth="yes"/>
      <point x="342" y="352" type="line" smooth="yes"/>
      <point x="346" y="352"/>
      <point x="349" y="349"/>
      <point x="349" y="339" type="curve" smooth="yes"/>
      <point x="349" y="308"/>
      <point x="279" y="140"/>
      <point x="255" y="83" type="curve"/>
      <point x="252" y="75"/>
      <point x="250" y="72"/>
      <point x="248" y="72" type="curve" smooth="yes"/>
      <point x="246" y="72"/>
      <point x="244" y="77"/>
      <point x="240" y="85" type="curve"/>
      <point x="211" y="150"/>
      <point x="148" y="337"/>
      <point x="146" y="347" type="curve"/>
      <point x="146" y="350"/>
      <point x="150" y="352"/>
      <point x="161" y="352" type="curve" smooth="yes"/>
      <point x="196" y="352" type="line" smooth="yes"/>
      <point x="205" y="352"/>
      <point x="206" y="358"/>
      <point x="206" y="368" type="curve" smooth="yes"/>
      <point x="206" y="379"/>
      <point x="206" y="385"/>
      <point x="195" y="385" type="curve" smooth="yes"/>
      <point x="177" y="385"/>
      <point x="130" y="383"/>
      <point x="105" y="383" type="curve" smooth="yes"/>
      <point x="76" y="383"/>
      <point x="54" y="385"/>
      <point x="35" y="385" type="curve" smooth="yes"/>
      <point x="23" y="385"/>
      <point x="22" y="377"/>
      <point x="22" y="368" type="curve" smooth="yes"/>
    </contour>
  </outline>
</glyph>
<glyph name="x" format="1">
  <advance width="468"/>
  <unicode hex="0078"/>
  <outline>
    <contour>
      <point x="22" y="0"/>
      <point x="22" y="-5"/>
      <point x="32" y="-5" type="curve" smooth="yes"/>
      <point x="47" y="-5"/>
      <point x="69" y="-3"/>
      <point x="94" y="-3" type="curve" smooth="yes"/>
      <point x="123" y="-3"/>
      <point x="144" y="-5"/>
      <point x="159" y="-5" type="curve" smooth="yes"/>
      <point x="173" y="-5"/>
      <point x="173" y="3"/>
      <point x="173" y="12" type="curve" smooth="yes"/>
      <point x="173" y="22"/>
      <point x="173" y="28"/>
      <point x="159" y="28" type="curve" smooth="yes"/>
      <point x="129" y="28" type="line" smooth="yes"/>
      <point x="114" y="28"/>
      <point x="115" y="33"/>
      <point x="123" y="45" type="curve"/>
      <point x="146" y="77"/>
      <point x="196" y="133"/>
      <point x="217" y="158" type="curve" smooth="yes"/>
      <point x="221" y="163"/>
      <point x="223" y="165"/>
      <point x="225" y="165" type="curve" smooth="yes"/>
      <point x="227" y="165"/>
      <point x="229" y="162"/>
      <point x="233" y="157" type="curve" smooth="yes"/>
      <point x="248" y="137"/>
      <point x="277" y="96"/>
      <point x="297" y="64" type="curve" smooth="yes"/>
      <point x="304" y="52"/>
      <point x="315" y="41"/>
      <point x="315" y="34" type="curve" smooth="yes"/>
      <point x="315" y="30"/>
      <point x="311" y="28"/>
      <point x="301" y="28" type="curve" smooth="yes"/>
      <point x="288" y="28" type="line" smooth="yes"/>
      <point x="276" y="28"/>
      <point x="275" y="22"/>
      <point x="275" y="12" type="curve" smooth="yes"/>
      <point x="275" y="1"/>
      <point x="275" y="-5"/>
      <point x="289" y="-5" type="curve" smooth="yes"/>
      <point x="295" y="-5"/>
      <point x="334" y="-3"/>
      <point x="359" y="-3" type="curve" smooth="yes"/>
      <point x="388" y="-3"/>
      <point x="420" y="-5"/>
      <point x="431" y="-5" type="curve" smooth="yes"/>
      <point x="444" y="-5"/>
      <point x="444" y="3"/>
      <point x="444" y="12" type="curve" smooth="yes"/>
      <point x="444" y="22"/>
      <point x="444" y="28"/>
      <point x="430" y="28" type="curve" smooth="yes"/>
      <point x="418" y="28" type="line" smooth="yes"/>
      <point x="410" y="28"/>
      <point x="409" y="28"/>
      <point x="400" y="40" type="curve" smooth="yes"/>
      <point x="373" y="74"/>
      <point x="309" y="162"/>
      <point x="284" y="197" type="curve" smooth="yes"/>
      <point x="278" y="205"/>
      <point x="276" y="208"/>
      <point x="276" y="210" type="curve" smooth="yes"/>
      <point x="276" y="212"/>
      <point x="278" y="214"/>
      <point x="284" y="220" type="curve" smooth="yes"/>
      <point x="305" y="241"/>
      <point x="349" y="287"/>
      <point x="389" y="324" type="curve" smooth="yes"/>
      <point x="405" y="339"/>
      <point x="413" y="352"/>
      <point x="433" y="352" type="curve" smooth="yes"/>
      <point x="445" y="352"/>
      <point x="446" y="358"/>
      <point x="446" y="368" type="curve" smooth="yes"/>
      <point x="446" y="380"/>
      <point x="445" y="385"/>
      <point x="434" y="385" type="curve" smooth="yes"/>
      <point x="426" y="385"/>
      <point x="406" y="383"/>
      <point x="377" y="383" type="curve" smooth="yes"/>
      <point x="350" y="383"/>
      <point x="325" y="385"/>
      <point x="320" y="385" type="curve" smooth="yes"/>
      <point x="306" y="385"/>
      <point x="306" y="378"/>
      <point x="306" y="368" type="curve" smooth="yes"/>
      <point x="306" y="358"/>
      <point x="306" y="352"/>
      <point x="319" y="352" type="curve" smooth="yes"/>
      <point x="335" y="352" type="line" smooth="yes"/>
      <point x="355" y="352"/>
      <point x="356" y="350"/>
      <point x="356" y="347" type="curve" smooth="yes"/>
      <point x="356" y="345"/>
      <point x="354" y="342"/>
      <point x="350" y="337" type="curve" smooth="yes"/>
      <point x="340" y="324"/>
      <point x="278" y="251"/>
      <point x="269" y="242" type="curve" smooth="yes"/>
      <point x="258" y="231"/>
      <point x="259" y="228"/>
      <point x="251" y="241" type="curve"/>
      <point x="188" y="333" type="line"/>
      <point x="183" y="339"/>
      <point x="180" y="346"/>
      <point x="180" y="348" type="curve" smooth="yes"/>
      <point x="180" y="352"/>
      <point x="185" y="352"/>
      <point x="200" y="352" type="curve" smooth="yes"/>
      <point x="211" y="352"/>
      <point x="211" y="358"/>
      <point x="211" y="368" type="curve" smooth="yes"/>
      <point x="211" y="379"/>
      <point x="210" y="385"/>
      <point x="199" y="385" type="curve" smooth="yes"/>
      <point x="192" y="385"/>
      <point x="162" y="383"/>
      <point x="137" y="383" type="curve" smooth="yes"/>
      <point x="108" y="383"/>
      <point x="65" y="385"/>
      <point x="56" y="385" type="curve" smooth="yes"/>
      <point x="42" y="385"/>
      <point x="42" y="377"/>
      <point x="42" y="368" type="curve" smooth="yes"/>
      <point x="42" y="358"/>
      <point x="42" y="352"/>
      <point x="56" y="352" type="curve" smooth="yes"/>
      <point x="78" y="352" type="line" smooth="yes"/>
      <point x="87" y="352"/>
      <point x="88" y="351"/>
      <point x="98" y="338" type="curve" smooth="yes"/>
      <point x="205" y="194" type="line" smooth="yes"/>
      <point x="210" y="187"/>
      <point x="209" y="186"/>
      <point x="202" y="179" type="curve" smooth="yes"/>
      <point x="82" y="56" type="line" smooth="yes"/>
      <point x="57" y="30"/>
      <point x="55" y="28"/>
      <point x="37" y="28" type="curve" smooth="yes"/>
      <point x="25" y="28"/>
      <point x="22" y="26"/>
      <point x="22" y="12" type="curve" smooth="yes"/>
    </contour>
  </outline>
</glyph>
<glyph name="braceleft" format="1">
  <advance width="307"/>
  <unicode hex="007B"/>
  <outline>
    <contour>
      <point x="37" y="238"/>
      <point x="114" y="297"/>
      <point x="114" y="132" type="curve" smooth="yes"/>
      <point x="114" y="52" type="line" smooth="yes"/>
      <point x="114" y="-81"/>
      <point x="116" y="-144"/>
      <point x="255" y="-144" type="curve" smooth="yes"/>
      <point x="266" y="-144"/>
      <point x="270" y="-141"/>
      <point x="270" y="-128" type="curve" smooth="yes"/>
      <point x="270" y="-113"/>
      <point x="263" y="-112"/>
      <point x="253" y="-112" type="curve" smooth="yes"/>
      <point x="202" y="-112"/>
      <point x="172" y="-99"/>
      <point x="172" y="-23" type="curve" smooth="yes"/>
      <point x="172" y="126" type="line" smooth="yes"/>
      <point x="172" y="213"/>
      <point x="169" y="251"/>
      <point x="112" y="270" type="curve" smooth="yes"/>
      <point x="102" y="273"/>
      <point x="101" y="274"/>
      <point x="112" y="278" type="curve" smooth="yes"/>
      <point x="169" y="297"/>
      <point x="172" y="335"/>
      <point x="172" y="422" type="curve" smooth="yes"/>
      <point x="172" y="571" type="line" smooth="yes"/>
      <point x="172" y="647"/>
      <point x="202" y="660"/>
      <point x="253" y="660" type="curve" smooth="yes"/>
      <point x="263" y="660"/>
      <point x="270" y="661"/>
      <point x="270" y="676" type="curve" smooth="yes"/>
      <point x="270" y="689"/>
      <point x="266" y="692"/>
      <point x="255" y="692" type="curve" smooth="yes"/>
      <point x="116" y="692"/>
      <point x="114" y="629"/>
      <point x="114" y="496" type="curve" smooth="yes"/>
      <point x="114" y="416" type="line" smooth="yes"/>
      <point x="114" y="251"/>
      <point x="37" y="310"/>
      <point x="37" y="274" type="curve" smooth="yes"/>
    </contour>
  </outline>
</glyph>
<glyph name="bar" format="1">
  <advance width="247"/>
  <unicode hex="007C"/>
  <outline>
    <contour>
      <point x="97" y="-187" type="line" smooth="yes"/>
      <point x="97" y="-208"/>
      <point x="98" y="-212"/>
      <point x="114" y="-212" type="curve" smooth="yes"/>
      <point x="135" y="-212" type="line" smooth="yes"/>
      <point x="150" y="-212"/>
      <point x="150" y="-201"/>
      <point x="150" y="-187" type="curve" smooth="yes"/>
      <point x="150" y="745" type="line" smooth="yes"/>
      <point x="150" y="764"/>
      <point x="144" y="765"/>
      <point x="125" y="765" type="curve" smooth="yes"/>
      <point x="118" y="765" type="line" smooth="yes"/>
      <point x="106" y="765"/>
      <point x="97" y="763"/>
      <point x="97" y="746" type="curve" smooth="yes"/>
    </contour>
  </outline>
</glyph>
<glyph name="braceright" format="1">
  <advance width="307"/>
  <unicode hex="007D"/>
  <outline>
    <contour>
      <point x="37" y="-141"/>
      <point x="41" y="-144"/>
      <point x="52" y="-144" type="curve" smooth="yes"/>
      <point x="191" y="-144"/>
      <point x="193" y="-81"/>
      <point x="193" y="52" type="curve" smooth="yes"/>
      <point x="193" y="132" type="line" smooth="yes"/>
      <point x="193" y="297"/>
      <point x="270" y="238"/>
      <point x="270" y="274" type="curve" smooth="yes"/>
      <point x="270" y="310"/>
      <point x="193" y="251"/>
      <point x="193" y="416" type="curve" smooth="yes"/>
      <point x="193" y="496" type="line" smooth="yes"/>
      <point x="193" y="629"/>
      <point x="191" y="692"/>
      <point x="52" y="692" type="curve" smooth="yes"/>
      <point x="41" y="692"/>
      <point x="37" y="689"/>
      <point x="37" y="676" type="curve" smooth="yes"/>
      <point x="37" y="661"/>
      <point x="44" y="660"/>
      <point x="54" y="660" type="curve" smooth="yes"/>
      <point x="105" y="660"/>
      <point x="135" y="647"/>
      <point x="135" y="571" type="curve" smooth="yes"/>
      <point x="135" y="422" type="line" smooth="yes"/>
      <point x="135" y="335"/>
      <point x="138" y="297"/>
      <point x="195" y="278" type="curve"/>
      <point x="207" y="273"/>
      <point x="208" y="275"/>
      <point x="195" y="270" type="curve"/>
      <point x="138" y="251"/>
      <point x="135" y="213"/>
      <point x="135" y="126" type="curve" smooth="yes"/>
      <point x="135" y="-23" type="line" smooth="yes"/>
      <point x="135" y="-99"/>
      <point x="105" y="-112"/>
      <point x="54" y="-112" type="curve" smooth="yes"/>
      <point x="44" y="-112"/>
      <point x="37" y="-113"/>
      <point x="37" y="-128" type="curve" smooth="yes"/>
    </contour>
  </outline>
</glyph>
<glyph name="exclamdown" format="1">
  <advance width="261"/>
  <unicode hex="00A1"/>
  <outline>
    <contour>
      <point x="77" y="587"/>
      <point x="118" y="565"/>
      <point x="137" y="565" type="curve" smooth="yes"/>
      <point x="156" y="565"/>
      <point x="184" y="605"/>
      <point x="184" y="627" type="curve" smooth="yes"/>
      <point x="184" y="644"/>
      <point x="151" y="676"/>
      <point x="122" y="676" type="curve" smooth="yes"/>
      <point x="109" y="676"/>
      <point x="77" y="647"/>
      <point x="77" y="615" type="curve" smooth="yes"/>
    </contour>
    <contour>
      <point x="89" y="-7"/>
      <point x="100" y="-11"/>
      <point x="123" y="-11" type="curve" smooth="yes"/>
      <point x="149" y="-11"/>
      <point x="167" y="-6"/>
      <point x="167" y="17" type="curve" smooth="yes"/>
      <point x="167" y="71"/>
      <point x="154" y="260"/>
      <point x="148" y="483" type="curve"/>
      <point x="148" y="493"/>
      <point x="139" y="496"/>
      <point x="132" y="496" type="curve" smooth="yes"/>
      <point x="125" y="496"/>
      <point x="115" y="493"/>
      <point x="115" y="483" type="curve"/>
      <point x="103" y="219"/>
      <point x="89" y="25"/>
      <point x="89" y="13" type="curve" smooth="yes"/>
    </contour>
  </outline>
</glyph>
<glyph name="cent" format="1">
  <advance width="407"/>
  <unicode hex="00A2"/>
  <outline>
    <contour>
      <point x="27" y="78"/>
      <point x="82" y="8"/>
      <point x="174" y="-9" type="curve" smooth="yes"/>
      <point x="186" y="-11"/>
      <point x="184" y="-10"/>
      <point x="184" y="-18" type="curve"/>
      <point x="179" y="-81"/>
      <point x="175" y="-124"/>
      <point x="175" y="-128" type="curve" smooth="yes"/>
      <point x="175" y="-132"/>
      <point x="184" y="-133"/>
      <point x="190" y="-133" type="curve" smooth="yes"/>
      <point x="198" y="-133" type="line" smooth="yes"/>
      <point x="202" y="-133"/>
      <point x="204" y="-82"/>
      <point x="210" y="-18" type="curve"/>
      <point x="211" y="-12"/>
      <point x="214" y="-13"/>
      <point x="219" y="-13" type="curve" smooth="yes"/>
      <point x="318" y="-13"/>
      <point x="380" y="50"/>
      <point x="380" y="56" type="curve" smooth="yes"/>
      <point x="380" y="63"/>
      <point x="375" y="67"/>
      <point x="370" y="67" type="curve" smooth="yes"/>
      <point x="365" y="67"/>
      <point x="318" y="37"/>
      <point x="249" y="37" type="curve" smooth="yes"/>
      <point x="239" y="37"/>
      <point x="230" y="38"/>
      <point x="221" y="40" type="curve" smooth="yes"/>
      <point x="216" y="41"/>
      <point x="217" y="42"/>
      <point x="217" y="48" type="curve"/>
      <point x="243" y="360" type="line"/>
      <point x="244" y="368"/>
      <point x="245" y="368"/>
      <point x="251" y="367" type="curve"/>
      <point x="291" y="358"/>
      <point x="295" y="320"/>
      <point x="309" y="280" type="curve"/>
      <point x="312" y="270"/>
      <point x="320" y="267"/>
      <point x="329" y="267" type="curve" smooth="yes"/>
      <point x="339" y="267"/>
      <point x="352" y="274"/>
      <point x="361" y="281" type="curve"/>
      <point x="370" y="287"/>
      <point x="372" y="294"/>
      <point x="372" y="303" type="curve" smooth="yes"/>
      <point x="372" y="351"/>
      <point x="315" y="392"/>
      <point x="257" y="401" type="curve"/>
      <point x="245" y="402"/>
      <point x="247" y="402"/>
      <point x="247" y="411" type="curve"/>
      <point x="249" y="437"/>
      <point x="254" y="489"/>
      <point x="254" y="491" type="curve" smooth="yes"/>
      <point x="254" y="495"/>
      <point x="244" y="496"/>
      <point x="237" y="496" type="curve" smooth="yes"/>
      <point x="229" y="496" type="line" smooth="yes"/>
      <point x="227" y="496"/>
      <point x="225" y="484"/>
      <point x="224" y="466" type="curve" smooth="yes"/>
      <point x="220" y="411" type="line"/>
      <point x="219" y="403"/>
      <point x="220" y="401"/>
      <point x="212" y="400" type="curve" smooth="yes"/>
      <point x="121" y="389"/>
      <point x="27" y="315"/>
      <point x="27" y="177" type="curve" smooth="yes"/>
    </contour>
    <contour>
      <point x="98" y="273"/>
      <point x="139" y="352"/>
      <point x="208" y="367" type="curve"/>
      <point x="212" y="367" type="line" smooth="yes"/>
      <point x="215" y="367"/>
      <point x="215" y="366"/>
      <point x="215" y="360" type="curve"/>
      <point x="190" y="52" type="line"/>
      <point x="190" y="50"/>
      <point x="190" y="48"/>
      <point x="183" y="51" type="curve"/>
      <point x="126" y="78"/>
      <point x="98" y="140"/>
      <point x="98" y="202" type="curve" smooth="yes"/>
    </contour>
  </outline>
</glyph>
<glyph name="sterling" format="1">
  <advance width="510"/>
  <unicode hex="00A3"/>
  <outline>
    <contour>
      <point x="37" y="-75"/>
      <point x="54" y="-83"/>
      <point x="68" y="-83" type="curve" smooth="yes"/>
      <point x="106" y="-83"/>
      <point x="115" y="-44"/>
      <point x="124" y="-19" type="curve" smooth="yes"/>
      <point x="130" y="-2"/>
      <point x="135" y="3"/>
      <point x="140" y="3" type="curve" smooth="yes"/>
      <point x="159" y="3"/>
      <point x="318" y="-11"/>
      <point x="373" y="-11" type="curve" smooth="yes"/>
      <point x="429" y="-11"/>
      <point x="488" y="40"/>
      <point x="488" y="101" type="curve" smooth="yes"/>
      <point x="488" y="134"/>
      <point x="459" y="159"/>
      <point x="440" y="159" type="curve" smooth="yes"/>
      <point x="422" y="159"/>
      <point x="404" y="133"/>
      <point x="404" y="124" type="curve" smooth="yes"/>
      <point x="404" y="112"/>
      <point x="448" y="90"/>
      <point x="448" y="73" type="curve" smooth="yes"/>
      <point x="448" y="46"/>
      <point x="428" y="39"/>
      <point x="399" y="39" type="curve" smooth="yes"/>
      <point x="356" y="39"/>
      <point x="283" y="56"/>
      <point x="230" y="56" type="curve" smooth="yes"/>
      <point x="196" y="56"/>
      <point x="168" y="46"/>
      <point x="153" y="39" type="curve" smooth="yes"/>
      <point x="151" y="38"/>
      <point x="148" y="37"/>
      <point x="150" y="41" type="curve"/>
      <point x="160" y="69"/>
      <point x="181" y="144"/>
      <point x="185" y="232" type="curve"/>
      <point x="186" y="244"/>
      <point x="188" y="245"/>
      <point x="194" y="245" type="curve" smooth="yes"/>
      <point x="321" y="245" type="line" smooth="yes"/>
      <point x="330" y="245"/>
      <point x="333" y="249"/>
      <point x="333" y="260" type="curve" smooth="yes"/>
      <point x="333" y="272"/>
      <point x="329" y="275"/>
      <point x="321" y="275" type="curve" smooth="yes"/>
      <point x="200" y="275" type="line" smooth="yes"/>
      <point x="185" y="275"/>
      <point x="185" y="277"/>
      <point x="185" y="290" type="curve" smooth="yes"/>
      <point x="185" y="460" type="line" smooth="yes"/>
      <point x="185" y="555"/>
      <point x="190" y="639"/>
      <point x="274" y="639" type="curve" smooth="yes"/>
      <point x="325" y="639"/>
      <point x="337" y="588"/>
      <point x="337" y="554" type="curve" smooth="yes"/>
      <point x="337" y="544"/>
      <point x="350" y="543"/>
      <point x="356" y="543" type="curve" smooth="yes"/>
      <point x="381" y="543"/>
      <point x="399" y="563"/>
      <point x="399" y="587" type="curve" smooth="yes"/>
      <point x="399" y="640"/>
      <point x="341" y="668"/>
      <point x="281" y="668" type="curve" smooth="yes"/>
      <point x="193" y="668"/>
      <point x="111" y="603"/>
      <point x="111" y="500" type="curve" smooth="yes"/>
      <point x="111" y="389"/>
      <point x="118" y="290"/>
      <point x="118" y="281" type="curve" smooth="yes"/>
      <point x="118" y="275"/>
      <point x="116" y="275"/>
      <point x="105" y="275" type="curve" smooth="yes"/>
      <point x="55" y="275" type="line" smooth="yes"/>
      <point x="48" y="275"/>
      <point x="44" y="272"/>
      <point x="44" y="261" type="curve" smooth="yes"/>
      <point x="44" y="248"/>
      <point x="48" y="245"/>
      <point x="56" y="245" type="curve" smooth="yes"/>
      <point x="111" y="245" type="line" smooth="yes"/>
      <point x="117" y="245"/>
      <point x="119" y="244"/>
      <point x="120" y="232" type="curve" smooth="yes"/>
      <point x="122" y="196"/>
      <point x="123" y="162"/>
      <point x="123" y="128" type="curve" smooth="yes"/>
      <point x="123" y="90"/>
      <point x="121" y="59"/>
      <point x="119" y="23" type="curve"/>
      <point x="119" y="17"/>
      <point x="119" y="15"/>
      <point x="106" y="6" type="curve" smooth="yes"/>
      <point x="77" y="-15"/>
      <point x="37" y="-30"/>
      <point x="37" y="-56" type="curve" smooth="yes"/>
    </contour>
  </outline>
</glyph>
<glyph name="yen" format="1">
  <advance width="597"/>
  <unicode hex="00A5"/>
  <outline>
    <contour>
      <point x="7" y="637"/>
      <point x="13" y="636"/>
      <point x="25" y="636" type="curve" smooth="yes"/>
      <point x="54" y="636" type="line" smooth="yes"/>
      <point x="61" y="636"/>
      <point x="151" y="476"/>
      <point x="209" y="372" type="curve"/>
      <point x="87" y="372" type="line" smooth="yes"/>
      <point x="81" y="372"/>
      <point x="81" y="362"/>
      <point x="81" y="358" type="curve" smooth="yes"/>
      <point x="81" y="354"/>
      <point x="81" y="342"/>
      <point x="87" y="342" type="curve" smooth="yes"/>
      <point x="226" y="342" type="line"/>
      <point x="253" y="293" type="line" smooth="yes"/>
      <point x="257" y="286"/>
      <point x="260" y="282"/>
      <point x="260" y="271" type="curve" smooth="yes"/>
      <point x="260" y="250" type="line"/>
      <point x="87" y="250" type="line" smooth="yes"/>
      <point x="81" y="250"/>
      <point x="81" y="240"/>
      <point x="81" y="236" type="curve" smooth="yes"/>
      <point x="81" y="232"/>
      <point x="81" y="220"/>
      <point x="87" y="220" type="curve" smooth="yes"/>
      <point x="260" y="220" type="line"/>
      <point x="260" y="118"/>
      <point x="258" y="30"/>
      <point x="250" y="30" type="curve" smooth="yes"/>
      <point x="199" y="30" type="line" smooth="yes"/>
      <point x="183" y="30"/>
      <point x="180" y="29"/>
      <point x="180" y="15" type="curve" smooth="yes"/>
      <point x="180" y="-2"/>
      <point x="181" y="-6"/>
      <point x="195" y="-6" type="curve" smooth="yes"/>
      <point x="209" y="-6"/>
      <point x="267" y="-3"/>
      <point x="309" y="-3" type="curve" smooth="yes"/>
      <point x="368" y="-3"/>
      <point x="406" y="-6"/>
      <point x="429" y="-6" type="curve" smooth="yes"/>
      <point x="441" y="-6"/>
      <point x="443" y="-1"/>
      <point x="443" y="14" type="curve" smooth="yes"/>
      <point x="443" y="26"/>
      <point x="441" y="30"/>
      <point x="429" y="30" type="curve" smooth="yes"/>
      <point x="360" y="30" type="line" smooth="yes"/>
      <point x="355" y="30"/>
      <point x="352" y="126"/>
      <point x="351" y="220" type="curve"/>
      <point x="528" y="220" type="line" smooth="yes"/>
      <point x="534" y="220"/>
      <point x="534" y="231"/>
      <point x="534" y="235" type="curve" smooth="yes"/>
      <point x="534" y="239"/>
      <point x="534" y="250"/>
      <point x="528" y="250" type="curve" smooth="yes"/>
      <point x="351" y="250" type="line"/>
      <point x="351" y="313" type="line" smooth="yes"/>
      <point x="351" y="316"/>
      <point x="351" y="318"/>
      <point x="354" y="322" type="curve"/>
      <point x="366" y="342" type="line"/>
      <point x="528" y="342" type="line" smooth="yes"/>
      <point x="534" y="342"/>
      <point x="534" y="353"/>
      <point x="534" y="357" type="curve" smooth="yes"/>
      <point x="534" y="361"/>
      <point x="534" y="372"/>
      <point x="528" y="372" type="curve" smooth="yes"/>
      <point x="384" y="372" type="line"/>
      <point x="439" y="467"/>
      <point x="533" y="636"/>
      <point x="537" y="636" type="curve" smooth="yes"/>
      <point x="571" y="636" type="line" smooth="yes"/>
      <point x="583" y="636"/>
      <point x="590" y="637"/>
      <point x="590" y="654" type="curve" smooth="yes"/>
      <point x="590" y="670"/>
      <point x="584" y="672"/>
      <point x="571" y="672" type="curve" smooth="yes"/>
      <point x="555" y="672"/>
      <point x="538" y="669"/>
      <point x="495" y="669" type="curve" smooth="yes"/>
      <point x="453" y="669"/>
      <point x="429" y="672"/>
      <point x="417" y="672" type="curve" smooth="yes"/>
      <point x="403" y="672"/>
      <point x="400" y="668"/>
      <point x="400" y="651" type="curve" smooth="yes"/>
      <point x="400" y="637"/>
      <point x="405" y="636"/>
      <point x="421" y="636" type="curve" smooth="yes"/>
      <point x="473" y="636" type="line" smooth="yes"/>
      <point x="474" y="636"/>
      <point x="475" y="635"/>
      <point x="475" y="633" type="curve" smooth="yes"/>
      <point x="475" y="611"/>
      <point x="363" y="401"/>
      <point x="336" y="349" type="curve" smooth="yes"/>
      <point x="328" y="334"/>
      <point x="328" y="337"/>
      <point x="320" y="352" type="curve" smooth="yes"/>
      <point x="291" y="408"/>
      <point x="199" y="574"/>
      <point x="178" y="625" type="curve" smooth="yes"/>
      <point x="174" y="635"/>
      <point x="173" y="636"/>
      <point x="186" y="636" type="curve" smooth="yes"/>
      <point x="245" y="636" type="line" smooth="yes"/>
      <point x="261" y="636"/>
      <point x="263" y="637"/>
      <point x="263" y="651" type="curve" smooth="yes"/>
      <point x="263" y="668"/>
      <point x="260" y="672"/>
      <point x="249" y="672" type="curve" smooth="yes"/>
      <point x="232" y="672"/>
      <point x="188" y="669"/>
      <point x="131" y="669" type="curve" smooth="yes"/>
      <point x="73" y="669"/>
      <point x="38" y="672"/>
      <point x="25" y="672" type="curve" smooth="yes"/>
      <point x="12" y="672"/>
      <point x="7" y="671"/>
      <point x="7" y="654" type="curve" smooth="yes"/>
    </contour>
  </outline>
</glyph>
<glyph name="brokenbar" format="1">
  <advance width="247"/>
  <unicode hex="00A6"/>
  <outline>
    <contour>
      <point x="97" y="-187" type="line" smooth="yes"/>
      <point x="97" y="-208"/>
      <point x="98" y="-212"/>
      <point x="114" y="-212" type="curve" smooth="yes"/>
      <point x="135" y="-212" type="line" smooth="yes"/>
      <point x="150" y="-212"/>
      <point x="150" y="-201"/>
      <point x="150" y="-187" type="curve" smooth="yes"/>
      <point x="150" y="189" type="line" smooth="yes"/>
      <point x="150" y="202"/>
      <point x="144" y="206"/>
      <point x="136" y="206" type="curve" smooth="yes"/>
      <point x="111" y="206" type="line" smooth="yes"/>
      <point x="103" y="206"/>
      <point x="97" y="202"/>
      <point x="97" y="189" type="curve" smooth="yes"/>
    </contour>
    <contour>
      <point x="97" y="379" type="line" smooth="yes"/>
      <point x="97" y="360"/>
      <point x="101" y="357"/>
      <point x="115" y="357" type="curve" smooth="yes"/>
      <point x="133" y="357" type="line" smooth="yes"/>
      <point x="145" y="357"/>
      <point x="150" y="361"/>
      <point x="150" y="379" type="curve" smooth="yes"/>
      <point x="150" y="745" type="line" smooth="yes"/>
      <point x="150" y="764"/>
      <point x="144" y="765"/>
      <point x="125" y="765" type="curve" smooth="yes"/>
      <point x="118" y="765" type="line" smooth="yes"/>
      <point x="106" y="765"/>
      <point x="97" y="763"/>
      <point x="97" y="746" type="curve" smooth="yes"/>
    </contour>
  </outline>
</glyph>
<glyph name="section" format="1">
  <advance width="381"/>
  <unicode hex="00A7"/>
  <outline>
    <contour>
      <point x="37" y="151"/>
      <point x="277" y="-57"/>
      <point x="277" y="-132" type="curve" smooth="yes"/>
      <point x="277" y="-166"/>
      <point x="247" y="-181"/>
      <point x="208" y="-181" type="curve" smooth="yes"/>
      <point x="180" y="-181"/>
      <point x="151" y="-174"/>
      <point x="137" y="-169" type="curve" smooth="yes"/>
      <point x="123" y="-164"/>
      <point x="110" y="-156"/>
      <point x="93" y="-156" type="curve" smooth="yes"/>
      <point x="77" y="-156"/>
      <point x="62" y="-167"/>
      <point x="62" y="-182" type="curve" smooth="yes"/>
      <point x="62" y="-225"/>
      <point x="125" y="-229"/>
      <point x="168" y="-229" type="curve" smooth="yes"/>
      <point x="261" y="-229"/>
      <point x="317" y="-177"/>
      <point x="317" y="-102" type="curve" smooth="yes"/>
      <point x="317" y="-68"/>
      <point x="290" y="-14"/>
      <point x="275" y="13" type="curve" smooth="yes"/>
      <point x="271" y="20"/>
      <point x="269" y="25"/>
      <point x="269" y="26" type="curve" smooth="yes"/>
      <point x="269" y="27"/>
      <point x="270" y="30"/>
      <point x="277" y="36" type="curve"/>
      <point x="299" y="53"/>
      <point x="344" y="76"/>
      <point x="344" y="132" type="curve" smooth="yes"/>
      <point x="344" y="316"/>
      <point x="101" y="509"/>
      <point x="101" y="594" type="curve" smooth="yes"/>
      <point x="101" y="627"/>
      <point x="128" y="634"/>
      <point x="149" y="634" type="curve" smooth="yes"/>
      <point x="200" y="634"/>
      <point x="217" y="601"/>
      <point x="265" y="601" type="curve" smooth="yes"/>
      <point x="285" y="601"/>
      <point x="305" y="608"/>
      <point x="305" y="632" type="curve" smooth="yes"/>
      <point x="305" y="670"/>
      <point x="231" y="680"/>
      <point x="188" y="680" type="curve" smooth="yes"/>
      <point x="109" y="680"/>
      <point x="60" y="626"/>
      <point x="60" y="556" type="curve" smooth="yes"/>
      <point x="60" y="512"/>
      <point x="92" y="462"/>
      <point x="105" y="444" type="curve"/>
      <point x="109" y="439"/>
      <point x="112" y="433"/>
      <point x="107" y="430" type="curve"/>
      <point x="88" y="416"/>
      <point x="37" y="373"/>
      <point x="37" y="310" type="curve" smooth="yes"/>
    </contour>
    <contour>
      <point x="82" y="379"/>
      <point x="102" y="401"/>
      <point x="115" y="411" type="curve"/>
      <point x="123" y="418"/>
      <point x="123" y="417"/>
      <point x="129" y="409" type="curve" smooth="yes"/>
      <point x="162" y="363"/>
      <point x="298" y="187"/>
      <point x="298" y="102" type="curve" smooth="yes"/>
      <point x="298" y="87"/>
      <point x="281" y="67"/>
      <point x="267" y="54" type="curve" smooth="yes"/>
      <point x="259" y="47"/>
      <point x="256" y="46"/>
      <point x="255" y="46" type="curve" smooth="yes"/>
      <point x="254" y="46"/>
      <point x="253" y="46"/>
      <point x="247" y="54" type="curve" smooth="yes"/>
      <point x="212" y="102"/>
      <point x="82" y="285"/>
      <point x="82" y="357" type="curve" smooth="yes"/>
    </contour>
  </outline>
</glyph>
<glyph name="dieresis" format="1">
  <advance width="400"/>
  <unicode hex="00A8"/>
  <outline>
    <contour>
      <point x="66" y="503"/>
      <point x="88" y="489"/>
      <point x="110" y="489" type="curve" smooth="yes"/>
      <point x="139" y="489"/>
      <point x="174" y="512"/>
      <point x="174" y="548" type="curve" smooth="yes"/>
      <point x="174" y="579"/>
      <point x="151" y="591"/>
      <point x="129" y="591" type="curve" smooth="yes"/>
      <point x="104" y="591"/>
      <point x="66" y="571"/>
      <point x="66" y="533" type="curve" smooth="yes"/>
    </contour>
    <contour>
      <point x="226" y="503"/>
      <point x="248" y="489"/>
      <point x="270" y="489" type="curve" smooth="yes"/>
      <point x="299" y="489"/>
      <point x="334" y="512"/>
      <point x="334" y="548" type="curve" smooth="yes"/>
      <point x="334" y="579"/>
      <point x="311" y="591"/>
      <point x="289" y="591" type="curve" smooth="yes"/>
      <point x="264" y="591"/>
      <point x="226" y="571"/>
      <point x="226" y="533" type="curve" smooth="yes"/>
    </contour>
  </outline>
</glyph>
<glyph name="copyright" format="1">
  <advance width="843"/>
  <unicode hex="00A9"/>
  <outline>
    <contour>
      <point x="51" y="-20"/>
      <point x="211" y="-186"/>
      <point x="420" y="-186" type="curve" smooth="yes"/>
      <point x="629" y="-186"/>
      <point x="789" y="-20"/>
      <point x="789" y="189" type="curve" smooth="yes"/>
      <point x="789" y="400"/>
      <point x="629" y="564"/>
      <point x="420" y="564" type="curve" smooth="yes"/>
      <point x="211" y="564"/>
      <point x="51" y="398"/>
      <point x="51" y="189" type="curve" smooth="yes"/>
    </contour>
    <contour>
      <point x="91" y="375"/>
      <point x="234" y="526"/>
      <point x="420" y="526" type="curve" smooth="yes"/>
      <point x="606" y="526"/>
      <point x="749" y="375"/>
      <point x="749" y="189" type="curve" smooth="yes"/>
      <point x="749" y="3"/>
      <point x="606" y="-148"/>
      <point x="420" y="-148" type="curve" smooth="yes"/>
      <point x="234" y="-148"/>
      <point x="91" y="3"/>
      <point x="91" y="189" type="curve" smooth="yes"/>
    </contour>
    <contour>
      <point x="193" y="45"/>
      <point x="302" y="-30"/>
      <point x="421" y="-30" type="curve" smooth="yes"/>
      <point x="534" y="-30"/>
      <point x="595" y="24"/>
      <point x="595" y="34" type="curve" smooth="yes"/>
      <point x="595" y="37"/>
      <point x="585" y="56"/>
      <point x="580" y="56" type="curve" smooth="yes"/>
      <point x="572" y="56"/>
      <point x="536" y="6"/>
      <point x="439" y="6" type="curve" smooth="yes"/>
      <point x="342" y="6"/>
      <point x="264" y="92"/>
      <point x="264" y="199" type="curve" smooth="yes"/>
      <point x="264" y="314"/>
      <point x="329" y="398"/>
      <point x="420" y="398" type="curve" smooth="yes"/>
      <point x="502" y="398"/>
      <point x="565" y="332"/>
      <point x="565" y="324" type="curve" smooth="yes"/>
      <point x="565" y="318"/>
      <point x="562" y="269"/>
      <point x="562" y="266" type="curve" smooth="yes"/>
      <point x="562" y="259"/>
      <point x="572" y="258"/>
      <point x="583" y="258" type="curve" smooth="yes"/>
      <point x="592" y="258"/>
      <point x="596" y="261"/>
      <point x="596" y="270" type="curve" smooth="yes"/>
      <point x="596" y="303"/>
      <point x="598" y="391"/>
      <point x="598" y="397" type="curve" smooth="yes"/>
      <point x="598" y="406"/>
      <point x="593" y="406"/>
      <point x="583" y="406" type="curve" smooth="yes"/>
      <point x="573" y="406"/>
      <point x="565" y="406"/>
      <point x="565" y="397" type="curve" smooth="yes"/>
      <point x="565" y="378" type="line" smooth="yes"/>
      <point x="565" y="374"/>
      <point x="563" y="374"/>
      <point x="559" y="377" type="curve"/>
      <point x="546" y="386"/>
      <point x="502" y="424"/>
      <point x="425" y="424" type="curve" smooth="yes"/>
      <point x="295" y="424"/>
      <point x="193" y="337"/>
      <point x="193" y="201" type="curve" smooth="yes"/>
    </contour>
  </outline>
</glyph>
<glyph name="guillemotleft" format="1">
  <advance width="408"/>
  <unicode hex="00AB"/>
  <outline>
    <contour>
      <point x="47" y="185"/>
      <point x="75" y="162"/>
      <point x="103" y="136" type="curve" smooth="yes"/>
      <point x="141" y="101"/>
      <point x="180" y="58"/>
      <point x="185" y="58" type="curve" smooth="yes"/>
      <point x="187" y="58"/>
      <point x="202" y="69"/>
      <point x="202" y="73" type="curve" smooth="yes"/>
      <point x="202" y="83"/>
      <point x="139" y="183"/>
      <point x="139" y="193" type="curve" smooth="yes"/>
      <point x="139" y="203"/>
      <point x="202" y="305"/>
      <point x="202" y="313" type="curve" smooth="yes"/>
      <point x="202" y="315"/>
      <point x="187" y="328"/>
      <point x="185" y="328" type="curve" smooth="yes"/>
      <point x="181" y="328"/>
      <point x="141" y="285"/>
      <point x="103" y="250" type="curve" smooth="yes"/>
      <point x="75" y="223"/>
      <point x="47" y="201"/>
      <point x="47" y="193" type="curve" smooth="yes"/>
    </contour>
    <contour>
      <point x="197" y="185"/>
      <point x="225" y="162"/>
      <point x="253" y="136" type="curve" smooth="yes"/>
      <point x="291" y="101"/>
      <point x="330" y="58"/>
      <point x="335" y="58" type="curve" smooth="yes"/>
      <point x="337" y="58"/>
      <point x="352" y="69"/>
      <point x="352" y="73" type="curve" smooth="yes"/>
      <point x="352" y="83"/>
      <point x="289" y="183"/>
      <point x="289" y="193" type="curve" smooth="yes"/>
      <point x="289" y="203"/>
      <point x="352" y="305"/>
      <point x="352" y="313" type="curve" smooth="yes"/>
      <point x="352" y="315"/>
      <point x="337" y="328"/>
      <point x="335" y="328" type="curve" smooth="yes"/>
      <point x="331" y="328"/>
      <point x="291" y="285"/>
      <point x="253" y="250" type="curve" smooth="yes"/>
      <point x="225" y="223"/>
      <point x="197" y="201"/>
      <point x="197" y="193" type="curve" smooth="yes"/>
    </contour>
  </outline>
</glyph>
<glyph name="logicalnot" format="1">
  <advance width="527"/>
  <unicode hex="00AC"/>
  <outline>
    <contour>
      <point x="28" y="196"/>
      <point x="29" y="185"/>
      <point x="50" y="185" type="curve" smooth="yes"/>
      <point x="426" y="185" type="line" smooth="yes"/>
      <point x="442" y="185"/>
      <point x="449" y="182"/>
      <point x="449" y="171" type="curve" smooth="yes"/>
      <point x="449" y="60" type="line" smooth="yes"/>
      <point x="449" y="38"/>
      <point x="462" y="37"/>
      <point x="481" y="37" type="curve" smooth="yes"/>
      <point x="495" y="37"/>
      <point x="500" y="44"/>
      <point x="500" y="55" type="curve" smooth="yes"/>
      <point x="500" y="213" type="line" smooth="yes"/>
      <point x="500" y="231"/>
      <point x="495" y="235"/>
      <point x="477" y="235" type="curve" smooth="yes"/>
      <point x="50" y="235" type="line" smooth="yes"/>
      <point x="41" y="235"/>
      <point x="28" y="234"/>
      <point x="28" y="215" type="curve" smooth="yes"/>
    </contour>
  </outline>
</glyph>
<glyph name="macron" format="1">
  <advance width="400"/>
  <unicode hex="00AF"/>
  <outline>
    <contour>
      <point x="95" y="518" type="line" smooth="yes"/>
      <point x="95" y="508"/>
      <point x="96" y="506"/>
      <point x="103" y="506" type="curve" smooth="yes"/>
      <point x="296" y="506" type="line" smooth="yes"/>
      <point x="305" y="506"/>
      <point x="305" y="508"/>
      <point x="305" y="517" type="curve" smooth="yes"/>
      <point x="305" y="542" type="line" smooth="yes"/>
      <point x="305" y="550"/>
      <point x="303" y="552"/>
      <point x="296" y="552" type="curve" smooth="yes"/>
      <point x="103" y="552" type="line" smooth="yes"/>
      <point x="95" y="552"/>
      <point x="95" y="550"/>
      <point x="95" y="541" type="curve" smooth="yes"/>
    </contour>
  </outline>
</glyph>
<glyph name="plusminus" format="1">
  <advance width="527"/>
  <unicode hex="00B1"/>
  <outline>
    <contour>
      <point x="28" y="73"/>
      <point x="36" y="70"/>
      <point x="48" y="70" type="curve" smooth="yes"/>
      <point x="475" y="70" type="line" smooth="yes"/>
      <point x="497" y="70"/>
      <point x="499" y="82"/>
      <point x="499" y="97" type="curve" smooth="yes"/>
      <point x="499" y="113"/>
      <point x="495" y="120"/>
      <point x="478" y="120" type="curve" smooth="yes"/>
      <point x="49" y="120" type="line" smooth="yes"/>
      <point x="29" y="120"/>
      <point x="28" y="108"/>
      <point x="28" y="90" type="curve" smooth="yes"/>
    </contour>
    <contour>
      <point x="28" y="309"/>
      <point x="29" y="298"/>
      <point x="48" y="298" type="curve" smooth="yes"/>
      <point x="225" y="298" type="line" smooth="yes"/>
      <point x="239" y="298"/>
      <point x="238" y="296"/>
      <point x="238" y="284" type="curve" smooth="yes"/>
      <point x="238" y="152" type="line" smooth="yes"/>
      <point x="238" y="136"/>
      <point x="249" y="135"/>
      <point x="269" y="135" type="curve" smooth="yes"/>
      <point x="279" y="135"/>
      <point x="288" y="137"/>
      <point x="288" y="152" type="curve" smooth="yes"/>
      <point x="288" y="284" type="line" smooth="yes"/>
      <point x="288" y="294"/>
      <point x="289" y="298"/>
      <point x="297" y="298" type="curve" smooth="yes"/>
      <point x="475" y="298" type="line" smooth="yes"/>
      <point x="498" y="298"/>
      <point x="499" y="311"/>
      <point x="499" y="331" type="curve" smooth="yes"/>
      <point x="499" y="346"/>
      <point x="490" y="349"/>
      <point x="480" y="349" type="curve" smooth="yes"/>
      <point x="297" y="349" type="line" smooth="yes"/>
      <point x="289" y="349"/>
      <point x="288" y="352"/>
      <point x="288" y="357" type="curve" smooth="yes"/>
      <point x="288" y="493" type="line" smooth="yes"/>
      <point x="288" y="509"/>
      <point x="281" y="513"/>
      <point x="257" y="513" type="curve" smooth="yes"/>
      <point x="247" y="513"/>
      <point x="238" y="508"/>
      <point x="238" y="495" type="curve" smooth="yes"/>
      <point x="238" y="356" type="line" smooth="yes"/>
      <point x="238" y="351"/>
      <point x="238" y="349"/>
      <point x="230" y="349" type="curve" smooth="yes"/>
      <point x="49" y="349" type="line" smooth="yes"/>
      <point x="32" y="349"/>
      <point x="28" y="336"/>
      <point x="28" y="324" type="curve" smooth="yes"/>
    </contour>
  </outline>
</glyph>
<glyph name="acute" format="1">
  <advance width="400"/>
  <unicode hex="00B4"/>
  <outline>
    <contour>
      <point x="182" y="447"/>
      <point x="186" y="446"/>
      <point x="189" y="446" type="curve" smooth="yes"/>
      <point x="205" y="446" type="line" smooth="yes"/>
      <point x="210" y="446"/>
      <point x="212" y="449"/>
      <point x="215" y="453" type="curve" smooth="yes"/>
      <point x="297" y="560" type="line" smooth="yes"/>
      <point x="302" y="567"/>
      <point x="305" y="574"/>
      <point x="305" y="582" type="curve" smooth="yes"/>
      <point x="305" y="600"/>
      <point x="290" y="615"/>
      <point x="266" y="615" type="curve" smooth="yes"/>
      <point x="250" y="615"/>
      <point x="239" y="605"/>
      <point x="233" y="588" type="curve" smooth="yes"/>
      <point x="184" y="458" type="line"/>
      <point x="183" y="456"/>
      <point x="182" y="453"/>
      <point x="182" y="451" type="curve" smooth="yes"/>
    </contour>
  </outline>
</glyph>
<glyph name="periodcentered" format="1">
  <advance width="147"/>
  <unicode hex="00B7"/>
  <outline>
    <contour>
      <point x="22" y="303"/>
      <point x="44" y="289"/>
      <point x="66" y="289" type="curve" smooth="yes"/>
      <point x="95" y="289"/>
      <point x="130" y="312"/>
      <point x="130" y="348" type="curve" smooth="yes"/>
      <point x="130" y="379"/>
      <point x="107" y="391"/>
      <point x="85" y="391" type="curve" smooth="yes"/>
      <point x="60" y="391"/>
      <point x="22" y="371"/>
      <point x="22" y="333" type="curve" smooth="yes"/>
    </contour>
  </outline>
</glyph>
<glyph name="cedilla" format="1">
  <advance width="400"/>
  <unicode hex="00B8"/>
  <outline>
    <contour>
      <point x="114" y="-199"/>
      <point x="115" y="-203"/>
      <point x="117" y="-205" type="curve"/>
      <point x="128" y="-215"/>
      <point x="159" y="-231"/>
      <point x="200" y="-231" type="curve" smooth="yes"/>
      <point x="268" y="-231"/>
      <point x="309" y="-181"/>
      <point x="309" y="-136" type="curve" smooth="yes"/>
      <point x="309" y="-103"/>
      <point x="279" y="-65"/>
      <point x="221" y="-65" type="curve" smooth="yes"/>
      <point x="214" y="-65"/>
      <point x="203" y="-66"/>
      <point x="195" y="-68" type="curve" smooth="yes"/>
      <point x="187" y="-70"/>
      <point x="187" y="-70"/>
      <point x="188" y="-66" type="curve"/>
      <point x="212" y="0" type="line"/>
      <point x="189" y="0" type="line"/>
      <point x="178" y="-26"/>
      <point x="148" y="-103"/>
      <point x="148" y="-107" type="curve" smooth="yes"/>
      <point x="148" y="-110"/>
      <point x="156" y="-115"/>
      <point x="159" y="-115" type="curve" smooth="yes"/>
      <point x="164" y="-115"/>
      <point x="177" y="-106"/>
      <point x="196" y="-106" type="curve" smooth="yes"/>
      <point x="237" y="-106"/>
      <point x="248" y="-125"/>
      <point x="248" y="-148" type="curve" smooth="yes"/>
      <point x="248" y="-185"/>
      <point x="230" y="-201"/>
      <point x="185" y="-201" type="curve" smooth="yes"/>
      <point x="152" y="-201"/>
      <point x="130" y="-186"/>
      <point x="124" y="-186" type="curve" smooth="yes"/>
      <point x="116" y="-186"/>
      <point x="114" y="-191"/>
      <point x="114" y="-196" type="curve" smooth="yes"/>
    </contour>
  </outline>
</glyph>
<glyph name="guillemotright" format="1">
  <advance width="408"/>
  <unicode hex="00BB"/>
  <outline>
    <contour>
      <point x="56" y="71"/>
      <point x="71" y="58"/>
      <point x="73" y="58" type="curve" smooth="yes"/>
      <point x="77" y="58"/>
      <point x="117" y="101"/>
      <point x="155" y="136" type="curve" smooth="yes"/>
      <point x="183" y="163"/>
      <point x="211" y="185"/>
      <point x="211" y="193" type="curve" smooth="yes"/>
      <point x="211" y="201"/>
      <point x="183" y="224"/>
      <point x="155" y="250" type="curve" smooth="yes"/>
      <point x="117" y="285"/>
      <point x="78" y="328"/>
      <point x="73" y="328" type="curve" smooth="yes"/>
      <point x="71" y="328"/>
      <point x="56" y="317"/>
      <point x="56" y="313" type="curve" smooth="yes"/>
      <point x="56" y="303"/>
      <point x="119" y="203"/>
      <point x="119" y="193" type="curve" smooth="yes"/>
      <point x="119" y="183"/>
      <point x="56" y="81"/>
      <point x="56" y="73" type="curve" smooth="yes"/>
    </contour>
    <contour>
      <point x="206" y="71"/>
      <point x="221" y="58"/>
      <point x="223" y="58" type="curve" smooth="yes"/>
      <point x="227" y="58"/>
      <point x="267" y="101"/>
      <point x="305" y="136" type="curve" smooth="yes"/>
      <point x="333" y="163"/>
      <point x="361" y="185"/>
      <point x="361" y="193" type="curve" smooth="yes"/>
      <point x="361" y="201"/>
      <point x="333" y="224"/>
      <point x="305" y="250" type="curve" smooth="yes"/>
      <point x="267" y="285"/>
      <point x="228" y="328"/>
      <point x="223" y="328" type="curve" smooth="yes"/>
      <point x="221" y="328"/>
      <point x="206" y="317"/>
      <point x="206" y="313" type="curve" smooth="yes"/>
      <point x="206" y="303"/>
      <point x="269" y="203"/>
      <point x="269" y="193" type="curve" smooth="yes"/>
      <point x="269" y="183"/>
      <point x="206" y="81"/>
      <point x="206" y="73" type="curve" smooth="yes"/>
    </contour>
  </outline>
</glyph>
<glyph name="onequarter" format="1">
  <advance width="774"/>
  <unicode hex="00BC"/>
  <outline>
    <contour>
      <point x="446" y="127"/>
      <point x="464" y="128"/>
      <point x="466" y="128" type="curve" smooth="yes"/>
      <point x="619" y="128" type="line" smooth="yes"/>
      <point x="626" y="128"/>
      <point x="626" y="128"/>
      <point x="626" y="123" type="curve" smooth="yes"/>
      <point x="623" y="-2" type="line" smooth="yes"/>
      <point x="623" y="-5"/>
      <point x="623" y="-13"/>
      <point x="632" y="-13" type="curve"/>
      <point x="675" y="-9" type="line"/>
      <point x="681" y="-9"/>
      <point x="684" y="-2"/>
      <point x="684" y="2" type="curve" smooth="yes"/>
      <point x="684" y="125" type="line" smooth="yes"/>
      <point x="684" y="128"/>
      <point x="684" y="128"/>
      <point x="687" y="128" type="curve" smooth="yes"/>
      <point x="733" y="128" type="line" smooth="yes"/>
      <point x="742" y="128"/>
      <point x="748" y="132"/>
      <point x="748" y="141" type="curve" smooth="yes"/>
      <point x="748" y="163" type="line" smooth="yes"/>
      <point x="748" y="169"/>
      <point x="746" y="176"/>
      <point x="738" y="176" type="curve" smooth="yes"/>
      <point x="687" y="176" type="line" smooth="yes"/>
      <point x="683" y="176"/>
      <point x="683" y="176"/>
      <point x="683" y="180" type="curve" smooth="yes"/>
      <point x="683" y="392" type="line" smooth="yes"/>
      <point x="683" y="403"/>
      <point x="678" y="417"/>
      <point x="667" y="417" type="curve" smooth="yes"/>
      <point x="657" y="417"/>
      <point x="650" y="405"/>
      <point x="634" y="391" type="curve"/>
      <point x="627" y="386"/>
      <point x="616" y="379"/>
      <point x="607" y="369" type="curve" smooth="yes"/>
      <point x="555" y="313"/>
      <point x="485" y="227"/>
      <point x="457" y="178" type="curve" smooth="yes"/>
      <point x="446" y="159"/>
      <point x="446" y="145"/>
      <point x="446" y="138" type="curve" smooth="yes"/>
    </contour>
    <contour>
      <point x="492" y="176" type="line"/>
      <point x="515" y="215"/>
      <point x="598" y="317"/>
      <point x="626" y="347" type="curve"/>
      <point x="626" y="181" type="line" smooth="yes"/>
      <point x="626" y="177"/>
      <point x="626" y="176"/>
      <point x="622" y="176" type="curve" smooth="yes"/>
    </contour>
    <contour>
      <point x="195" y="-16"/>
      <point x="205" y="-16"/>
      <point x="218" y="-16" type="curve" smooth="yes"/>
      <point x="235" y="-16"/>
      <point x="236" y="-16"/>
      <point x="244" y="-3" type="curve" smooth="yes"/>
      <point x="654" y="657" type="line"/>
      <point x="655" y="659"/>
      <point x="658" y="664"/>
      <point x="658" y="665" type="curve" smooth="yes"/>
      <point x="658" y="670"/>
      <point x="646" y="671"/>
      <point x="635" y="671" type="curve" smooth="yes"/>
      <point x="613" y="671"/>
      <point x="615" y="667"/>
      <point x="610" y="660" type="curve"/>
      <point x="201" y="2" type="line"/>
      <point x="199" y="-2"/>
      <point x="195" y="-8"/>
      <point x="195" y="-10" type="curve" smooth="yes"/>
    </contour>
    <contour>
      <point x="92" y="250"/>
      <point x="95" y="245"/>
      <point x="106" y="245" type="curve" smooth="yes"/>
      <point x="123" y="245"/>
      <point x="153" y="247"/>
      <point x="200" y="247" type="curve" smooth="yes"/>
      <point x="242" y="247"/>
      <point x="261" y="245"/>
      <point x="271" y="245" type="curve" smooth="yes"/>
      <point x="282" y="245"/>
      <point x="282" y="255"/>
      <point x="282" y="264" type="curve" smooth="yes"/>
      <point x="282" y="272"/>
      <point x="281" y="277"/>
      <point x="272" y="277" type="curve" smooth="yes"/>
      <point x="230" y="277" type="line"/>
      <point x="230" y="296" type="line" smooth="yes"/>
      <point x="230" y="415"/>
      <point x="231" y="514"/>
      <point x="231" y="642" type="curve" smooth="yes"/>
      <point x="231" y="656"/>
      <point x="231" y="659"/>
      <point x="221" y="659" type="curve" smooth="yes"/>
      <point x="216" y="659"/>
      <point x="206" y="653"/>
      <point x="106" y="648" type="curve"/>
      <point x="100" y="648"/>
      <point x="92" y="648"/>
      <point x="92" y="639" type="curve" smooth="yes"/>
      <point x="92" y="627" type="line" smooth="yes"/>
      <point x="92" y="625"/>
      <point x="94" y="618"/>
      <point x="103" y="618" type="curve" smooth="yes"/>
      <point x="107" y="618"/>
      <point x="161" y="621"/>
      <point x="163" y="621" type="curve" smooth="yes"/>
      <point x="167" y="621"/>
      <point x="167" y="533"/>
      <point x="167" y="465" type="curve" smooth="yes"/>
      <point x="167" y="324" type="line" smooth="yes"/>
      <point x="167" y="314"/>
      <point x="167" y="289"/>
      <point x="166" y="277" type="curve"/>
      <point x="109" y="277" type="line" smooth="yes"/>
      <point x="98" y="277"/>
      <point x="92" y="275"/>
      <point x="92" y="264" type="curve" smooth="yes"/>
    </contour>
  </outline>
</glyph>
<glyph name="onehalf" format="1">
  <advance width="844"/>
  <unicode hex="00BD"/>
  <outline>
    <contour>
      <point x="521" y="313"/>
      <point x="530" y="305"/>
      <point x="537" y="305" type="curve" smooth="yes"/>
      <point x="549" y="305"/>
      <point x="580" y="366"/>
      <point x="644" y="366" type="curve" smooth="yes"/>
      <point x="691" y="366"/>
      <point x="715" y="326"/>
      <point x="715" y="286" type="curve" smooth="yes"/>
      <point x="715" y="192"/>
      <point x="613" y="114"/>
      <point x="576" y="82" type="curve"/>
      <point x="571" y="78"/>
      <point x="531" y="19"/>
      <point x="531" y="9" type="curve" smooth="yes"/>
      <point x="531" y="1"/>
      <point x="538" y="-3"/>
      <point x="547" y="-3" type="curve" smooth="yes"/>
      <point x="777" y="-3" type="line" smooth="yes"/>
      <point x="784" y="-3"/>
      <point x="791" y="-1"/>
      <point x="792" y="5" type="curve"/>
      <point x="795" y="32"/>
      <point x="805" y="97"/>
      <point x="805" y="102" type="curve" smooth="yes"/>
      <point x="805" y="109"/>
      <point x="796" y="110"/>
      <point x="791" y="110" type="curve"/>
      <point x="783" y="111"/>
      <point x="778" y="109"/>
      <point x="778" y="102" type="curve"/>
      <point x="777" y="93"/>
      <point x="774" y="64"/>
      <point x="772" y="53" type="curve"/>
      <point x="595" y="53" type="line"/>
      <point x="599" y="58"/>
      <point x="609" y="69"/>
      <point x="615" y="73" type="curve"/>
      <point x="656" y="103"/>
      <point x="776" y="194"/>
      <point x="776" y="294" type="curve" smooth="yes"/>
      <point x="776" y="342"/>
      <point x="742" y="414"/>
      <point x="657" y="414" type="curve" smooth="yes"/>
      <point x="578" y="414"/>
      <point x="521" y="335"/>
      <point x="521" y="321" type="curve" smooth="yes"/>
    </contour>
    <contour>
      <point x="195" y="-16"/>
      <point x="205" y="-16"/>
      <point x="218" y="-16" type="curve" smooth="yes"/>
      <point x="235" y="-16"/>
      <point x="236" y="-16"/>
      <point x="244" y="-3" type="curve" smooth="yes"/>
      <point x="654" y="657" type="line"/>
      <point x="655" y="659"/>
      <point x="658" y="664"/>
      <point x="658" y="665" type="curve" smooth="yes"/>
      <point x="658" y="670"/>
      <point x="646" y="671"/>
      <point x="635" y="671" type="curve" smooth="yes"/>
      <point x="613" y="671"/>
      <point x="615" y="667"/>
      <point x="610" y="660" type="curve"/>
      <point x="201" y="2" type="line"/>
      <point x="199" y="-2"/>
      <point x="195" y="-8"/>
      <point x="195" y="-10" type="curve" smooth="yes"/>
    </contour>
    <contour>
      <point x="92" y="250"/>
      <point x="95" y="245"/>
      <point x="106" y="245" type="curve" smooth="yes"/>
      <point x="123" y="245"/>
      <point x="153" y="247"/>
      <point x="200" y="247" type="curve" smooth="yes"/>
      <point x="242" y="247"/>
      <point x="261" y="245"/>
      <point x="271" y="245" type="curve" smooth="yes"/>
      <point x="282" y="245"/>
      <point x="282" y="255"/>
      <point x="282" y="264" type="curve" smooth="yes"/>
      <point x="282" y="272"/>
      <point x="281" y="277"/>
      <point x="272" y="277" type="curve" smooth="yes"/>
      <point x="230" y="277" type="line"/>
      <point x="230" y="296" type="line" smooth="yes"/>
      <point x="230" y="415"/>
      <point x="231" y="514"/>
      <point x="231" y="642" type="curve" smooth="yes"/>
      <point x="231" y="656"/>
      <point x="231" y="659"/>
      <point x="221" y="659" type="curve" smooth="yes"/>
      <point x="216" y="659"/>
      <point x="206" y="653"/>
      <point x="106" y="648" type="curve"/>
      <point x="100" y="648"/>
      <point x="92" y="648"/>
      <point x="92" y="639" type="curve" smooth="yes"/>
      <point x="92" y="627" type="line" smooth="yes"/>
      <point x="92" y="625"/>
      <point x="94" y="618"/>
      <point x="103" y="618" type="curve" smooth="yes"/>
      <point x="107" y="618"/>
      <point x="161" y="621"/>
      <point x="163" y="621" type="curve" smooth="yes"/>
      <point x="167" y="621"/>
      <point x="167" y="533"/>
      <point x="167" y="465" type="curve" smooth="yes"/>
      <point x="167" y="324" type="line" smooth="yes"/>
      <point x="167" y="314"/>
      <point x="167" y="289"/>
      <point x="166" y="277" type="curve"/>
      <point x="109" y="277" type="line" smooth="yes"/>
      <point x="98" y="277"/>
      <point x="92" y="275"/>
      <point x="92" y="264" type="curve" smooth="yes"/>
    </contour>
  </outline>
</glyph>
<glyph name="threequarters" format="1">
  <advance width="774"/>
  <unicode hex="00BE"/>
  <outline>
    <contour>
      <point x="446" y="127"/>
      <point x="464" y="128"/>
      <point x="466" y="128" type="curve" smooth="yes"/>
      <point x="619" y="128" type="line" smooth="yes"/>
      <point x="626" y="128"/>
      <point x="626" y="128"/>
      <point x="626" y="123" type="curve" smooth="yes"/>
      <point x="623" y="-2" type="line" smooth="yes"/>
      <point x="623" y="-5"/>
      <point x="623" y="-13"/>
      <point x="632" y="-13" type="curve"/>
      <point x="675" y="-9" type="line"/>
      <point x="681" y="-9"/>
      <point x="684" y="-2"/>
      <point x="684" y="2" type="curve" smooth="yes"/>
      <point x="684" y="125" type="line" smooth="yes"/>
      <point x="684" y="128"/>
      <point x="684" y="128"/>
      <point x="687" y="128" type="curve" smooth="yes"/>
      <point x="733" y="128" type="line" smooth="yes"/>
      <point x="742" y="128"/>
      <point x="748" y="132"/>
      <point x="748" y="141" type="curve" smooth="yes"/>
      <point x="748" y="163" type="line" smooth="yes"/>
      <point x="748" y="169"/>
      <point x="746" y="176"/>
      <point x="738" y="176" type="curve" smooth="yes"/>
      <point x="687" y="176" type="line" smooth="yes"/>
      <point x="683" y="176"/>
      <point x="683" y="176"/>
      <point x="683" y="180" type="curve" smooth="yes"/>
      <point x="683" y="392" type="line" smooth="yes"/>
      <point x="683" y="403"/>
      <point x="678" y="417"/>
      <point x="667" y="417" type="curve" smooth="yes"/>
      <point x="657" y="417"/>
      <point x="650" y="405"/>
      <point x="634" y="391" type="curve"/>
      <point x="627" y="386"/>
      <point x="616" y="379"/>
      <point x="607" y="369" type="curve" smooth="yes"/>
      <point x="555" y="313"/>
      <point x="485" y="227"/>
      <point x="457" y="178" type="curve" smooth="yes"/>
      <point x="446" y="159"/>
      <point x="446" y="145"/>
      <point x="446" y="138" type="curve" smooth="yes"/>
    </contour>
    <contour>
      <point x="492" y="176" type="line"/>
      <point x="515" y="215"/>
      <point x="598" y="317"/>
      <point x="626" y="347" type="curve"/>
      <point x="626" y="181" type="line" smooth="yes"/>
      <point x="626" y="177"/>
      <point x="626" y="176"/>
      <point x="622" y="176" type="curve" smooth="yes"/>
    </contour>
    <contour>
      <point x="195" y="-16"/>
      <point x="205" y="-16"/>
      <point x="218" y="-16" type="curve" smooth="yes"/>
      <point x="235" y="-16"/>
      <point x="236" y="-16"/>
      <point x="244" y="-3" type="curve" smooth="yes"/>
      <point x="654" y="657" type="line"/>
      <point x="655" y="659"/>
      <point x="658" y="664"/>
      <point x="658" y="665" type="curve" smooth="yes"/>
      <point x="658" y="670"/>
      <point x="646" y="671"/>
      <point x="635" y="671" type="curve" smooth="yes"/>
      <point x="613" y="671"/>
      <point x="615" y="667"/>
      <point x="610" y="660" type="curve"/>
      <point x="201" y="2" type="line"/>
      <point x="199" y="-2"/>
      <point x="195" y="-8"/>
      <point x="195" y="-10" type="curve" smooth="yes"/>
    </contour>
    <contour>
      <point x="62" y="244"/>
      <point x="132" y="239"/>
      <point x="165" y="239" type="curve" smooth="yes"/>
      <point x="235" y="239"/>
      <point x="318" y="290"/>
      <point x="318" y="370" type="curve" smooth="yes"/>
      <point x="318" y="431"/>
      <point x="264" y="465"/>
      <point x="195" y="470" type="curve"/>
      <point x="239" y="488"/>
      <point x="289" y="514"/>
      <point x="289" y="572" type="curve" smooth="yes"/>
      <point x="289" y="625"/>
      <point x="240" y="664"/>
      <point x="175" y="664" type="curve" smooth="yes"/>
      <point x="115" y="664"/>
      <point x="66" y="621"/>
      <point x="66" y="608" type="curve" smooth="yes"/>
      <point x="66" y="600"/>
      <point x="74" y="592"/>
      <point x="82" y="592" type="curve" smooth="yes"/>
      <point x="95" y="592"/>
      <point x="114" y="625"/>
      <point x="166" y="625" type="curve" smooth="yes"/>
      <point x="201" y="625"/>
      <point x="226" y="605"/>
      <point x="226" y="562" type="curve" smooth="yes"/>
      <point x="226" y="503"/>
      <point x="196" y="485"/>
      <point x="116" y="468" type="curve"/>
      <point x="112" y="467"/>
      <point x="97" y="465"/>
      <point x="97" y="452" type="curve" smooth="yes"/>
      <point x="97" y="447"/>
      <point x="98" y="428"/>
      <point x="113" y="428" type="curve" smooth="yes"/>
      <point x="121" y="428"/>
      <point x="165" y="432"/>
      <point x="186" y="432" type="curve" smooth="yes"/>
      <point x="240" y="432"/>
      <point x="257" y="402"/>
      <point x="257" y="356" type="curve" smooth="yes"/>
      <point x="257" y="306"/>
      <point x="220" y="269"/>
      <point x="180" y="269" type="curve" smooth="yes"/>
      <point x="165" y="269"/>
      <point x="148" y="285"/>
      <point x="127" y="293" type="curve" smooth="yes"/>
      <point x="117" y="297"/>
      <point x="109" y="300"/>
      <point x="97" y="300" type="curve" smooth="yes"/>
      <point x="78" y="300"/>
      <point x="62" y="289"/>
      <point x="62" y="268" type="curve" smooth="yes"/>
    </contour>
  </outline>
</glyph>
<glyph name="questiondown" format="1">
  <advance width="364"/>
  <unicode hex="00BF"/>
  <outline>
    <contour>
      <point x="27" y="53"/>
      <point x="203" y="26"/>
      <point x="276" y="14" type="curve" smooth="yes"/>
      <point x="281" y="13"/>
      <point x="282" y="-11"/>
      <point x="295" y="-11" type="curve" smooth="yes"/>
      <point x="305" y="-11"/>
      <point x="307" y="3"/>
      <point x="307" y="9" type="curve" smooth="yes"/>
      <point x="307" y="54" type="line" smooth="yes"/>
      <point x="307" y="71"/>
      <point x="294" y="70"/>
      <point x="281" y="72" type="curve" smooth="yes"/>
      <point x="126" y="92"/>
      <point x="56" y="165"/>
      <point x="56" y="255" type="curve" smooth="yes"/>
      <point x="56" y="288"/>
      <point x="61" y="340"/>
      <point x="140" y="340" type="curve" smooth="yes"/>
      <point x="200" y="340" type="line" smooth="yes"/>
      <point x="218" y="340"/>
      <point x="227" y="342"/>
      <point x="228" y="361" type="curve" smooth="yes"/>
      <point x="229" y="375"/>
      <point x="230" y="504"/>
      <point x="230" y="517" type="curve" smooth="yes"/>
      <point x="230" y="532"/>
      <point x="229" y="533"/>
      <point x="211" y="533" type="curve" smooth="yes"/>
      <point x="198" y="533"/>
      <point x="196" y="532"/>
      <point x="196" y="524" type="curve"/>
      <point x="194" y="492"/>
      <point x="191" y="463"/>
      <point x="188" y="431" type="curve" smooth="yes"/>
      <point x="187" y="417"/>
      <point x="183" y="417"/>
      <point x="166" y="417" type="curve" smooth="yes"/>
      <point x="52" y="417"/>
      <point x="27" y="331"/>
      <point x="27" y="240" type="curve" smooth="yes"/>
    </contour>
    <contour>
      <point x="164" y="581"/>
      <point x="205" y="559"/>
      <point x="224" y="559" type="curve" smooth="yes"/>
      <point x="243" y="559"/>
      <point x="271" y="599"/>
      <point x="271" y="621" type="curve" smooth="yes"/>
      <point x="271" y="638"/>
      <point x="238" y="670"/>
      <point x="209" y="670" type="curve" smooth="yes"/>
      <point x="196" y="670"/>
      <point x="164" y="641"/>
      <point x="164" y="609" type="curve" smooth="yes"/>
    </contour>
  </outline>
</glyph>
<glyph name="Atilde" format="1">
  <advance width="698"/>
  <unicode hex="00C3"/>
  <outline>
    <contour>
      <point x="263" y="743"/>
      <point x="265" y="743"/>
      <point x="273" y="743" type="curve" smooth="yes"/>
      <point x="285" y="743"/>
      <point x="284" y="744"/>
      <point x="286" y="751" type="curve"/>
      <point x="291" y="765"/>
      <point x="298" y="780"/>
      <point x="318" y="780" type="curve" smooth="yes"/>
      <point x="348" y="780"/>
      <point x="369" y="743"/>
      <point x="406" y="743" type="curve" smooth="yes"/>
      <point x="434" y="743"/>
      <point x="456" y="769"/>
      <point x="469" y="803" type="curve" smooth="yes"/>
      <point x="472" y="811"/>
      <point x="476" y="824"/>
      <point x="476" y="832" type="curve" smooth="yes"/>
      <point x="476" y="836"/>
      <point x="469" y="836"/>
      <point x="463" y="836" type="curve" smooth="yes"/>
      <point x="454" y="836"/>
      <point x="455" y="836"/>
      <point x="452" y="827" type="curve"/>
      <point x="447" y="810"/>
      <point x="437" y="794"/>
      <point x="418" y="794" type="curve" smooth="yes"/>
      <point x="394" y="794"/>
      <point x="363" y="832"/>
      <point x="330" y="832" type="curve" smooth="yes"/>
      <point x="312" y="832"/>
      <point x="287" y="814"/>
      <point x="271" y="775" type="curve" smooth="yes"/>
      <point x="268" y="768"/>
      <point x="263" y="754"/>
      <point x="263" y="748" type="curve" smooth="yes"/>
    </contour>
    <contour>
      <point x="27" y="-2"/>
      <point x="27" y="-6"/>
      <point x="41" y="-6" type="curve" smooth="yes"/>
      <point x="53" y="-6"/>
      <point x="76" y="-3"/>
      <point x="117" y="-3" type="curve" smooth="yes"/>
      <point x="161" y="-3"/>
      <point x="200" y="-6"/>
      <point x="211" y="-6" type="curve" smooth="yes"/>
      <point x="223" y="-6"/>
      <point x="223" y="-1"/>
      <point x="223" y="14" type="curve" smooth="yes"/>
      <point x="223" y="26"/>
      <point x="223" y="30"/>
      <point x="211" y="30" type="curve" smooth="yes"/>
      <point x="134" y="30" type="line" smooth="yes"/>
      <point x="134" y="30"/>
      <point x="133" y="30"/>
      <point x="133" y="31" type="curve"/>
      <point x="134" y="52"/>
      <point x="189" y="193"/>
      <point x="214" y="256" type="curve" smooth="yes"/>
      <point x="219" y="269"/>
      <point x="220" y="272"/>
      <point x="235" y="272" type="curve" smooth="yes"/>
      <point x="437" y="272" type="line" smooth="yes"/>
      <point x="447" y="272"/>
      <point x="447" y="271"/>
      <point x="452" y="255" type="curve"/>
      <point x="471" y="202"/>
      <point x="522" y="51"/>
      <point x="522" y="31" type="curve" smooth="yes"/>
      <point x="522" y="30"/>
      <point x="521" y="30"/>
      <point x="521" y="30" type="curve" smooth="yes"/>
      <point x="466" y="30" type="line" smooth="yes"/>
      <point x="450" y="30"/>
      <point x="449" y="29"/>
      <point x="449" y="15" type="curve" smooth="yes"/>
      <point x="449" y="-2"/>
      <point x="450" y="-6"/>
      <point x="462" y="-6" type="curve" smooth="yes"/>
      <point x="485" y="-6"/>
      <point x="547" y="-3"/>
      <point x="577" y="-3" type="curve" smooth="yes"/>
      <point x="607" y="-3"/>
      <point x="655" y="-6"/>
      <point x="670" y="-6" type="curve" smooth="yes"/>
      <point x="680" y="-6"/>
      <point x="681" y="-1"/>
      <point x="681" y="14" type="curve" smooth="yes"/>
      <point x="681" y="26"/>
      <point x="680" y="30"/>
      <point x="670" y="30" type="curve" smooth="yes"/>
      <point x="635" y="30" type="line" smooth="yes"/>
      <point x="628" y="30"/>
      <point x="555" y="233"/>
      <point x="515" y="344" type="curve" smooth="yes"/>
      <point x="395" y="681" type="line"/>
      <point x="394" y="686"/>
      <point x="389" y="690"/>
      <point x="383" y="690" type="curve" smooth="yes"/>
      <point x="374" y="690"/>
      <point x="367" y="674"/>
      <point x="361" y="661" type="curve" smooth="yes"/>
      <point x="350" y="635"/>
      <point x="333" y="626"/>
      <point x="325" y="605" type="curve"/>
      <point x="219" y="359" type="line" smooth="yes"/>
      <point x="206" y="328"/>
      <point x="84" y="30"/>
      <point x="75" y="30" type="curve" smooth="yes"/>
      <point x="45" y="30" type="line" smooth="yes"/>
      <point x="29" y="30"/>
      <point x="27" y="29"/>
      <point x="27" y="15" type="curve" smooth="yes"/>
    </contour>
    <contour>
      <point x="234" y="307"/>
      <point x="236" y="312"/>
      <point x="239" y="319" type="curve" smooth="yes"/>
      <point x="337" y="559" type="line" smooth="yes"/>
      <point x="340" y="567"/>
      <point x="342" y="571"/>
      <point x="344" y="571" type="curve" smooth="yes"/>
      <point x="345" y="571"/>
      <point x="346" y="569"/>
      <point x="349" y="559" type="curve"/>
      <point x="432" y="316" type="line"/>
      <point x="434" y="311"/>
      <point x="435" y="308"/>
      <point x="435" y="306" type="curve" smooth="yes"/>
      <point x="435" y="303"/>
      <point x="433" y="302"/>
      <point x="426" y="302" type="curve" smooth="yes"/>
      <point x="247" y="302" type="line" smooth="yes"/>
      <point x="234" y="302"/>
      <point x="234" y="304"/>
      <point x="234" y="305" type="curve" smooth="yes"/>
    </contour>
  </outline>
</glyph>
<glyph name="AE" format="1">
  <advance width="973"/>
  <unicode hex="00C6"/>
  <outline>
    <contour>
      <point x="17" y="-2"/>
      <point x="18" y="-6"/>
      <point x="30" y="-6" type="curve" smooth="yes"/>
      <point x="37" y="-6"/>
      <point x="75" y="-3"/>
      <point x="105" y="-3" type="curve" smooth="yes"/>
      <point x="135" y="-3"/>
      <point x="169" y="-6"/>
      <point x="192" y="-6" type="curve" smooth="yes"/>
      <point x="204" y="-6"/>
      <point x="206" y="-1"/>
      <point x="206" y="14" type="curve" smooth="yes"/>
      <point x="206" y="26"/>
      <point x="204" y="30"/>
      <point x="192" y="30" type="curve" smooth="yes"/>
      <point x="128" y="30" type="line" smooth="yes"/>
      <point x="128" y="30"/>
      <point x="127" y="30"/>
      <point x="127" y="31" type="curve" smooth="yes"/>
      <point x="127" y="40"/>
      <point x="257" y="272"/>
      <point x="264" y="272" type="curve" smooth="yes"/>
      <point x="463" y="272" type="line" smooth="yes"/>
      <point x="481" y="272"/>
      <point x="490" y="272"/>
      <point x="490" y="260" type="curve" smooth="yes"/>
      <point x="490" y="102" type="line" smooth="yes"/>
      <point x="490" y="54"/>
      <point x="488" y="30"/>
      <point x="486" y="30" type="curve" smooth="yes"/>
      <point x="423" y="30" type="line" smooth="yes"/>
      <point x="407" y="30"/>
      <point x="405" y="28"/>
      <point x="405" y="15" type="curve" smooth="yes"/>
      <point x="405" y="-2"/>
      <point x="405" y="-6"/>
      <point x="419" y="-6" type="curve" smooth="yes"/>
      <point x="442" y="-6"/>
      <point x="513" y="-3"/>
      <point x="543" y="-3" type="curve" smooth="yes"/>
      <point x="573" y="-3"/>
      <point x="895" y="-6"/>
      <point x="918" y="-6" type="curve" smooth="yes"/>
      <point x="927" y="-6"/>
      <point x="938" y="-4"/>
      <point x="938" y="8" type="curve" smooth="yes"/>
      <point x="938" y="38"/>
      <point x="941" y="98"/>
      <point x="941" y="148" type="curve" smooth="yes"/>
      <point x="941" y="158"/>
      <point x="930" y="158"/>
      <point x="921" y="158" type="curve" smooth="yes"/>
      <point x="913" y="158"/>
      <point x="904" y="158"/>
      <point x="904" y="149" type="curve" smooth="yes"/>
      <point x="903" y="110"/>
      <point x="903" y="85"/>
      <point x="901" y="60" type="curve" smooth="yes"/>
      <point x="899" y="42"/>
      <point x="899" y="40"/>
      <point x="892" y="40" type="curve" smooth="yes"/>
      <point x="881" y="40"/>
      <point x="693" y="37"/>
      <point x="586" y="37" type="curve" smooth="yes"/>
      <point x="581" y="37"/>
      <point x="578" y="178"/>
      <point x="575" y="310" type="curve"/>
      <point x="575" y="324"/>
      <point x="578" y="322"/>
      <point x="588" y="322" type="curve" smooth="yes"/>
      <point x="751" y="322" type="line" smooth="yes"/>
      <point x="801" y="322"/>
      <point x="803" y="314"/>
      <point x="803" y="307" type="curve" smooth="yes"/>
      <point x="803" y="257" type="line" smooth="yes"/>
      <point x="803" y="247"/>
      <point x="816" y="247"/>
      <point x="824" y="247" type="curve" smooth="yes"/>
      <point x="831" y="247"/>
      <point x="840" y="248"/>
      <point x="840" y="256" type="curve" smooth="yes"/>
      <point x="840" y="269"/>
      <point x="838" y="305"/>
      <point x="838" y="341" type="curve" smooth="yes"/>
      <point x="838" y="377"/>
      <point x="840" y="412"/>
      <point x="840" y="421" type="curve" smooth="yes"/>
      <point x="840" y="429"/>
      <point x="830" y="430"/>
      <point x="823" y="430" type="curve" smooth="yes"/>
      <point x="815" y="430"/>
      <point x="803" y="429"/>
      <point x="803" y="420" type="curve" smooth="yes"/>
      <point x="803" y="368" type="line" smooth="yes"/>
      <point x="803" y="356"/>
      <point x="771" y="355"/>
      <point x="751" y="355" type="curve" smooth="yes"/>
      <point x="584" y="355" type="line" smooth="yes"/>
      <point x="576" y="355"/>
      <point x="575" y="355"/>
      <point x="575" y="368" type="curve"/>
      <point x="574" y="418"/>
      <point x="573" y="467"/>
      <point x="573" y="510" type="curve" smooth="yes"/>
      <point x="573" y="534"/>
      <point x="573" y="635"/>
      <point x="579" y="635" type="curve" smooth="yes"/>
      <point x="667" y="635"/>
      <point x="846" y="632"/>
      <point x="846" y="628" type="curve" smooth="yes"/>
      <point x="846" y="615"/>
      <point x="843" y="555"/>
      <point x="843" y="551" type="curve" smooth="yes"/>
      <point x="843" y="540"/>
      <point x="848" y="536"/>
      <point x="861" y="536" type="curve" smooth="yes"/>
      <point x="875" y="536"/>
      <point x="880" y="537"/>
      <point x="880" y="547" type="curve" smooth="yes"/>
      <point x="880" y="625"/>
      <point x="884" y="660"/>
      <point x="884" y="679" type="curve" smooth="yes"/>
      <point x="884" y="692"/>
      <point x="878" y="693"/>
      <point x="864" y="693" type="curve" smooth="yes"/>
      <point x="850" y="693"/>
      <point x="850" y="689"/>
      <point x="848" y="678" type="curve"/>
      <point x="847" y="668"/>
      <point x="852" y="668"/>
      <point x="787" y="668" type="curve" smooth="yes"/>
      <point x="743" y="668"/>
      <point x="590" y="665"/>
      <point x="535" y="665" type="curve" smooth="yes"/>
      <point x="438" y="665"/>
      <point x="389" y="668"/>
      <point x="382" y="668" type="curve" smooth="yes"/>
      <point x="373" y="668"/>
      <point x="371" y="664"/>
      <point x="371" y="651" type="curve" smooth="yes"/>
      <point x="371" y="637"/>
      <point x="372" y="633"/>
      <point x="382" y="633" type="curve" smooth="yes"/>
      <point x="432" y="633" type="line" smooth="yes"/>
      <point x="437" y="633"/>
      <point x="440" y="633"/>
      <point x="437" y="627" type="curve"/>
      <point x="216" y="267" type="line" smooth="yes"/>
      <point x="137" y="138"/>
      <point x="77" y="30"/>
      <point x="66" y="30" type="curve" smooth="yes"/>
      <point x="38" y="30" type="line" smooth="yes"/>
      <point x="22" y="30"/>
      <point x="17" y="29"/>
      <point x="17" y="15" type="curve" smooth="yes"/>
    </contour>
    <contour>
      <point x="282" y="310"/>
      <point x="285" y="314"/>
      <point x="288" y="319" type="curve" smooth="yes"/>
      <point x="470" y="625" type="line" smooth="yes"/>
      <point x="473" y="630"/>
      <point x="475" y="633"/>
      <point x="478" y="633" type="curve" smooth="yes"/>
      <point x="482" y="633" type="line" smooth="yes"/>
      <point x="485" y="633"/>
      <point x="490" y="631"/>
      <point x="490" y="451" type="curve" smooth="yes"/>
      <point x="490" y="319" type="line" smooth="yes"/>
      <point x="490" y="303"/>
      <point x="490" y="302"/>
      <point x="464" y="302" type="curve" smooth="yes"/>
      <point x="295" y="302" type="line" smooth="yes"/>
      <point x="285" y="302"/>
      <point x="282" y="304"/>
      <point x="282" y="307" type="curve" smooth="yes"/>
    </contour>
  </outline>
</glyph>
